<?xml version="1.0" encoding="UTF-8"?>
<svg width="328px" height="42px" viewBox="0 0 328 42" version="1.1" xmlns="http://www.w3.org/2000/svg" xmlns:xlink="http://www.w3.org/1999/xlink">
    <!-- Generator: Sketch 57.1 (83088) - https://sketch.com -->
    <title>borgarsogusafn</title>
    <desc>Created with Sketch.</desc>
    <g id="design" stroke="none" stroke-width="1" fill="none" fill-rule="evenodd">
        <g id="places-details" transform="translate(-492.000000, -3437.000000)" fill="#231F20">
            <g id="borgarsogusafn" transform="translate(491.000000, 3437.000000)">
                <g id="Group-86" transform="translate(0.500000, 0.000000)">
                    <polygon id="Fill-2" points="5.39645738 36.9815 0.774835759 32.3615 14.1854387 18.9609737 27.5952516 32.3615 22.97442 36.9815 14.1854387 28.1986053"></polygon>
                    <polygon id="Fill-3" points="39.5756798 20.1381579 30.7866985 11.3552632 21.9977173 20.1381579 17.3768857 15.5181579 30.7866985 2.11763158 44.1973015 15.5181579"></polygon>
                    <polygon id="Fill-4" points="56.1661954 36.9813421 57.3796674 36.9813421 57.3796674 2.12765789 56.1661954 2.12765789"></polygon>
                    <g id="Group-37" transform="translate(69.112266, 0.661605)">
                        <path d="M4.16893971,1.52684211 C4.88864865,1.52684211 6.53031185,1.56710526 7.57076923,2.54605263 C8.43031185,3.36631579 8.53143451,4.48736842 8.53143451,5.06605263 C8.53143451,5.58710526 8.45085239,6.18710526 8.08981289,6.76657895 C7.75089397,7.32710526 7.28952183,7.60815789 6.97035343,7.74710526 C7.61106029,7.84657895 8.33076923,8.16631579 8.81110187,8.64631579 C9.25114345,9.08605263 9.67222453,9.84710526 9.67222453,11.0265789 C9.67222453,12.3671053 9.15160083,13.2063158 8.63097713,13.7265789 C7.53047817,14.7860526 5.92910603,14.8665789 5.10827443,14.8665789 L0.0853222453,14.8665789 L0.0853222453,1.52684211 L4.16893971,1.52684211 Z M3.12769231,6.94578947 L3.62935551,6.94578947 C4.04806653,6.94578947 4.74881497,6.88736842 5.18885655,6.56763158 C5.47010395,6.36631579 5.72844075,5.96763158 5.72844075,5.38815789 C5.72844075,4.80631579 5.44877339,4.44710526 5.20781705,4.26710526 C4.76935551,3.92684211 4.16893971,3.92684211 3.60802495,3.92684211 L3.12769231,3.92684211 L3.12769231,6.94578947 Z M3.12769231,12.4665789 L3.86873181,12.4665789 C4.64927235,12.4665789 5.58860707,12.4476316 6.14952183,11.9273684 C6.43076923,11.6676316 6.58956341,11.2871053 6.58956341,10.8071053 C6.58956341,10.2655263 6.36914761,9.90631579 6.17006237,9.72631579 C5.62889813,9.22736842 4.58765073,9.22736842 3.96827443,9.22736842 L3.12769231,9.22736842 L3.12769231,12.4665789 Z" id="Fill-5"></path>
                        <path d="M20.3377422,13.7266579 C19.5382412,14.5263947 18.1754553,15.1666579 16.4342495,15.1666579 C14.6946237,15.1666579 13.3326279,14.5263947 12.5323368,13.7266579 C11.6309231,12.8258684 11.1908815,11.5469211 11.1908815,10.4069211 C11.1908815,9.26613158 11.6309231,7.98639474 12.5323368,7.08560526 C13.3326279,6.28665789 14.6946237,5.64560526 16.4342495,5.64560526 C18.1754553,5.64560526 19.5382412,6.28665789 20.3377422,7.08560526 C21.2391559,7.98639474 21.6791975,9.26613158 21.6791975,10.4069211 C21.6791975,11.5469211 21.2391559,12.8258684 20.3377422,13.7266579 M14.8131268,8.72692105 C14.3944158,9.14692105 14.1534595,9.68613158 14.1534595,10.4069211 C14.1534595,11.2256053 14.4749979,11.7458684 14.8131268,12.0861316 C15.1733763,12.4477105 15.694,12.7263947 16.45479,12.7263947 C17.0962869,12.7263947 17.6358711,12.5069211 18.0569522,12.0861316 C18.4756632,11.6677105 18.7166195,11.1261316 18.7166195,10.4069211 C18.7166195,9.68613158 18.4756632,9.14692105 18.0569522,8.72692105 C17.6358711,8.30534211 17.0962869,8.08744737 16.4342495,8.08744737 C15.7737921,8.08744737 15.2342079,8.30534211 14.8131268,8.72692105" id="Fill-7"></path>
                        <path d="M23.4789439,5.94639474 L26.3601497,5.94639474 L26.3601497,7.34613158 C26.6208565,6.84718421 27.0206071,6.38613158 27.4819792,6.10744737 C27.9623119,5.80665789 28.461605,5.72692105 29.0225198,5.72692105 C29.3819792,5.72692105 29.6426861,5.76639474 29.9634345,5.86586842 L29.8030603,8.56586842 C29.4222703,8.36692105 29.0035593,8.24692105 28.501896,8.24692105 C27.8817297,8.24692105 27.4227277,8.46639474 27.0608981,8.84692105 C26.4201913,9.52586842 26.3601497,10.4858684 26.3601497,11.2469211 L26.3601497,14.8666579 L23.4789439,14.8666579 L23.4789439,5.94639474 Z" id="Fill-9"></path>
                        <path d="M37.9473056,5.94639474 L40.8285114,5.94639474 L40.8285114,14.3258684 C40.8285114,15.5858684 40.7700499,17.0069211 39.7288025,18.1271842 C38.6283035,19.3066579 36.9463493,19.4463947 35.9667235,19.4463947 C34.7864324,19.4463947 33.364395,19.2671842 32.2425655,18.3071842 C31.6840208,17.8271842 31.1041455,17.0661316 30.9034802,15.9458684 L34.0453929,15.9458684 C34.163896,16.4061316 34.4451435,16.6666579 34.6845198,16.8269211 C35.0250187,17.0471842 35.5053514,17.1253421 35.9264324,17.1253421 C36.747264,17.1253421 37.1667651,16.8269211 37.3674304,16.6469211 C37.9283451,16.1061316 37.9473056,15.1674474 37.9473056,14.7869211 L37.9473056,13.7653421 C37.6068067,14.3258684 36.9273888,15.1058684 35.2857256,15.1058684 C33.9055593,15.1058684 32.8437713,14.6661316 32.0229397,13.8458684 C31.3032308,13.1053421 30.7217755,12.0277105 30.7217755,10.4858684 C30.7217755,8.96613158 31.2819002,7.70613158 32.0442703,6.92771053 C32.5830644,6.36718421 33.6243119,5.64639474 35.2857256,5.64639474 C36.9060582,5.64639474 37.6273472,6.50692105 37.9473056,6.98692105 L37.9473056,5.94639474 Z M34.3653514,8.72692105 C33.9253098,9.14771053 33.6843534,9.84718421 33.6843534,10.3863947 C33.6843534,10.9658684 33.9055593,11.5666579 34.3037297,11.9866579 C34.7058503,12.4058684 35.2454345,12.6253421 35.9264324,12.6253421 C36.6864324,12.6253421 37.1880956,12.3277105 37.4875135,12.0466579 C37.9283451,11.6258684 38.188262,11.0061316 38.188262,10.3461316 C38.188262,9.64665789 37.8880541,9.06718421 37.507264,8.70560526 C37.086183,8.32744737 36.4660166,8.14744737 35.9453929,8.14744737 C35.3062661,8.14744737 34.7248108,8.38665789 34.3653514,8.72692105 L34.3653514,8.72692105 Z" id="Fill-11"></path>
                        <path d="M49.9141455,5.94718421 L52.7953514,5.94718421 L52.7953514,14.8674474 L49.9141455,14.8674474 L49.9141455,13.7874474 C49.133605,14.9858684 48.0117755,15.1674474 47.273106,15.1674474 C45.9909023,15.1674474 44.9101538,14.8461316 43.9305281,13.8063947 C42.9904033,12.8077105 42.6293638,11.6471842 42.6293638,10.4677105 C42.6293638,8.96613158 43.1894886,7.68718421 44.0103202,6.86692105 C44.7892807,6.08692105 45.8708191,5.64718421 47.1127318,5.64718421 C47.8727318,5.64718421 49.0925239,5.82639474 49.9141455,6.94744737 L49.9141455,5.94718421 Z M46.2516091,8.76718421 C45.9506112,9.06797368 45.5911518,9.58744737 45.5911518,10.3871842 C45.5911518,11.1861316 45.9316507,11.7063947 46.1923576,11.9874474 C46.5921081,12.4066579 47.2122744,12.6877105 47.8932723,12.6877105 C48.4731476,12.6877105 49.0127318,12.4461316 49.3935218,12.0679737 C49.7743119,11.7063947 50.0942703,11.1458684 50.0942703,10.3871842 C50.0942703,9.74613158 49.854894,9.1485 49.4338129,8.74665789 C48.9929813,8.32744737 48.3522744,8.12692105 47.8316507,8.12692105 C47.2122744,8.12692105 46.6323992,8.38665789 46.2516091,8.76718421 L46.2516091,8.76718421 Z" id="Fill-13"></path>
                        <path d="M55.0361663,5.94639474 L57.9181622,5.94639474 L57.9181622,7.34613158 C58.178869,6.84718421 58.5778295,6.38613158 59.0392017,6.10744737 C59.5195343,5.80665789 60.0196175,5.72692105 60.5797422,5.72692105 C60.9399917,5.72692105 61.1999085,5.76639474 61.521447,5.86586842 L61.3602827,8.56586842 C60.9794927,8.36692105 60.5607817,8.24692105 60.0591185,8.24692105 C59.4389522,8.24692105 58.9799501,8.46639474 58.6181206,8.84692105 C57.9774137,9.52586842 57.9181622,10.4858684 57.9181622,11.2469211 L57.9181622,14.8666579 L55.0361663,14.8666579 L55.0361663,5.94639474 Z" id="Fill-15"></path>
                        <path d="M68.1845613,8.22734211 C67.7445198,7.96681579 67.1630644,7.72602632 66.6037297,7.72602632 C66.3011518,7.72602632 65.9622328,7.80655263 65.7828981,7.98655263 C65.6833555,8.08760526 65.6027734,8.24628947 65.6027734,8.38839474 C65.6027734,8.58734211 65.7426071,8.70734211 65.8824407,8.78707895 C66.083106,8.90628947 66.3817339,8.96707895 66.7435634,9.08786842 L67.5035634,9.32707895 C68.0044366,9.48734211 68.5250603,9.68865789 68.9840624,10.1070789 C69.5046861,10.5870789 69.6848108,11.1278684 69.6848108,11.8068158 C69.6848108,12.9870789 69.1641871,13.7481316 68.7644366,14.1476053 C67.8843534,15.0270789 66.802815,15.1668158 65.8634802,15.1668158 C64.6618586,15.1668158 63.3606944,14.9062895 62.2009439,13.8870789 L63.421526,11.9465526 C63.7011933,12.1873421 64.1009439,12.4668158 64.4011518,12.6081316 C64.8009023,12.8070789 65.2219834,12.8876053 65.6027734,12.8876053 C65.7828981,12.8876053 66.2426902,12.8876053 66.5026071,12.6862895 C66.6827318,12.5473421 66.802815,12.3270789 66.802815,12.1076053 C66.802815,11.9465526 66.7435634,11.7476053 66.4836466,11.5873421 C66.2821913,11.4665526 66.0222744,11.3860263 65.6027734,11.2660263 L64.8814844,11.0481316 C64.3616507,10.8870789 63.8220665,10.6060263 63.4404865,10.2278684 C63.0217755,9.78813158 62.7997796,9.28681579 62.7997796,8.60786842 C62.7997796,7.74734211 63.1402786,7.02655263 63.6609023,6.54655263 C64.4627734,5.80681579 65.5419418,5.64734211 66.3627734,5.64734211 C67.6828981,5.64734211 68.6032723,5.98602632 69.3245613,6.40681579 L68.1845613,8.22734211 Z" id="Fill-17"></path>
                        <path d="M80.1111892,13.7266579 C79.3108981,14.5263947 77.9489023,15.1666579 76.2092765,15.1666579 C74.4680707,15.1666579 73.1076549,14.5263947 72.3057838,13.7266579 C71.4043701,12.8258684 70.9659085,11.5469211 70.9659085,10.4069211 C70.9659085,9.26613158 71.4043701,7.98639474 72.3057838,7.08560526 C73.1076549,6.28665789 74.4680707,5.64560526 76.2092765,5.64560526 C77.9489023,5.64560526 79.3108981,6.28665789 80.1111892,7.08560526 C81.0126029,7.98639474 81.4526445,9.26613158 81.4526445,10.4069211 C81.4526445,11.5469211 81.0126029,12.8258684 80.1111892,13.7266579 M74.025659,1.30744737 C74.8867817,1.30744737 75.6088607,2.02823684 75.6088607,2.88639474 C75.6088607,3.74692105 74.8867817,4.46613158 74.025659,4.46613158 C73.1669064,4.46613158 72.4471975,3.74692105 72.4471975,2.88639474 C72.4471975,2.02823684 73.1669064,1.30744737 74.025659,1.30744737 M74.5889439,8.72692105 C74.1678628,9.14692105 73.9261164,9.68613158 73.9261164,10.4069211 C73.9261164,11.2271842 74.2484449,11.7458684 74.5889439,12.0861316 C74.9484033,12.4477105 75.469027,12.7263947 76.228237,12.7263947 C76.8697339,12.7263947 77.4093181,12.5069211 77.8303992,12.0861316 C78.2514802,11.6677105 78.4900665,11.1277105 78.4900665,10.4069211 C78.4900665,9.68613158 78.2514802,9.14692105 77.8303992,8.72692105 C77.4093181,8.30534211 76.8697339,8.08744737 76.2092765,8.08744737 C75.5496091,8.08744737 75.0076549,8.30534211 74.5889439,8.72692105 M78.3905239,1.30744737 C79.2500665,1.30744737 79.9713555,2.02823684 79.9713555,2.88639474 C79.9713555,3.74692105 79.2500665,4.46613158 78.3905239,4.46613158 C77.5294012,4.46613158 76.8081123,3.74692105 76.8081123,2.88639474 C76.8081123,2.02823684 77.5294012,1.30744737 78.3905239,1.30744737" id="Fill-19"></path>
                        <path d="M90.0362204,5.94639474 L92.9182162,5.94639474 L92.9182162,14.3258684 C92.9182162,15.5858684 92.8589647,17.0069211 91.8177173,18.1271842 C90.7172183,19.3066579 89.035264,19.4463947 88.0556383,19.4463947 C86.8753472,19.4463947 85.4533098,19.2671842 84.3322703,18.3071842 C83.7737256,17.8271842 83.1914802,17.0661316 82.992395,15.9458684 L86.1350977,15.9458684 C86.2528108,16.4061316 86.5348482,16.6666579 86.7742245,16.8269211 C87.1147235,17.0471842 87.5950561,17.1253421 88.0153472,17.1253421 C88.8361788,17.1253421 89.2556798,16.8269211 89.4563451,16.6469211 C90.0172599,16.1061316 90.0362204,15.1674474 90.0362204,14.7869211 L90.0362204,13.7653421 C89.6957214,14.3258684 89.0163035,15.1058684 87.3746403,15.1058684 C85.995264,15.1058684 84.9334761,14.6661316 84.1118545,13.8458684 C83.3921455,13.1053421 82.8106902,12.0277105 82.8106902,10.4858684 C82.8106902,8.96613158 83.371605,7.70613158 84.133185,6.92771053 C84.6727692,6.36718421 85.7140166,5.64639474 87.3746403,5.64639474 C88.995763,5.64639474 89.717052,6.50692105 90.0362204,6.98692105 L90.0362204,5.94639474 Z M86.4542661,8.72692105 C86.0142245,9.14771053 85.7732682,9.84718421 85.7732682,10.3863947 C85.7732682,10.9658684 85.995264,11.5666579 86.3934345,11.9866579 C86.7947651,12.4058684 87.3343493,12.6253421 88.0153472,12.6253421 C88.7753472,12.6253421 89.2770104,12.3277105 89.5772183,12.0466579 C90.0172599,11.6258684 90.2771767,11.0061316 90.2771767,10.3461316 C90.2771767,9.64665789 89.9769688,9.06718421 89.5961788,8.70560526 C89.1750977,8.32744737 88.5549314,8.14744737 88.0350977,8.14744737 C87.3959709,8.14744737 86.8137256,8.38665789 86.4542661,8.72692105 L86.4542661,8.72692105 Z" id="Fill-21"></path>
                        <path d="M98.040632,5.94639474 L98.040632,10.8663947 C98.040632,11.2658684 98.0809231,11.8856053 98.5399252,12.3063947 C98.7405904,12.4863947 99.1008399,12.7271842 99.7415468,12.7271842 C100.283501,12.7271842 100.702212,12.5471842 100.962919,12.3063947 C101.38163,11.9069211 101.443252,11.3061316 101.443252,10.8663947 L101.443252,5.94639474 L104.324457,5.94639474 L104.324457,11.1458684 C104.324457,12.1666579 104.224915,13.1266579 103.323501,14.0061316 C102.303584,15.0063947 100.801755,15.1674474 99.7415468,15.1674474 C98.6410478,15.1674474 97.1605489,15.0063947 96.138262,14.0061316 C95.3198004,13.2071842 95.1586362,12.3063947 95.1586362,11.3274474 L95.1586362,5.94639474 L98.040632,5.94639474 Z" id="Fill-23"></path>
                        <path d="M112.029135,8.22734211 C111.589094,7.96681579 111.007638,7.72602632 110.448304,7.72602632 C110.146516,7.72602632 109.807597,7.80655263 109.627472,7.98655263 C109.527929,8.08760526 109.447347,8.24628947 109.447347,8.38839474 C109.447347,8.58734211 109.587181,8.70734211 109.727015,8.78707895 C109.92768,8.90628947 110.226308,8.96707895 110.588137,9.08786842 L111.348137,9.32707895 C111.84901,9.48734211 112.369634,9.68865789 112.828636,10.1070789 C113.34926,10.5870789 113.529385,11.1278684 113.529385,11.8068158 C113.529385,12.9870789 113.008761,13.7481316 112.60901,14.1476053 C111.728927,15.0270789 110.647389,15.1668158 109.708054,15.1668158 C108.506432,15.1668158 107.205268,14.9062895 106.045518,13.8870789 L107.2661,11.9465526 C107.545767,12.1873421 107.945518,12.4668158 108.245726,12.6081316 C108.646266,12.8070789 109.066557,12.8876053 109.447347,12.8876053 C109.627472,12.8876053 110.087264,12.8876053 110.347181,12.6862895 C110.527306,12.5473421 110.647389,12.3270789 110.647389,12.1076053 C110.647389,11.9465526 110.588137,11.7476053 110.32822,11.5873421 C110.126765,11.4665526 109.866848,11.3860263 109.447347,11.2660263 L108.726058,11.0481316 C108.206225,10.8870789 107.66664,10.6060263 107.28585,10.2278684 C106.863979,9.78813158 106.644353,9.28681579 106.644353,8.60786842 C106.644353,7.74734211 106.984852,7.02655263 107.505476,6.54655263 C108.307347,5.80681579 109.386516,5.64734211 110.207347,5.64734211 C111.527472,5.64734211 112.447846,5.98602632 113.169135,6.40681579 L112.029135,8.22734211 Z" id="Fill-25"></path>
                        <path d="M122.094553,5.94718421 L124.975759,5.94718421 L124.975759,14.8674474 L122.094553,14.8674474 L122.094553,13.7874474 C121.314012,14.9858684 120.192183,15.1674474 119.453514,15.1674474 C118.1721,15.1674474 117.090561,14.8461316 116.110936,13.8063947 C115.169231,12.8077105 114.809771,11.6471842 114.809771,10.4677105 C114.809771,8.96613158 115.369896,7.68718421 116.190728,6.86692105 C116.969688,6.08692105 118.051227,5.64718421 119.293139,5.64718421 C120.053139,5.64718421 121.273721,5.82639474 122.094553,6.94744737 L122.094553,5.94718421 Z M118.432017,8.76718421 C118.131019,9.06797368 117.771559,9.58744737 117.771559,10.3871842 C117.771559,11.1861316 118.112058,11.7063947 118.372765,11.9874474 C118.772516,12.4066579 119.392682,12.6877105 120.07368,12.6877105 C120.653555,12.6877105 121.193139,12.4461316 121.573929,12.0679737 C121.954719,11.7063947 122.274678,11.1458684 122.274678,10.3871842 C122.274678,9.74613158 122.035301,9.1485 121.61422,8.74665789 C121.174179,8.32744737 120.532682,8.12692105 120.012848,8.12692105 C119.392682,8.12692105 118.812807,8.38665789 118.432017,8.76718421 L118.432017,8.76718421 Z" id="Fill-27"></path>
                        <path d="M130.338499,8.26665789 L130.338499,14.8674474 L127.457293,14.8674474 L127.457293,8.26665789 L126.416046,8.26665789 L126.416046,5.94718421 L127.457293,5.94718421 L127.457293,4.18744737 C127.457293,3.18560526 127.556836,2.04639474 128.457459,1.08639474 C129.037335,0.466657895 129.858166,0.0671842105 130.958665,0.0671842105 C131.599372,0.0671842105 132.119996,0.187973684 132.600328,0.367184211 L132.600328,2.88797368 C132.28037,2.68665789 131.860079,2.54692105 131.49983,2.54692105 C131.059788,2.54692105 130.778541,2.74586842 130.660037,2.90692105 C130.338499,3.32771053 130.338499,4.02718421 130.338499,4.44639474 L130.338499,5.94718421 L132.619289,5.94718421 L132.619289,8.26665789 L130.338499,8.26665789 Z" id="Fill-29"></path>
                        <path d="M133.740407,5.94639474 L136.622403,5.94639474 L136.622403,7.00744737 C137.502486,5.88718421 138.543734,5.70718421 139.383526,5.70718421 C140.164067,5.70718421 141.183983,5.84692105 141.945563,6.60560526 C142.785356,7.44560526 142.846977,8.50665789 142.846977,9.22744737 L142.846977,14.8666579 L139.963401,14.8666579 L139.963401,10.2869211 C139.963401,9.70586842 139.944441,8.96613158 139.484649,8.50665789 C139.265023,8.28718421 138.903193,8.10718421 138.38257,8.10718421 C137.783734,8.10718421 137.402944,8.34639474 137.182528,8.58718421 C136.702985,9.06718421 136.622403,9.70586842 136.622403,10.2869211 L136.622403,14.8666579 L133.740407,14.8666579 L133.740407,5.94639474 Z" id="Fill-31"></path>
                        <path d="M154.772025,1.52684211 C156.47294,1.52684211 157.533148,2.08736842 158.174644,2.68736842 C158.734769,3.22657895 159.335975,4.18657895 159.335975,5.66684211 C159.335975,6.50684211 159.15585,7.54657895 158.294728,8.38578947 C157.833356,8.82789474 157.173688,9.22736842 156.433439,9.40736842 L160.535227,14.8665789 L156.773938,14.8665789 L153.170653,9.60789474 L153.170653,14.8665789 L150.089572,14.8665789 L150.089572,1.52684211 L154.772025,1.52684211 Z M153.170653,7.58684211 L153.870611,7.58684211 C154.431526,7.58684211 155.193106,7.52763158 155.71373,7.00736842 C155.933356,6.78789474 156.213023,6.36631579 156.213023,5.70710526 C156.213023,4.94605263 155.853563,4.54657895 155.592857,4.34763158 C155.091983,3.96710526 154.291692,3.92684211 153.891942,3.92684211 L153.170653,3.92684211 L153.170653,7.58684211 Z" id="Fill-33"></path>
                        <path d="M171.042266,10.9072105 L164.376861,10.9072105 C164.376861,11.3872105 164.556985,12.0258947 164.918815,12.4269474 C165.358857,12.9069474 165.957692,12.9874737 166.400104,12.9874737 C166.818815,12.9874737 167.258857,12.9069474 167.559064,12.7277368 C167.599356,12.7064211 167.939854,12.4861579 168.179231,11.9872105 L170.901642,12.2666842 C170.501892,13.5266842 169.700811,14.1866842 169.180187,14.508 C168.319064,15.0258947 167.359979,15.1672105 166.357443,15.1672105 C165.018358,15.1672105 163.837277,14.9264211 162.796029,13.8882632 C162.015489,13.1082632 161.455364,11.928 161.455364,10.4477368 C161.455364,9.16721053 161.915946,7.848 162.81578,6.92747368 C163.896528,5.84747368 165.237983,5.64615789 166.23894,5.64615789 C167.239896,5.64615789 168.680894,5.82615789 169.780603,6.98747368 C170.840811,8.10773684 171.042266,9.50747368 171.042266,10.6072105 L171.042266,10.9072105 Z M168.379896,9.18615789 C168.360936,9.108 168.219522,8.54747368 167.800021,8.148 C167.478482,7.848 167.01948,7.64668421 166.438025,7.64668421 C165.696985,7.64668421 165.256944,7.94668421 164.978067,8.22773684 C164.757651,8.46694737 164.556985,8.78589474 164.476403,9.18615789 L168.379896,9.18615789 Z" id="Fill-35"></path>
                    </g>
                    <polygon id="Fill-38" points="245.136166 14.3882632 240.873214 6.608 244.195252 6.608 246.716998 11.4490526 249.179493 6.608 252.420948 6.608 245.235709 20.108 241.993464 20.108"></polygon>
                    <polygon id="Fill-39" points="256.623069 0.948657895 256.623069 9.88786842 259.864524 6.60839474 263.647933 6.60839474 259.404732 10.6497105 263.947351 15.5294474 260.065189 15.5294474 256.623069 11.6878684 256.623069 15.5294474 253.741073 15.5294474 253.741073 0.948657895"></polygon>
                    <g id="Group-44" transform="translate(264.247401, 0.661605)">
                        <path d="M2.38135967,0.467131579 C3.32069439,0.467131579 4.06173389,1.20686842 4.06173389,2.14792105 C4.06173389,3.08660526 3.32069439,3.82634211 2.38135967,3.82634211 C1.44044491,3.82634211 0.699405405,3.08660526 0.699405405,2.14792105 C0.699405405,1.20686842 1.44044491,0.467131579 2.38135967,0.467131579 L2.38135967,0.467131579 Z M0.940361746,19.4476579 L3.82235759,19.4476579 L3.82235759,5.94765789 L0.940361746,5.94765789 L0.940361746,19.4476579 Z" id="Fill-40"></path>
                        <path d="M13.1075509,5.94718421 L15.9887568,5.94718421 L15.9887568,14.8674474 L13.1075509,14.8674474 L13.1075509,13.7874474 C12.3270104,14.9858684 11.2059709,15.1674474 10.4665114,15.1674474 C9.18509771,15.1674474 8.10355925,14.8461316 7.12393347,13.8063947 C6.18222869,12.8077105 5.82276923,11.6471842 5.82276923,10.4677105 C5.82276923,8.96613158 6.38289397,7.68718421 7.20372557,6.86692105 C7.98347609,6.08692105 9.06422453,5.64718421 10.3061372,5.64718421 C11.0661372,5.64718421 12.2867193,5.82639474 13.1075509,6.94744737 L13.1075509,5.94718421 Z M9.44501455,8.76718421 C9.14401663,9.06797368 8.78455717,9.58744737 8.78455717,10.3871842 C8.78455717,11.1861316 9.12584615,11.7063947 9.38576299,11.9874474 C9.78551351,12.4066579 10.4056798,12.6877105 11.0866778,12.6877105 C11.666553,12.6877105 12.2061372,12.4461316 12.5869272,12.0679737 C12.9677173,11.7063947 13.2876757,11.1458684 13.2876757,10.3871842 C13.2876757,9.74613158 13.0482994,9.1485 12.6280083,8.74665789 C12.1871767,8.32744737 11.5456798,8.12692105 11.0258462,8.12692105 C10.4056798,8.12692105 9.82580457,8.38665789 9.44501455,8.76718421 L9.44501455,8.76718421 Z" id="Fill-42"></path>
                    </g>
                    <polygon id="Fill-45" points="284.55852 6.608 286.820349 11.3882632 289.082179 6.608 292.243842 6.608 287.719393 15.5282632 285.919726 15.5282632 281.397647 6.608"></polygon>
                    <path d="M293.603784,15.5281842 L296.48499,15.5281842 L296.48499,6.60792105 L293.603784,6.60792105 L293.603784,15.5281842 Z M297.665281,2.5295 L295.025031,5.22792105 L293.723867,4.26713158 L295.785031,1.22923684 L297.665281,2.5295 Z" id="Fill-46"></path>
                    <polygon id="Fill-47" points="301.888021 0.948657895 301.888021 9.88786842 305.129476 6.60839474 308.912886 6.60839474 304.669684 10.6497105 309.212304 15.5294474 305.330141 15.5294474 301.888021 11.6878684 301.888021 15.5294474 299.006815 15.5294474 299.006815 0.948657895"></polygon>
                    <g id="Group-56" transform="translate(69.112266, 6.187921)">
                        <path d="M243.802154,0.420078947 L243.802154,5.34007895 C243.802154,5.73955263 243.842445,6.35928947 244.303817,6.78007895 C244.502902,6.96007895 244.863942,7.20086842 245.503069,7.20086842 C246.045023,7.20086842 246.463734,7.02086842 246.723651,6.78007895 C247.144732,6.38060526 247.204773,5.77981579 247.204773,5.34007895 L247.204773,0.420078947 L250.085979,0.420078947 L250.085979,5.61955263 C250.085979,6.64034211 249.986437,7.60034211 249.085023,8.47981579 C248.065106,9.48007895 246.563277,9.64113158 245.503069,9.64113158 C244.40336,9.64113158 242.922071,9.48007895 241.902154,8.47981579 C241.081322,7.68086842 240.920948,6.78007895 240.920948,5.80113158 L240.920948,0.420078947 L243.802154,0.420078947 Z" id="Fill-48"></path>
                        <path d="M252.326478,0.420078947 L255.208474,0.420078947 L255.208474,1.81981579 C255.469181,1.32086842 255.868141,0.859815789 256.329514,0.581131579 C256.809846,0.280342105 257.309929,0.200605263 257.870844,0.200605263 C258.231884,0.200605263 258.49022,0.240078947 258.811759,0.339552632 L258.651385,3.03955263 C258.269805,2.84060526 257.851094,2.72060526 257.34943,2.72060526 C256.729264,2.72060526 256.270262,2.94007895 255.908432,3.32060526 C255.267726,3.99955263 255.208474,4.95955263 255.208474,5.72060526 L255.208474,9.34034211 L252.326478,9.34034211 L252.326478,0.420078947 Z" id="Fill-50"></path>
                        <path d="M2.48706445,17.4373421 C3.38847817,17.4373421 4.72756341,17.4965526 5.72851975,18.1770789 C6.51143035,18.6973421 7.19084823,19.7189211 7.19084823,21.1376053 C7.19084823,23.1776053 5.84860291,24.6768158 3.82851975,24.8165526 L8.07093139,30.7770789 L6.27047401,30.7770789 L2.20739709,24.9373421 L1.82660707,24.9373421 L1.82660707,30.7770789 L0.346108108,30.7770789 L0.346108108,17.4373421 L2.48706445,17.4373421 Z M1.82660707,23.6181316 L2.76831185,23.6181316 C4.60906029,23.6181316 5.70955925,22.7378684 5.70955925,21.1778684 C5.70955925,20.4373421 5.48914345,19.6976053 4.64935135,19.2176053 C4.04893555,18.8773421 3.36714761,18.8370789 2.72802079,18.8370789 L1.82660707,18.8370789 L1.82660707,23.6181316 Z" id="Fill-52"></path>
                        <path d="M16.9959543,28.6568684 C16.756578,29.1171316 16.3947484,29.6168684 15.9760374,29.9973947 C15.2168274,30.6763421 14.2751227,31.0166053 13.2125447,31.0166053 C11.211422,31.0166053 9.11075676,29.7581842 9.11075676,26.6776579 C9.11075676,24.1979211 10.6315468,22.2771316 13.1343326,22.2771316 C14.7554553,22.2771316 15.7753721,23.0768684 16.2762453,23.7976579 C16.795289,24.5381842 17.0954969,25.8171316 17.0552058,26.9168684 L10.5912557,26.9168684 C10.6125863,28.6379211 11.7928773,29.7368684 13.2338753,29.7368684 C13.9132931,29.7368684 14.4544574,29.5363421 14.93479,29.1368684 C15.3163701,28.8171316 15.6142079,28.3963421 15.7959127,27.9968684 L16.9959543,28.6568684 Z M15.5739168,25.7176579 C15.3345405,24.4173947 14.3549148,23.5568684 13.1343326,23.5568684 C11.9137505,23.5568684 10.9127942,24.4766053 10.6923784,25.7176579 L15.5739168,25.7176579 Z" id="Fill-54"></path>
                    </g>
                    <polygon id="Fill-57" points="90.9907069 36.1854737 87.1677963 28.6649474 88.8094595 28.6649474 91.7522869 34.6065263 94.452578 28.6649474 96.0539501 28.6649474 89.9502495 41.5641579 88.3480873 41.5641579"></polygon>
                    <polygon id="Fill-58" points="99.015501 22.3851579 99.015501 31.7451579 102.057871 28.6654211 103.938911 28.6654211 100.375917 32.2251579 104.578037 36.9659474 102.696998 36.9659474 99.3749605 33.1851579 99.015501 33.5451579 99.015501 36.9659474 97.5745031 36.9659474 97.5745031 22.3851579"></polygon>
                    <g id="Group-63" transform="translate(105.453222, 24.345816)">
                        <path d="M1.28654886,0.159868421 C1.84746362,0.159868421 2.3064657,0.619342105 2.3064657,1.17907895 C2.3064657,1.73960526 1.84746362,2.19986842 1.28654886,2.19986842 C0.726424116,2.19986842 0.265051975,1.73960526 0.265051975,1.17907895 C0.265051975,0.619342105 0.726424116,0.159868421 1.28654886,0.159868421 L1.28654886,0.159868421 Z M0.565259875,17.2188158 L2.0062578,17.2188158 L2.0062578,4.31881579 L0.565259875,4.31881579 L0.565259875,17.2188158 Z" id="Fill-59"></path>
                        <path d="M11.0923659,4.31928947 L12.5333638,4.31928947 L12.5333638,12.6198158 L11.0923659,12.6198158 L11.0923659,11.4592895 C10.6120333,12.0790263 9.71061954,12.8590263 8.25066112,12.8590263 C6.14999584,12.8590263 4.20733472,11.3787632 4.20733472,8.45928947 C4.20733472,5.59823684 6.12866528,4.12034211 8.25066112,4.12034211 C9.85282328,4.12034211 10.7115759,4.99981579 11.0923659,5.49876316 L11.0923659,4.31928947 Z M5.6886237,8.45928947 C5.6886237,10.2395526 6.68958004,11.5800789 8.4094553,11.5800789 C10.1719917,11.5800789 11.172948,10.1187632 11.172948,8.47823684 C11.172948,6.33876316 9.69165904,5.40007895 8.4094553,5.40007895 C6.98978794,5.40007895 5.6886237,6.43981579 5.6886237,8.45928947 L5.6886237,8.45928947 Z" id="Fill-61"></path>
                    </g>
                    <polygon id="Fill-64" points="121.107563 28.6655 123.589809 34.2644474 126.071264 28.6655 127.673426 28.6655 123.589809 37.5052368 119.506191 28.6655"></polygon>
                    <path d="M132.27427,24.1657368 L129.811775,27.1049474 L128.871651,26.6857368 L130.73373,23.6241579 L132.27427,24.1657368 Z M129.191609,36.9662632 L130.632607,36.9662632 L130.632607,28.6673158 L129.191609,28.6673158 L129.191609,36.9662632 Z" id="Fill-65"></path>
                    <polygon id="Fill-66" points="134.795543 22.3851579 134.795543 31.7451579 137.837913 28.6654211 139.718952 28.6654211 136.155958 32.2251579 140.358079 36.9659474 138.47704 36.9659474 135.155002 33.1851579 134.795543 33.5451579 134.795543 36.9659474 133.354545 36.9659474 133.354545 22.3851579"></polygon>
                    <g id="Group-71" transform="translate(145.744283, 22.766868)">
                        <path d="M11.284104,3.79847368 C10.8646029,3.37926316 10.223896,2.87873684 9.54289813,2.559 C8.84214969,2.23768421 8.02368815,2.03873684 7.24077755,2.03873684 C4.15969647,2.03873684 1.8773264,4.51926316 1.8773264,7.59742105 C1.8773264,11.2179474 4.82015385,13.0384737 7.26210811,13.0384737 C8.16273181,13.0384737 9.04360499,12.7779474 9.74356341,12.4187368 C10.5035634,12.0382105 11.0447277,11.5368947 11.284104,11.2984737 L11.284104,13.1379474 C9.80281497,14.199 8.26227443,14.4382105 7.26210811,14.4382105 C3.2985738,14.4382105 0.355746362,11.4374211 0.355746362,7.57926316 C0.355746362,3.59794737 3.33886486,0.639789474 7.34190021,0.639789474 C8.14140125,0.639789474 9.68273181,0.739263158 11.284104,1.959 L11.284104,3.79847368 Z" id="Fill-67"></path>
                        <path d="M14.365106,1.73881579 C14.9252308,1.73881579 15.3850229,2.19828947 15.3850229,2.75802632 C15.3850229,3.31855263 14.9252308,3.77881579 14.365106,3.77881579 C13.8041913,3.77881579 13.3451892,3.31855263 13.3451892,2.75802632 C13.3451892,2.19828947 13.8041913,1.73881579 14.365106,1.73881579 L14.365106,1.73881579 Z M13.643817,14.1990789 L15.084815,14.1990789 L15.084815,5.90013158 L13.643817,5.90013158 L13.643817,14.1990789 Z" id="Fill-69"></path>
                    </g>
                    <polygon id="Fill-72" points="165.032403 29.9857368 165.032403 36.9646842 163.591405 36.9646842 163.591405 29.9857368 162.711322 29.9857368 162.711322 28.6665263 163.591405 28.6665263 163.591405 25.6657368 165.032403 25.6657368 165.032403 28.6665263 166.473401 28.6665263 166.473401 29.9857368"></polygon>
                    <polygon id="Fill-73" points="171.055522 36.1854737 167.232611 28.6649474 168.874274 28.6649474 171.814732 34.6065263 174.516603 28.6649474 176.118765 28.6649474 170.014274 41.5641579 168.412902 41.5641579"></polygon>
                    <polygon id="Fill-74" points="182.201056 36.9653158 184.423385 22.8858421 189.547459 34.1445263 194.769497 22.8645263 196.851202 36.9653158 195.330412 36.9653158 194.068748 27.6858421 189.526129 37.5250526 185.042761 27.6858421 183.722636 36.9653158"></polygon>
                    <g id="Group-85" transform="translate(199.465696, 28.293184)">
                        <path d="M1.54622869,5.21202632 C1.54622869,5.7915 1.54622869,6.47202632 1.94597921,6.99228947 C2.16639501,7.27097368 2.60643659,7.63255263 3.40830769,7.63255263 C4.20780873,7.63255263 4.64785031,7.27097368 4.86826611,6.99228947 C5.26801663,6.47202632 5.26801663,5.7915 5.26801663,5.21202632 L5.26801663,0.372552632 L6.71059459,0.372552632 L6.71059459,5.37307895 C6.71059459,6.39228947 6.60947193,7.15255263 5.94901455,7.87176316 C5.20876507,8.65176316 4.22755925,8.91228947 3.40830769,8.91228947 C2.58668607,8.91228947 1.60548025,8.65176316 0.865230769,7.87176316 C0.204773389,7.15255263 0.105230769,6.39228947 0.105230769,5.37307895 L0.105230769,0.372552632 L1.54622869,0.372552632 L1.54622869,5.21202632 Z" id="Fill-75"></path>
                        <path d="M12.8530062,2.29239474 C12.652341,1.81239474 12.2328399,1.45318421 11.6916757,1.45318421 C11.171052,1.45318421 10.6907193,1.75318421 10.6907193,2.39186842 C10.6907193,2.99265789 11.0920499,3.17186842 12.0321746,3.57213158 C13.2337963,4.07265789 13.793921,4.45318421 14.1138794,4.85265789 C14.4733389,5.29239474 14.553921,5.73213158 14.553921,6.19160526 C14.553921,7.93160526 13.2930478,8.91292105 11.6916757,8.91292105 C11.3527568,8.91292105 9.49067775,8.87186842 8.79071933,6.79160526 L10.030262,6.27213158 C10.1914262,6.71186842 10.6717588,7.63160526 11.7122162,7.63160526 C12.652341,7.63160526 13.072632,6.93134211 13.072632,6.31160526 C13.072632,5.53160526 12.5125073,5.27186842 11.7319667,4.93318421 C10.7302204,4.49186842 10.0918836,4.17213158 9.71109356,3.71344737 C9.39113514,3.31318421 9.33030353,2.91213158 9.33030353,2.49292105 C9.33030353,1.03239474 10.3518004,0.171868421 11.7525073,0.171868421 C12.1925489,0.171868421 13.3736299,0.252394737 14.0332973,1.67265789 L12.8530062,2.29239474 Z" id="Fill-77"></path>
                        <path d="M23.8387983,6.55160526 C23.599422,7.01186842 23.2375925,7.51160526 22.8188815,7.89213158 C22.0596715,8.57107895 21.1179667,8.91134211 20.0553888,8.91134211 C18.0542661,8.91134211 15.9536008,7.65292105 15.9536008,4.57239474 C15.9536008,2.09265789 17.4743909,0.171868421 19.9771767,0.171868421 C21.5982994,0.171868421 22.6182162,0.971605263 23.1190894,1.69239474 C23.6381331,2.43292105 23.938341,3.71186842 23.8980499,4.81160526 L17.4340998,4.81160526 C17.4554304,6.53265789 18.6357214,7.63160526 20.0767193,7.63160526 C20.7561372,7.63160526 21.2980915,7.43107895 21.7784241,7.03160526 C22.1592141,6.71186842 22.457052,6.29107895 22.6387568,5.89160526 L23.8387983,6.55160526 Z M22.4167609,3.61239474 C22.1773846,2.31213158 21.1985489,1.45160526 19.9771767,1.45160526 C18.7565946,1.45160526 17.7556383,2.37134211 17.5352225,3.61239474 L22.4167609,3.61239474 Z" id="Fill-79"></path>
                        <path d="M27.5409148,5.21202632 C27.5409148,5.7915 27.5409148,6.47202632 27.9406653,6.99228947 C28.1610811,7.27097368 28.6011227,7.63255263 29.4006237,7.63255263 C30.2024948,7.63255263 30.6425364,7.27097368 30.8629522,6.99228947 C31.2627027,6.47202632 31.2627027,5.7915 31.2627027,5.21202632 L31.2627027,0.372552632 L32.7037006,0.372552632 L32.7037006,5.37307895 C32.7037006,6.39228947 32.604158,7.15255263 31.9437006,7.87176316 C31.2034511,8.65176316 30.2214553,8.91228947 29.4006237,8.91228947 C28.5813721,8.91228947 27.6001663,8.65176316 26.8599168,7.87176316 C26.1994595,7.15255263 26.0999168,6.39228947 26.0999168,5.37307895 L26.0999168,0.372552632 L27.5409148,0.372552632 L27.5409148,5.21202632 Z" id="Fill-81"></path>
                        <path d="M35.4249272,0.372315789 L36.8659252,0.372315789 L36.8659252,1.25178947 C37.3265073,0.572842105 38.0462162,0.171789474 38.9262994,0.171789474 C40.4289189,0.171789474 41.0277547,1.23284211 41.1881289,1.51152632 C41.99079,0.251526316 43.13079,0.171789474 43.6893347,0.171789474 C46.1518295,0.171789474 46.3912058,2.23231579 46.3912058,3.41257895 L46.3912058,8.67126316 L44.952578,8.67126316 L44.952578,3.63284211 C44.952578,2.69178947 44.8317048,1.45231579 43.471289,1.45231579 C41.8082952,1.45231579 41.6289605,3.051 41.6289605,4.05126316 L41.6289605,8.67126316 L40.1871726,8.67126316 L40.1871726,3.75284211 C40.1871726,3.17178947 40.2085031,1.45231579 38.6869231,1.45231579 C37.0452599,1.45231579 36.8659252,3.15205263 36.8659252,4.15310526 L36.8659252,8.67126316 L35.4249272,8.67126316 L35.4249272,0.372315789 Z" id="Fill-83"></path>
                    </g>
                </g>
            </g>
        </g>
    </g>
</svg>