<?xml version="1.0" encoding="UTF-8"?>
<svg width="160px" height="135px" viewBox="0 0 160 135" version="1.1" xmlns="http://www.w3.org/2000/svg" xmlns:xlink="http://www.w3.org/1999/xlink">
    <!-- Generator: Sketch 57.1 (83088) - https://sketch.com -->
    <title>listasafn</title>
    <desc>Created with Sketch.</desc>
    <g id="design" stroke="none" stroke-width="1" fill="none" fill-rule="evenodd">
        <g id="places-details" transform="translate(-918.000000, -3380.000000)">
            <g id="listasafn" transform="translate(918.000000, 3380.000000)">
                <polygon id="Fill-1" fill="#FEFEFE" points="40.8443031 6.17321534 0 125.06995 148.503138 135 159 132.487967 49.1149379 0"></polygon>
                <path d="M49.5110879,0 L41.0939382,6.24502953 L41.0555369,6.27331735 L0.0668710869,124.888749 L0,125.082817 L149.174829,135 L160,132.431729 L49.607091,0.113809134 L49.5110879,0 Z M8.12980274,121.56197 L49.5143984,0.494707912 L159.371015,132.169244 L8.12980274,121.56197 Z M41.3216971,6.46738495 L49.0952954,0.69930121 L7.76565326,121.65407 L0.478691048,124.662447 L41.3216971,6.46738495 Z M0.899780269,124.828226 L8.06028329,121.87182 L158.642053,132.432387 L149.172843,134.685545 L0.899780269,124.828226 Z" id="Fill-2" fill="#231F20"></path>
                <g id="Group-23" transform="translate(17.000000, 106.000000)" fill="#231F20">
                    <path d="M118.397552,20.6204906 L119.618955,20.7117094 L119.645406,20.6099906 C119.645406,20.6099906 122.349423,10.3724906 122.652955,9.21945938 L122.709826,9.00486563 L122.526648,8.98845938 C122.25089,8.96352188 121.591584,8.90577188 121.591584,8.90577188 L121.485116,8.89724063 L120.741165,11.7591469 L116.305229,11.3831156 L115.218068,8.34599063 L113.939794,8.23311563 L118.397552,20.6204906 Z M118.93981,18.7363969 C118.584697,17.7388969 117.631116,15.0646781 117.101423,13.5835219 L116.779374,12.6824906 L120.425068,12.9883031 C120.224035,13.7646469 119.265165,17.4796781 118.93981,18.7363969 L118.93981,18.7363969 Z" id="Fill-3"></path>
                    <path d="M106.912129,18.8927156 C107.762548,19.7143406 109.030903,19.9158094 110.276113,20.0116219 L110.297935,20.0129344 C111.112645,20.0772469 113.202984,20.2308094 113.202984,20.2308094 L113.345161,20.2419656 L112.713629,8.12890312 L111.537194,8.02390313 L111.807661,13.2496219 L109.967952,13.0986844 C109.749065,13.0796531 109.3675,13.0671844 109.202839,13.0625906 L106.590742,7.58684062 L105.250306,7.46937188 L105.345532,7.66690312 C105.345532,7.66690312 107.527129,12.2193094 107.971516,13.1472469 C107.221613,13.3008094 106.654887,13.6584656 106.324903,14.1900281 C105.732387,15.1494656 105.87721,16.4534344 106.016742,17.1457781 C106.162226,17.8722469 106.463774,18.4602469 106.912129,18.8927156 M107.139613,16.1869969 C107.125065,15.4585594 107.300306,14.9604656 107.666661,14.6677781 C108.306129,14.1559031 109.294758,14.2628719 110.166339,14.3573719 C110.331661,14.3750906 110.490371,14.3921531 110.641145,14.4046219 L111.872468,14.5043719 L112.081435,18.5363719 C112.088048,18.6558094 112.095323,18.7745906 112.101274,18.8933719 L110.4335,18.7693406 C109.835032,18.7273406 109.214742,18.6846844 108.644048,18.5029031 C108.267113,18.3821531 107.963581,18.2056219 107.740065,17.9772469 C107.357177,17.5848094 107.154161,16.9823719 107.139613,16.1869969" id="Fill-5"></path>
                    <path d="M97.3118468,19.0401094 L100.362379,19.2684844 C101.458798,19.3505156 104.85254,19.6051406 105.206331,19.6320469 L105.348508,19.6432031 L105.284363,18.3589219 L101.886653,18.1003594 L101.364895,7.12720313 L100.165976,7.02745313 L100.172589,7.16985938 C100.232105,8.45610938 100.627556,16.8167344 100.683766,18.0084844 L97.2523306,17.7479531 L97.3118468,19.0401094 Z" id="Fill-7"></path>
                    <path d="M81.3898274,17.8474406 L83.1759726,17.9813156 L83.2037468,17.8835344 C83.2037468,17.8835344 85.5453758,9.60297188 86.1068113,7.61715937 C86.889779,9.85628438 89.87815,18.4078781 89.87815,18.4078781 L89.9052629,18.4866281 L91.6881016,18.6198469 L91.1544403,6.33878437 L91.1504726,6.22919062 L89.9303919,6.12156562 L89.9363435,6.26528438 C89.9363435,6.26528438 90.2610371,13.8292219 90.374779,16.4555344 C89.4040048,13.7045344 86.6999887,5.99687812 86.6689081,5.90959688 L86.6417952,5.83281562 L85.4686661,5.72912812 L85.4402306,5.82953437 C85.4402306,5.82953437 83.2711984,13.3849406 82.5510532,15.8937844 C82.5252629,15.2270344 82.49815,14.5596281 82.4716984,13.8935344 L82.1351016,5.43644062 L80.8971661,5.32684687 L81.3898274,17.8474406 Z" id="Fill-9"></path>
                    <path d="M76.1188806,6.20412187 C77.0479935,6.59787187 77.6338968,7.45624687 77.8580742,8.75759062 C78.0253806,9.72884062 78.0425742,10.7545594 78.0591065,11.7454969 C78.0643968,12.1241531 78.071671,12.5021531 78.0855581,12.8742469 L78.2660903,17.6136844 L79.5152677,17.7068719 L79.2276065,10.2269344 L79.2276065,10.2249656 C79.1515581,8.26802812 78.7971065,5.90487187 76.7014774,5.00252812 C75.2651548,4.38499687 73.0187516,4.21371562 71.7775097,5.42384062 C71.5553161,5.64040312 71.3648645,5.90159062 71.2180581,6.21330937 C70.7187839,7.26659062 70.6877032,8.50887187 70.7280419,9.69405937 L70.8093806,11.9922469 C70.8517032,13.1853094 70.8940258,14.3764031 70.9350258,15.5694656 L70.9872677,17.0683406 L72.2503323,17.1621844 L71.9818484,9.59299687 C71.9408484,8.37893437 72.0168968,7.04084062 72.9010419,6.33799687 C73.7435258,5.66730937 75.1593484,5.79921562 76.1188806,6.20412187" id="Fill-11"></path>
                    <path d="M62.2369419,15.5839031 C62.9332806,16.2591844 63.8947968,16.7021531 64.9449258,16.8320906 C65.9256194,16.9541531 66.8692806,16.7999344 67.6033129,16.3976531 C68.4537323,15.9317156 68.9801194,15.0995906 69.0482323,14.1145594 C69.1150226,13.1518406 68.8214097,12.2166844 68.2441032,11.5479656 C67.7871516,11.0183719 67.1450387,10.6009969 66.2833774,10.2722156 C66.2245226,10.2499031 66.166329,10.2282469 66.1074742,10.2072469 L66.1081355,10.2039656 L65.9262806,10.1462156 C65.7490548,10.0871531 65.5678613,10.0307156 65.3866677,9.97427813 C64.5719581,9.71834063 63.7288129,9.45452813 63.0166032,8.98662188 C62.2038774,8.45177813 61.7634581,7.69643438 61.7760226,6.86168438 C61.7892484,6.00199688 62.3420871,5.35034063 63.2546677,5.11671563 C64.1117,4.89752813 65.1135548,4.98415312 65.9309097,5.34705938 C66.8243129,5.74474688 67.4968452,6.55324688 67.8255065,7.62424688 C67.8711355,7.77059063 67.908829,7.91890313 67.9418935,8.06852813 L67.9617323,8.15777813 L69.2545548,8.26802813 L69.2459581,8.12299688 C69.1632968,6.88662188 68.4345548,5.55771563 67.3890548,4.73740313 C66.3217323,3.89740313 64.8470548,3.50496563 63.4437968,3.68477812 C62.6046194,3.79240312 61.8732323,4.13430937 61.3501516,4.64421562 C61.0942323,4.89424687 60.8879097,5.18365312 60.7430871,5.50718438 C60.2180226,6.67924688 60.3939258,8.13480938 61.1815226,9.13165313 C61.9188613,10.0641844 63.0741355,10.5662156 63.9979581,10.9002469 C64.0065548,10.9035281 64.0151516,10.9061531 64.0244097,10.9094344 L64.0171355,10.9120594 L64.3570387,11.0249344 C64.5355871,11.0846531 64.7181032,11.1397781 64.9026032,11.1955594 C65.6822645,11.4350906 66.4883774,11.6818406 67.0789097,12.2239031 C67.7282968,12.8210906 67.9524742,13.7903719 67.6099258,14.5293094 C67.4300548,14.9191219 67.0577484,15.2216531 66.5644258,15.3791531 C65.817829,15.6140906 65.0672645,15.5149969 64.5686516,15.3903094 C63.8180871,15.2019656 63.1977968,14.8055906 62.7752323,14.2444969 C62.5074097,13.8894656 62.3606032,13.4891531 62.2171032,13.1026219 L62.1807323,13.0258406 L62.1000548,13.0199344 C61.7912323,12.9969656 61.0360387,12.9352781 61.0360387,12.9352781 L60.8667484,12.9208406 L60.9017968,13.0855594 C61.1193613,14.0837156 61.5802806,14.9466844 62.2369419,15.5839031" id="Fill-13"></path>
                    <path d="M51.6879726,15.6223594 L59.1301339,16.1795156 L59.1261661,16.0403906 C59.1261661,16.0403906 58.877521,7.77820312 58.8239565,6.05226562 L58.743279,3.37804687 L51.3355048,2.72639062 L51.3712145,4.05923437 L57.4967468,4.59079687 C57.5152629,5.23457812 57.61115,8.47054687 57.6342952,9.20882812 C55.9189081,9.06510937 52.0106823,8.74879687 52.0106823,8.74879687 L51.87115,8.73829687 L51.9081823,10.0927969 L57.6739726,10.5567656 C57.6924887,11.1637969 57.7777952,14.0539219 57.7996177,14.7482344 C55.966521,14.6097656 51.7898113,14.2908281 51.7898113,14.2908281 L51.650279,14.2796719 L51.6879726,15.6223594 Z" id="Fill-15"></path>
                    <path d="M40.8163597,14.8071656 L42.1435694,14.9062594 L42.1402629,14.7677906 C42.1402629,14.7677906 42.0503274,10.9569469 42.0080048,9.09254062 C42.0020532,8.83594687 41.9921339,8.58000937 41.9828758,8.32210312 C41.953779,7.56216562 41.924021,6.77663437 41.9967629,6.01800937 C42.0906661,5.02969687 42.3485694,4.36032188 42.8068435,3.91275937 L42.8127952,3.90750937 C43.2803274,3.45469687 43.9859242,3.25388437 44.9090855,3.30835312 C45.8977145,3.36675937 46.6694403,3.63319687 47.2031016,4.09716562 C48.3477952,5.09269687 48.3669726,6.77925937 48.3841661,8.26697812 C48.3868113,8.46516562 48.3887952,8.66072812 48.3934242,8.84907187 L48.55015,14.8865719 L48.5646984,15.3879469 L49.8753758,15.4863844 L49.6968274,8.76769687 C49.6888919,8.43957187 49.6789726,8.11210312 49.6716984,7.78397812 L49.6703758,7.74263437 C49.6240855,5.88019687 49.2914565,3.32082187 47.0238919,2.38304062 C45.9704565,1.94794687 44.6637468,1.79832187 43.5289726,1.98404062 C42.8372629,2.09757187 42.2440855,2.38960313 41.7911016,2.83125938 C41.5517145,3.06422812 41.3520048,3.33919687 41.1972629,3.65222812 C40.6854242,4.68844688 40.6219403,5.91760312 40.641779,7.11525937 L40.6391339,7.11591562 L40.641779,7.20910312 C40.6768274,8.56950937 40.7072468,9.92991562 40.7370048,11.2916344 L40.8163597,14.8071656 Z" id="Fill-17"></path>
                    <path d="M29.4317177,13.9541719 L32.990121,2.99282812 C33.2837339,3.84464062 33.5786694,4.69514062 33.8736048,5.54564062 L36.9803468,14.5192031 L38.9410726,14.6668594 L38.65275,1.61076562 L37.3235565,1.49329687 L37.5609597,12.4848281 C37.0960726,11.1513281 36.6318468,9.81651562 36.167621,8.48235937 L33.6203306,1.16845312 L32.3380887,1.05557812 L32.3063468,1.14876562 C32.3063468,1.14876562 31.3785565,3.96473437 30.9169758,5.37042187 L28.7843145,11.8495781 C28.7697661,11.0338594 28.7545565,10.2181406 28.7400081,9.40176562 L28.5832823,0.724828125 L27.2329274,0.606046875 L27.4637177,13.8058594 L29.4317177,13.9541719 Z" id="Fill-19"></path>
                    <path d="M0.169951613,7.02509062 L12.0864032,12.4772156 L14.5655806,4.87390312 L13.709871,4.47555937 L11.5309194,11.1496219 C10.6633065,10.7545594 9.79701613,10.3562156 8.93006452,9.95984062 L0.484725806,6.08862187 L0.169951613,7.02509062 Z" id="Fill-21"></path>
                </g>
                <polygon id="Fill-24" fill="#231F20" points="20 103.864755 31.7011796 109 32 108.13892 20.3086501 103"></polygon>
                <g id="Group-67" transform="translate(22.000000, 4.000000)" fill="#231F20">
                    <path d="M1.524402,97.627951 C2.187042,98.2636413 3.107082,98.5828026 3.925482,98.4630348 C4.574922,98.3676155 5.194002,98.0063381 5.770182,97.3805187 C6.032862,97.0962348 6.280362,96.7665445 6.529182,96.3690735 C6.537762,96.35328 7.430082,94.7956413 7.964022,94.098751 C8.770542,93.0465058 9.563862,92.6134994 10.390182,92.7747252 C11.699622,93.0320284 12.372162,94.2876155 12.457302,95.4188284 C12.549702,96.6520413 12.218382,97.9734348 11.571582,98.9559252 C10.902342,99.9673703 9.812022,100.457628 8.575842,100.299035 C8.370582,100.272712 8.003622,100.201641 8.002962,100.201641 L7.894062,100.181241 L7.585182,101.12359 L7.808262,101.181499 C9.220002,101.553306 10.518222,101.324299 11.462022,100.539886 C12.750342,99.4705316 13.170102,97.7582477 13.304082,96.8376155 C13.430802,95.9643639 13.492182,94.3073574 12.483702,93.0234735 C11.777502,92.1232413 10.433082,91.3625187 9.150702,91.8211897 C8.117802,92.1897058 7.397082,93.1267897 6.772722,94.0842735 C6.699462,94.1974606 6.626862,94.3119639 6.554262,94.4284413 C6.451962,94.5969058 6.350982,94.7693187 6.250662,94.9437058 C5.851362,95.629409 5.440182,96.3374865 4.852122,96.8593316 C4.653462,97.036351 4.448202,97.1738865 4.243602,97.2686477 C3.720222,97.5081832 3.125562,97.4785703 2.568522,97.1850735 C1.954062,96.8606477 1.544202,96.2420671 1.412862,95.4412026 C1.298022,94.7403639 1.375902,93.9316026 1.639242,93.099151 C1.930962,92.1791768 2.357982,91.4803123 2.913042,91.0295381 C3.462822,90.5794219 4.184862,90.3820026 4.946502,90.4734735 C5.052762,90.4859768 5.271222,90.5261187 5.271882,90.5267768 L5.380122,90.5471768 L5.414442,90.4432026 C5.414442,90.4432026 5.579442,89.9483381 5.648742,89.7377574 L5.687682,89.6186477 L5.568222,89.5798219 C4.355142,89.1790606 3.004122,89.5330994 2.057022,90.4609703 C1.927662,90.5886348 1.805562,90.7255123 1.693362,90.8729187 C0.774642,92.0752026 0.315282,93.792751 0.493482,95.3563123 C0.567402,96.0084542 0.806982,96.9330348 1.524402,97.627951" id="Fill-25"></path>
                    <path d="M2.60271,87.9632865 L3.45807,88.3732606 L3.50295,88.2383574 C3.50295,88.2383574 4.59063,84.9862026 4.83483,84.2524606 C5.63739,84.6420348 6.44127,85.0302929 7.24515,85.419209 L15.57567,89.4498542 L15.87069,88.5377768 L6.42477,83.9622542 C5.99577,83.7556219 5.56677,83.5483316 5.13909,83.3397252 C5.53971,82.1216477 6.47691,79.3360606 6.47691,79.3360606 L6.51189,79.2307703 L5.66379,78.8175058 L2.60271,87.9632865 Z" id="Fill-27"></path>
                    <path d="M17.047338,84.9133548 L14.390838,82.2198968 L16.246758,76.5467226 C16.818978,76.5934452 17.389878,76.6434581 17.961438,76.693471 L19.666878,76.8389032 L19.975098,75.8919484 L9.621678,75.0147484 C8.999958,74.9627613 8.378238,74.9107742 7.757178,74.8568129 L7.010058,74.7936387 L6.721638,75.6550452 L16.731858,85.8853161 L17.047338,84.9133548 Z M12.262998,80.0555226 L11.601678,79.3856129 L8.090478,75.8195613 L8.739918,75.877471 C10.400478,76.0261935 14.453538,76.387471 15.302298,76.4624903 L13.660218,81.4749677 C13.196898,80.9998452 12.730278,80.5273548 12.262998,80.0555226 L12.262998,80.0555226 Z" id="Fill-29"></path>
                    <path d="M13.036716,70.9918026 C14.482116,70.8075445 15.258936,69.5058929 15.944676,68.3588865 C16.017276,68.2371445 16.088556,68.1180348 16.159176,68.0022155 C16.734696,67.0624994 17.604576,65.6423961 18.885636,65.6272606 C20.173956,65.610151 21.064956,66.8440219 21.249756,68.0147187 C21.462936,69.3670413 21.084096,70.8878284 20.284176,71.8861123 C19.863756,72.4112477 19.269096,72.7633123 18.608436,72.8811058 C18.039516,72.9824477 17.502276,72.8797897 16.982196,72.7817381 L16.873296,72.76068 L16.615236,73.5483832 L16.531416,73.7069768 L16.703016,73.708951 L16.741296,73.71948 C17.803896,74.0386413 18.849336,74.0004735 19.684896,73.6128735 C20.616156,73.1811832 21.367896,72.2572606 21.802176,71.0089123 C22.523556,68.9379832 22.323576,66.1695058 20.180556,64.9869639 C19.301436,64.5032865 18.298896,64.4960477 17.498976,64.9691961 C16.487856,65.5667187 15.839736,66.6564735 15.267516,67.61988 L15.093936,67.9107445 C14.602896,68.7267445 13.931676,69.8428219 12.816276,69.9599574 C11.737836,70.0731445 10.891716,69.1788348 10.642896,68.2799187 C10.337976,67.1770026 10.575576,65.78388 11.264616,64.6441123 C11.844096,63.6839961 12.782616,63.1851832 13.841256,63.2759961 C13.983156,63.2884994 14.290716,63.3496994 14.293356,63.3503574 L14.402916,63.3720735 L14.700576,62.4744735 L14.585076,62.4323574 C13.226796,61.9414413 11.984676,62.43828 11.127336,63.2779703 C10.813176,63.5859445 10.550496,63.9399832 10.352496,64.3098155 C9.556536,65.794409 9.210036,68.1154026 10.332036,69.7039703 C10.964316,70.6002542 12.051336,71.1174929 13.036716,70.9918026" id="Fill-31"></path>
                    <path d="M23.11947,66.2022116 L23.42835,65.2493342 L23.37555,65.1953729 C23.37555,65.1953729 21.89979,63.67656 21.19029,62.9447923 L20.82267,62.565089 C20.97315,62.1031277 21.81399,59.5307535 22.25619,58.1836955 L22.62117,57.0689342 C23.24553,57.1373729 23.87121,57.2031794 24.49623,57.2683277 L25.96737,57.423631 L26.26833,56.4970761 L13.57851,55.1625213 L13.29603,56.0048439 L13.34883,56.0594632 C14.07813,56.8142632 14.80611,57.5703794 15.53343,58.3271535 L23.11947,66.2022116 Z M18.73509,60.4105858 L15.11169,56.6714632 L14.64969,56.1950245 L21.69189,56.9682503 C21.40809,57.8375535 21.12297,58.7061987 20.83851,59.5748439 L20.10195,61.8208181 C19.64523,61.3516181 19.19049,60.8811019 18.73509,60.4105858 L18.73509,60.4105858 Z" id="Fill-33"></path>
                    <path d="M15.384732,49.763431 L15.480432,49.8127858 C15.480432,49.8127858 24.261732,54.354089 25.612092,55.0516374 L26.575692,55.5497923 L26.861472,54.6706181 L26.766432,54.6219213 C26.766432,54.6219213 22.246092,52.2818439 21.496992,51.8929277 C21.685092,51.3197535 22.626912,48.4565148 23.089572,47.0541794 L23.373372,46.1921148 L22.570152,45.7709535 L20.688492,51.4750568 C19.547352,50.8874052 17.028132,49.580489 16.508052,49.3106826 L18.542172,43.215689 L17.719812,42.7846568 L15.384732,49.763431 Z" id="Fill-35"></path>
                    <path d="M18.119508,41.5890194 L29.214768,47.4168387 L29.497908,46.5449032 L20.578008,41.8548774 C20.279028,41.6969419 19.980708,41.5396645 19.682388,41.3837032 L31.654788,39.8984516 L31.980168,38.8949032 L20.983248,33.0289161 L20.693508,33.8955871 L30.450948,39.0936387 L18.459408,40.5729677 L18.119508,41.5890194 Z" id="Fill-37"></path>
                    <path d="M32.181864,25.0795626 L33.670824,19.4063884 C34.763784,20.2881948 35.770944,20.5408916 36.663924,20.1546077 C37.304784,19.8782206 37.883604,19.3353174 38.212284,18.6996271 C38.551524,18.0474852 38.568684,17.2650465 38.261784,16.4372013 C37.876344,15.3928529 37.180704,14.5011755 36.441504,13.6048916 L33.880044,10.5323884 L27.685944,16.3055884 C27.670104,16.3200658 26.160024,17.7276658 26.157384,17.7302981 L26.074224,17.81124 L26.994924,18.9056013 L30.372144,15.75084 C30.632184,16.0627626 30.892884,16.3740271 31.154244,16.6859497 L31.923804,17.6039497 C32.109924,17.8250594 32.461044,18.2159497 32.586444,18.3541432 L31.133124,23.8318723 L32.181864,25.0795626 Z M32.864964,16.9577303 L32.864964,16.9570723 C32.542224,16.5721045 32.219484,16.1871368 31.896744,15.801511 L31.204404,14.9730077 L33.963864,12.3940529 L35.755104,14.5400013 C36.424344,15.3342852 37.256604,16.3226981 37.167504,17.3486206 C37.125264,17.8303239 36.821664,18.3238723 36.374844,18.6338206 C35.982804,18.9062594 35.548524,18.9970723 35.151864,18.8898077 C34.590864,18.7371368 34.111704,18.3080787 33.678084,17.8678335 C33.431244,17.6164529 33.173184,17.3269045 32.864964,16.9577303 L32.864964,16.9577303 Z" id="Fill-39"></path>
                    <path d="M38.645244,32.7726658 L39.474864,31.9645626 L35.025804,26.6658271 L35.586804,26.1281884 C36.391344,25.3575948 37.432824,24.359969 37.763484,24.04344 C38.500044,24.9212981 39.235284,25.8004723 39.970524,26.6789884 L41.920824,29.0098529 L42.754404,28.1991174 L42.679164,28.1102787 C42.679164,28.1102787 39.199644,23.9506529 38.604324,23.2386271 C39.105264,22.7602142 39.970524,21.9303948 40.551984,21.3736723 C40.764504,21.1690142 40.939404,21.0018658 41.043684,20.90184 C41.827764,21.8376077 42.608544,22.7746916 43.389324,23.7117755 L45.436644,26.1676723 L46.253724,25.3727303 L43.896204,22.5463432 C43.271844,21.7968077 42.647484,21.0492465 42.023784,20.299711 L40.964484,19.0289884 L34.360524,25.339169 C34.026564,25.6583303 33.692604,25.9781497 33.357324,26.2953368 L33.271524,26.3769368 L33.348084,26.4677497 C33.769164,26.9672206 34.188924,27.4666916 34.609344,27.9674787 L38.645244,32.7726658 Z" id="Fill-41"></path>
                    <path d="M43.053516,38.0217174 L45.900096,35.2111239 L53.628036,34.2200787 L52.593816,32.978311 L46.368696,33.8370852 C46.609596,32.7677303 46.846536,31.6977174 47.082816,30.6270465 L47.829276,27.2649948 L46.796376,26.0252013 L45.003816,34.1246594 L42.144696,36.9392013 L43.053516,38.0217174 Z" id="Fill-43"></path>
                    <path d="M52.754328,49.5654852 L53.443368,41.0303884 C54.651168,41.18964 55.857648,41.3534981 57.064128,41.5173561 L60.050628,41.9194335 L58.873188,40.5092013 L51.385488,39.4938077 C51.921408,38.9581432 52.456668,38.4211626 52.990608,37.88484 L55.003608,35.8678723 L54.111948,34.7965432 L46.630188,42.2761045 L47.535708,43.3546723 L50.271408,40.6118594 L52.189368,40.8652142 L51.613848,48.2078981 L52.754328,49.5654852 Z" id="Fill-45"></path>
                    <path d="M55.219032,52.7510439 C56.018292,53.5426955 57.302652,54.1869406 58.507152,53.6216632 C58.806132,53.4821535 59.087952,53.2794697 59.350632,53.0057148 C60.255492,52.0725794 61.157052,51.1368116 62.058612,50.2003858 L64.684092,47.4773148 L63.798372,46.4151987 L59.319612,51.0466568 C59.212692,51.1572116 59.107092,51.2717148 59.000172,51.3875342 C58.742772,51.6685277 58.475472,51.9593923 58.181772,52.1897148 C57.628032,52.6260116 56.956152,52.6549665 56.335752,52.2719729 C55.756272,51.9139858 55.271832,51.3105406 55.039512,50.6564245 C54.779472,49.9299213 54.915432,49.1573535 55.422312,48.4821794 C55.488312,48.3946568 55.659252,48.1992116 55.659252,48.1985535 L55.729212,48.1182697 L54.890352,47.1180116 L54.793332,47.2186955 C53.615892,48.4282181 53.441652,50.1181277 54.338592,51.6283858 C54.582132,52.03836 54.877812,52.415431 55.219032,52.7510439" id="Fill-47"></path>
                    <path d="M64.936608,64.0640942 L66.546348,59.7083652 L69.107148,52.78092 L68.189748,51.6799781 L57.855468,55.6356039 L58.814448,56.7766877 L58.899588,56.7431265 C59.307468,56.5825587 59.715348,56.4233071 60.122568,56.2633974 L61.352148,55.7830103 L64.986108,60.1163652 L63.953208,62.8933974 L64.936608,64.0640942 Z M63.769068,56.8938232 L62.469528,55.3421071 C63.455568,54.9518748 64.440948,54.5642748 65.426988,54.1773329 L67.507308,53.3587006 C67.128468,54.3675135 65.782728,57.9605458 65.437548,58.8851265 C64.879188,58.2231135 64.324128,57.5578103 63.769068,56.8938232 L63.769068,56.8938232 Z" id="Fill-49"></path>
                    <path d="M67.758372,67.4206181 L77.744172,63.1372761 L76.812252,62.0198826 L76.725792,62.0580503 C76.725792,62.0580503 74.575512,63.003031 73.502352,63.4755213 L69.206412,65.3654826 C68.954292,65.4760374 68.703492,65.5859342 68.452032,65.6971471 C68.720652,65.0088116 68.990592,64.3217923 69.261192,63.6341148 L72.109752,56.3796116 L71.128332,55.2043084 L66.817872,66.3019084 L67.758372,67.4206181 Z" id="Fill-51"></path>
                    <path d="M72.107046,72.5970852 L77.198286,67.0621045 L76.315206,66.0078852 L71.922906,70.7722723 C71.712366,71.0006206 71.502486,71.228969 71.291286,71.4566594 L71.215386,71.5376013 L72.107046,72.5970852 Z M76.863666,65.6808271 L77.647746,66.6238335 L79.873926,65.7834852 L79.093146,64.8424529 L76.863666,65.6808271 Z" id="Fill-53"></path>
                    <path d="M80.045064,82.0439303 L80.542704,74.3623432 C80.561184,74.0708206 80.580324,73.7766658 80.600124,73.4844852 C81.724764,73.6035948 82.850064,73.7187561 83.976024,73.8339174 L86.914344,74.1366271 L85.777164,72.7718013 L78.616164,72.02424 C79.563924,70.9812077 80.511024,69.9381755 81.460764,68.8964594 L82.025724,68.2732723 L81.153864,67.2269497 L74.099784,74.9677626 L74.984184,76.0213239 L77.567424,73.1778271 C78.035364,73.2265239 79.041204,73.3272077 79.387704,73.3620852 L79.019424,79.2464981 L78.928344,80.7139819 L80.045064,82.0439303 Z" id="Fill-55"></path>
                    <path d="M83.996682,86.9755316 C84.743142,87.7217768 85.417662,88.1192477 86.121222,88.2271703 C86.782542,88.3304865 87.491382,88.1310929 88.169862,87.6520219 C88.553982,87.3822155 88.928862,87.0340994 89.348622,86.5576606 L89.350602,86.5563445 L89.373702,86.53068 C90.061422,85.7383703 90.752442,84.950009 91.444122,84.1603316 C91.878402,83.664809 92.313342,83.1692865 92.747622,82.6724477 L93.403002,81.9215961 L92.809002,81.2095703 L88.676742,85.9305252 C88.268202,86.4003832 87.635922,87.0459445 86.861082,87.2361252 C86.125182,87.417751 85.457262,87.0801639 85.026282,86.764951 C84.291702,86.2273123 83.622462,85.4442155 83.140662,84.5584606 C82.734102,83.8115574 82.580982,83.0508348 82.699122,82.3578929 C82.857522,81.4267316 83.458122,80.6508735 84.024402,80.0138671 L88.045782,75.4969123 L87.449142,74.7822542 L87.352782,74.8914929 C87.352782,74.8914929 85.048722,77.4743961 83.933322,78.7260348 L83.347242,79.3834413 L83.347242,79.3840994 L83.242962,79.5005768 C82.360542,80.5153123 81.887982,81.47148 81.799542,82.4243574 C81.709782,83.3798671 82.024602,84.3978929 82.733442,85.4481639 C83.105022,86.00028 83.530722,86.5142284 83.996682,86.9755316" id="Fill-57"></path>
                    <path d="M92.862264,97.3137252 L94.113624,91.3319187 C95.134644,92.1860865 96.057984,92.3933768 96.858564,91.9511574 C98.166684,91.2272865 98.703264,89.6426671 98.135004,88.1824219 C97.758144,87.2098026 97.110684,86.3859058 96.423624,85.5567445 L94.082604,82.7474671 L88.131384,89.5762026 C87.854844,89.8933897 87.578304,90.2118929 87.299784,90.5271058 L87.229164,90.6087058 L87.829764,91.3233639 L87.926124,91.212809 C87.926124,91.212809 89.671824,89.2063703 90.536424,88.214009 L90.929784,87.7606026 C91.216884,88.1021381 91.502004,88.4436735 91.788444,88.785209 L92.714424,89.8927316 C92.930904,90.1506929 93.155304,90.4178671 93.394884,90.6672735 C93.150024,91.8070413 92.909124,92.9474671 92.670204,94.088551 L92.164644,96.4852219 L92.862264,97.3137252 Z M92.332944,88.2423058 C92.139564,88.0047445 91.946844,87.7684994 91.751484,87.5355445 L91.445904,87.1696606 L94.163124,84.0464865 C94.433724,84.3728865 94.705644,84.6973123 94.977564,85.0230542 L95.514144,85.663351 C95.894304,86.1141252 96.286344,86.5806929 96.633504,87.0670026 C97.113324,87.7415187 97.595124,88.5436994 97.516584,89.3847058 C97.468404,89.8900994 97.196484,90.4099703 96.828204,90.7712477 C96.628224,90.9666929 96.399204,91.1173897 96.162924,91.1937252 C95.450784,91.4233897 94.740624,90.8646929 94.268064,90.4244477 C94.181604,90.3435058 94.097124,90.2599316 94.013964,90.1743832 C93.419304,89.5696219 92.867544,88.8951058 92.332944,88.2423058 L92.332944,88.2423058 Z" id="Fill-59"></path>
                    <path d="M16.322856,13.3654877 L22.513656,8.92092 L22.903716,7.77193935 L20.282856,9.65861032 C20.614176,8.68862323 20.946156,7.71863613 21.277476,6.74799097 L21.805476,5.20417161 C21.940776,4.80867484 22.248996,3.90778452 22.314996,3.71628774 L24.941136,1.78421032 L25.331856,0.633255484 L20.230716,4.39343613 L19.127856,5.20680387 L18.736476,6.34722968 L21.522336,4.29867484 L19.494816,10.2252039 L16.715556,12.2263781 L16.322856,13.3654877 Z" id="Fill-61"></path>
                    <path d="M11.799546,26.5274361 L19.470066,17.8390103 L19.780266,16.9565458 L15.110766,16.8966619 L14.794626,17.8113716 L15.950286,17.8140039 L14.214486,22.8764942 L12.330846,25.0099394 L11.799546,26.5274361 Z M16.548906,17.8179523 C16.892106,17.8199265 18.121026,17.8271652 18.685986,17.8297974 L15.195906,21.7683135 C15.645366,20.456791 16.392486,18.274649 16.548906,17.8179523 L16.548906,17.8179523 Z" id="Fill-63"></path>
                    <path d="M11.137632,34.6607187 L11.913132,34.1500606 L11.926992,34.1092606 C12.442452,32.5983445 13.660812,29.0362413 13.802712,28.6203445 L15.617712,27.3983187 L13.599432,33.3301123 L14.387472,32.8108994 L16.798452,25.7235445 L10.648572,29.8732994 L10.260492,31.0045123 L13.024572,29.1441639 L11.137632,34.6607187 Z" id="Fill-65"></path>
                </g>
                <polygon id="Fill-68" fill="#231F20" points="26 53 32.0188761 49.0971704 32.3996529 47.9329913 27.5914515 51.0617226 34.542417 41.3763993 35 40 28.9967455 44.0315091 28.9602951 44.0564366 28.5788674 45.2098362 33.3688436 42.002954 26.4549794 51.641791"></polygon>
                <g id="Group-79" transform="translate(3.000000, 56.000000)" fill="#231F20">
                    <path d="M18.076305,10.5784184 L25.626055,2.21994898 L25.929605,1.34244898 L21.504405,0.372755102 L21.193055,1.29933673 L22.288955,1.52617347 L20.456605,6.99811224 L18.600855,9.05158163 L18.076305,10.5784184 Z M22.849905,1.64357143 L24.917555,2.07933673 L21.410805,5.94484694 C21.798855,4.78545918 22.665305,2.19607143 22.849905,1.64357143 L22.849905,1.64357143 Z" id="Fill-69"></path>
                    <path d="M14.24995,22.7257908 C14.24995,22.7257908 16.54705,19.9035969 17.4577,18.7833418 C17.3498,19.2502806 17.2796,19.8094133 17.5552,20.0966071 C17.6748,20.2219643 17.823,20.2809949 17.99525,20.2743622 C18.5484,20.251148 19.18995,19.5129337 19.37325,19.2867602 C20.0629,18.4371173 20.50685,17.3732398 20.86825,16.4420153 C21.1757,15.6514031 21.4461,14.8342602 21.7087,14.0423214 L22.8072,10.7366071 L16.8857,14.2200765 L16.8454,14.2439541 L16.4658,15.3715051 L18.98325,13.8957398 C18.7395,14.6233418 18.15255,16.3770153 18.0388,16.7239031 C17.97315,16.9248724 17.9088,17.1265051 17.84705,17.3281378 C17.09695,18.2520663 15.6364,20.0448724 14.8746,20.97875 L14.4027,21.5591071 L13.8177,23.2564031 L14.24995,22.7257908 Z M21.68465,12.3118622 L20.9144,14.6246684 C20.6206,15.5114541 20.3255,16.3756888 19.9394,17.2027806 C19.66315,17.7944133 19.31085,18.4583418 18.78435,18.9067092 C18.3222,19.3000255 18.1701,19.2602296 18.1441,19.2476276 C18.10185,19.2297194 18.04595,19.1143112 18.14475,18.5372704 C18.27085,17.8003827 18.5159,17.0694643 18.7525,16.36375 L19.72165,13.4626276 L21.68465,12.3118622 Z" id="Fill-71"></path>
                    <path d="M9.404785,36.4017245 L15.260635,33.3321327 L15.305485,33.3089184 L15.681185,32.1767245 L13.172185,33.4966224 C15.042885,27.8953469 15.411435,26.7923367 15.484235,26.5721327 L18.002335,25.1925408 L18.380635,24.0563673 L12.455235,27.3163163 L12.076935,28.4398878 L14.745835,26.9773878 L12.437685,33.8833061 L9.779185,35.2827959 L9.404785,36.4017245 Z" id="Fill-73"></path>
                    <path d="M5.558085,50.0349439 L5.560035,50.0369337 C6.011785,50.4607602 6.698185,50.1317806 6.991335,49.9918316 L10.221835,48.4457602 L10.280985,48.4258622 L10.660585,47.2850459 L10.199735,47.5079031 C9.846135,47.6783622 9.493835,47.8547908 9.140885,48.0305561 C8.390785,48.4046378 7.614035,48.7913214 6.835985,49.1216276 C6.622135,49.2131582 6.399185,49.2894337 6.213285,49.2410153 C5.838885,48.9697398 6.099535,48.0292296 6.225635,47.5735663 L6.263335,47.4356071 C6.591585,46.1886684 7.016685,45.0465255 7.527585,44.0410153 C7.979335,43.1522398 8.470085,42.4936173 9.026485,42.032648 C9.439885,41.6897398 9.937785,41.4463214 10.419435,41.2108622 C10.539685,41.1524949 10.659935,41.0947908 10.777585,41.0350969 L13.133185,39.8471888 L13.507585,38.7163214 L10.395385,40.2929031 L9.840935,40.5734643 C9.374885,40.81025 8.943935,41.1259643 8.544185,41.5272398 C8.007285,42.065148 7.526935,42.7556071 7.092735,43.6098929 C6.284785,45.2017296 5.701735,46.865199 5.406635,48.4218827 L5.395585,48.4795867 C5.311735,48.9193316 5.170685,49.6555561 5.558085,50.0349439 L5.558085,50.0349439 Z M10.729485,43.2192296 L10.440885,44.0847908 L11.528985,44.6770867 L11.820185,43.8009133 L10.729485,43.2192296 Z" id="Fill-75"></path>
                    <path d="M0.72943,64.5989235 L0.73463,64.6048929 C0.87958,64.7256071 1.04273,64.7766786 1.22018,64.7547908 C1.71678,64.6957602 2.18933,64.0583622 2.34468,63.8487704 C2.89588,63.10525 3.30603,62.2463214 3.67913,61.4318316 C3.89493,60.96025 4.10943,60.4661173 4.33628,59.9182602 L5.07208,58.1446888 C5.46533,57.1909133 5.92423,56.1064745 6.63338,55.4073929 C6.97463,55.0744337 7.04288,55.1062704 7.05003,55.1109133 C7.21448,55.230301 7.11373,55.8179541 7.07603,56.0388214 L7.06693,56.0932092 C6.97203,56.6563214 6.81018,57.2088214 6.67953,57.6266786 C6.24013,59.032801 5.74158,60.1649949 5.15333,61.0895867 C4.86083,61.5505561 4.52478,61.9544847 4.12698,62.3239235 L4.10358,62.3464745 L3.66028,63.6736684 L3.98788,63.4123418 C4.73798,62.8154031 5.36263,62.0214745 5.95413,60.9158112 C6.53913,59.8214235 7.03313,58.5824439 7.42118,57.2340255 C7.59863,56.617852 7.71303,56.1144337 7.78518,55.6236173 C7.83458,55.2820357 7.89633,54.8575459 7.77673,54.502699 C7.67533,54.2022398 7.50113,54.115352 7.37178,54.0954541 C6.79978,54.0079031 6.03538,55.0684643 6.00288,55.1129031 C5.40228,55.9532602 4.96418,56.917648 4.60018,57.7573418 C4.54883,57.8760663 4.49748,57.9954541 4.44613,58.1181582 L4.28428,58.512801 C4.04833,59.0871888 3.81238,59.6622398 3.56928,60.2319847 L3.51273,60.3639745 C3.09413,61.3469337 2.66058,62.3617296 2.01318,63.1855051 L1.97873,63.2306071 C1.82338,63.4295867 1.50033,63.8454541 1.28128,63.7466276 C1.21303,63.7154541 1.11878,63.5370357 1.25788,62.6873929 C1.35733,62.0758622 1.53153,61.4769337 1.67193,61.0232602 C2.13343,59.5362194 2.66513,58.3423418 3.29758,57.3719847 C3.69213,56.7684133 4.09643,56.3034643 4.52933,55.9506071 L4.55793,55.9280561 L4.56963,55.8915765 C4.58003,55.8604031 4.85303,55.0445867 4.85303,55.0445867 L4.96613,54.7030051 L4.66843,54.8960153 C4.39673,55.0737704 4.14583,55.2820357 3.91443,55.5148418 C3.12728,56.302801 2.56178,57.3587194 2.10093,58.3363724 C1.28973,60.0522398 0.78793,61.5837194 0.56433,63.0196888 L0.55133,63.1065765 C0.48243,63.5357092 0.36673,64.2540255 0.72943,64.5989235" id="Fill-77"></path>
                </g>
                <polygon id="Fill-80" fill="#231F20" points="136 134.351075 137.336591 134.460409 143.814123 132.562402 143.048084 134.928422 143.924788 135 152 132.681961 150.661421 132.566335 144.114309 134.449397 144.89824 132.076298 144.001657 132"></polygon>
                <polygon id="Fill-81" fill="#231F20" points="127 133.912303 128.371585 134 131.965164 133.160883 137.052596 133.490852 138.271858 133.214511 133.152322 132.880757 135.314208 132.372871 140.765027 132.733123 142 132.452997 135.144126 132"></polygon>
                <path d="M116,132.458276 L117.766849,132.559745 L120.666497,132.205434 L125.253405,132.472692 L124.381919,132.94178 L125.394011,133 L129,131.057666 L128.007142,131 L116,132.458276 Z M122.433345,131.992515 L127.26167,131.403105 L125.783327,132.188245 L122.433345,131.992515 Z" id="Fill-82" fill="#231F20"></path>
                <path d="M84,131.184114 L85.7813274,131.328511 L88.6918353,130.795897 L93.7580512,131.211731 L93.0428365,131.917938 L94.0499071,132 L97,129.079695 L96.0190958,129 L84,131.184114 Z M90.4268683,130.48343 L95.444777,129.567333 L94.1834228,130.792741 L90.4268683,130.48343 Z" id="Fill-83" fill="#231F20"></path>
                <polygon id="Fill-84" fill="#231F20" points="62.2705496 129.440619 68.0444627 127.494224 69.0413454 129.93415 69.9410993 130 77 127.684843 75.7176374 127.588494 69.8465956 129.516174 68.8648072 127.069316 67.9420837 127 61 129.347043"></polygon>
                <polygon id="Fill-85" fill="#231F20" points="33.2415583 127.318067 38.5269379 125.489706 37.5305777 127.606092 38.3673646 127.659034 46.9953512 126.294538 42.1536632 127.915546 43.3997622 128 50 125.804832 48.3063173 125.691387 38.6320228 127.231723 39.6990883 125.088235 38.4361238 125 32 127.234244"></polygon>
                <path d="M5,125.175035 L6.69793118,125.301255 L9.39982849,124.767782 L15.2937078,125.213389 L15.0557402,125.926778 L16.0288348,126 L17,123.066946 L16.0899346,123 L5,125.175035 Z M10.9311823,124.470014 L15.893129,123.491632 L15.4300568,124.811018 L10.9311823,124.470014 Z" id="Fill-86" fill="#231F20"></path>
                <path d="M26.5075,101.4965 C26.5045,101.4975 26.5005,101.4995 26.4975,101.5005 C26.4955,101.5015 26.4935,101.5025 26.4925,101.5035 L26.5075,101.4965 Z" id="Fill-87" fill="#231F20"></path>
                <polygon id="Fill-89" fill="#231F20" points="26.437 101.403 26.375 101.282 26.514 101.574 26.566 101.719 26.595 101.708 26.595 101.707 26.625 101.686 26.515 101.536 26.381 101.281"></polygon>
                <g id="Group-100" transform="translate(20.000000, 124.000000)" fill="#231F20">
                    <path d="M2.3684106,2.94357857 L2.37172185,2.94357857 C2.37172185,2.94357857 3.74324503,3.02457857 3.85781457,3.03036429 C5.26377483,3.10365 6.41675497,3.10236429 7.48761589,3.02522143 C7.6286755,3.01493571 7.9710596,2.98343571 7.97370861,2.98343571 C9.84655629,2.76807857 9.85317881,2.48457857 9.85450331,2.37915 C9.85715232,2.20493571 9.72006623,1.99729286 8.04721854,1.75300714 L7.41543046,1.66686429 C7.09556291,1.62315 6.77503311,1.58522143 6.45450331,1.54665 C6.07701987,1.50165 5.69953642,1.45665 5.32337748,1.40329286 C4.98761589,1.35507857 4.59754967,1.29529286 4.23596026,1.17572143 C4.1902649,1.15836429 4.16046358,1.14229286 4.14258278,1.13200714 C4.15384106,1.12493571 4.16642384,1.11786429 4.17900662,1.11272143 C4.83860927,0.817007143 5.70748344,0.828578571 6.47370861,0.838221429 L6.77569536,0.840792857 C7.79423841,0.845292857 8.72470199,0.89415 9.61874172,0.98865 C9.78165563,1.00536429 10.1134437,1.04586429 10.1134437,1.04586429 C11.1624503,1.18215 11.2313245,1.37372143 11.2339735,1.38079286 C11.237947,1.39493571 11.216755,1.41550714 11.2121192,1.42000714 L10.9511921,1.61607857 L12.0359603,1.69065 L12.0710596,1.66943571 C12.2518543,1.55693571 12.3286755,1.43222143 12.2975497,1.29915 C12.2313245,1.01757857 11.5783444,0.797078571 10.3564901,0.646007143 L10.3571523,0.643435714 L10.219404,0.627364286 C10.211457,0.626721429 10.0664238,0.616435714 10.0664238,0.616435714 C9.67900662,0.581721429 9.2902649,0.561792857 8.91609272,0.541221429 L8.64986755,0.526435714 C7.33397351,0.454435714 6.24788079,0.451221429 5.23264901,0.516792857 C4.87370861,0.539292857 4.40086093,0.577221429 3.93463576,0.673007143 C3.84324503,0.690364286 3.78695364,0.703221429 3.75450331,0.70965 C3.11675497,0.857507143 3.04059603,1.02465 3.03860927,1.13586429 C3.03463576,1.34222143 3.32337748,1.44957857 3.60218543,1.52415 L3.61741722,1.52929286 C4.44192053,1.77100714 5.32602649,1.85715 6.18099338,1.94007857 C6.65119205,1.98700714 7.13662252,2.03457857 7.59887417,2.10593571 L7.79821192,2.13936429 C8.46774834,2.24929286 8.67966887,2.33672143 8.74655629,2.38043571 C8.68629139,2.42093571 8.49821192,2.50965 7.92139073,2.62279286 C7.92139073,2.62279286 7.68364238,2.65750714 7.56311258,2.66972143 C7.08827815,2.71922143 6.60549669,2.71793571 6.13794702,2.71729286 L5.87304636,2.71729286 C4.79423841,2.71986429 3.7518543,2.66972143 2.77437086,2.57136429 L2.46774834,2.53536429 C1.5518543,2.43829286 1.09887417,2.24929286 1.0684106,2.14643571 C1.06509934,2.13357857 1.07900662,2.09822143 1.15384106,2.04229286 L1.41543046,1.84557857 L0.32602649,1.77165 L0.292913907,1.79029286 C0.278344371,1.79865 0.217417219,1.83336429 0.156490066,1.89122143 C0.0743708609,1.96965 -0.00708609272,2.08922143 0.0266887417,2.23515 C0.0776821192,2.46015 0.376357616,2.77643571 2.3684106,2.94357857" id="Fill-90"></path>
                    <path d="M31.5912583,4.89034286 L31.7369536,4.90127143 C32.6634437,4.97005714 33.5594702,5.00027143 34.3992053,4.99255714 C36.0806623,4.97648571 37.6674172,4.72448571 39.2508609,4.22177143 L43.1925828,2.97077143 L41.9071523,2.88141429 L41.8588079,2.8872 C41.4051656,3.0312 40.9515232,3.18484286 40.4965563,3.33848571 C39.4449007,3.69398571 38.3574834,4.06105714 37.2700662,4.31241429 C35.982649,4.61005714 34.5654305,4.69427143 32.6727152,4.58627143 L32.3356291,4.56955714 C31.9217219,4.5477 31.493245,4.52584286 31.0766887,4.47505714 L30.9098013,4.45641429 C30.0150993,4.33684286 29.9217219,4.19091429 29.9184106,4.19284286 C29.9210596,4.18834286 29.9535099,4.11377143 30.2455629,3.99355714 C30.2574834,3.99034286 31.4290066,3.57698571 32.0574834,3.38862857 C32.5998675,3.22598571 33.1442384,3.04277143 33.6707285,2.86598571 C33.9362914,2.77662857 34.2011921,2.68727143 34.4674172,2.59984286 L35.0634437,2.4057 L33.7813245,2.31698571 L31.2700662,3.1302 C31.1190728,3.1797 30.9660927,3.22855714 30.8131126,3.27677143 C30.382649,3.41241429 29.9369536,3.55384286 29.5164238,3.72612857 C29.2892715,3.81227143 29.1250331,3.90291429 29.0250331,3.99741429 C28.9349669,4.0842 28.8965563,4.17484286 28.9124503,4.26805714 C28.9508609,4.50848571 29.3005298,4.77012857 31.5912583,4.89034286" id="Fill-92"></path>
                    <path d="M52.9608609,6.28219286 L56.1588742,6.49690714 L56.1595364,6.49690714 C58.1509272,6.61712143 60.2787417,6.69876429 62.3562252,6.48147857 C63.6529139,6.30662143 66.6674834,5.83283571 66.6542819,5.20926429 C66.6482781,4.92962143 66.2641722,4.63455 63.5111921,4.37162143 C63.4615232,4.36776429 62.9754305,4.33690714 62.3833775,4.29705 C61.5191391,4.24047857 60.4284106,4.16912143 60.1515894,4.15047857 L52.9608609,6.28219286 Z M62.8416556,6.02633571 C62.2681457,6.11183571 61.7906623,6.16776429 61.3383444,6.20055 C60.1012583,6.29055 58.7668212,6.28412143 57.0118543,6.18255 C56.4356954,6.14847857 55.8601987,6.10990714 55.2840397,6.07133571 L60.4396689,4.53940714 C61.3515894,4.60369286 63.3356954,4.74705 63.4429801,4.75476429 C65.1423179,4.89169286 65.5694702,5.12119286 65.59,5.19640714 C65.5860265,5.22726429 65.4674834,5.52426429 62.8416556,6.02633571 L62.8416556,6.02633571 Z" id="Fill-94"></path>
                    <path d="M75.8822517,7.81900714 L77.1901987,7.90707857 L80.3087417,7.05915 L80.5623841,7.07715 C81.5802649,7.14593571 82.5981457,7.21600714 83.6153642,7.27900714 L82.9875497,8.29536429 L83.9153642,8.35772143 L84.5524503,7.32079286 L84.714702,7.32465 C85.4233113,7.34650714 86.1577483,7.36707857 86.8948344,7.32079286 L86.9623841,7.31693571 C87.0749669,7.30986429 87.2140397,7.30215 87.4835762,7.26486429 C87.9537748,7.19800714 89.4855629,6.94922143 89.4769898,6.55515 C89.4723179,6.36100714 89.2438411,6.21893571 88.1166887,6.10643571 C88.1166887,6.10643571 87.3206623,6.04729286 87.014702,6.02286429 C86.3802649,5.97272143 85.7445033,5.92900714 85.1087417,5.88529286 L83.3868874,5.76636429 L75.8822517,7.81900714 Z M87.7034437,6.80779286 C86.3319205,7.13307857 84.8339073,7.01929286 83.3842384,6.90872143 C83.1597351,6.89265 82.9372185,6.87529286 82.7193377,6.86115 L81.3709934,6.76793571 L83.6292715,6.14886429 C84.5802649,6.21507857 87.7484768,6.45165 87.9378808,6.47672143 C88.2193377,6.51465 88.3570861,6.55386429 88.4219868,6.58022143 C88.3451656,6.62393571 88.1570861,6.70172143 87.7034437,6.80779286 L87.7034437,6.80779286 Z" id="Fill-96"></path>
                    <path d="M89.2339735,8.72363571 C89.337947,8.73713571 89.5730464,8.76349286 89.5730464,8.76349286 L89.6048344,8.76542143 C90.5399338,8.83549286 91.2001987,8.87535 91.5670861,8.88820714 C92.4902649,8.91842143 93.3081457,8.90877857 94.0670861,8.85927857 C94.3425828,8.84192143 95.0836424,8.76413571 95.1180795,8.76092143 C96.737947,8.55327857 96.7419205,8.28713571 96.743245,8.19970714 C96.745894,8.02870714 96.5710596,7.89435 95.6942384,7.75742143 C95.5366225,7.73235 95.2280132,7.69249286 94.8710596,7.64813571 C94.2538411,7.56970714 93.4862914,7.47263571 93.114106,7.39999286 C92.827351,7.34470714 92.6882781,7.29777857 92.6227152,7.26820714 C92.7776821,7.19749286 93.1935762,7.10685 93.6240397,7.05606429 C93.9902649,7.01620714 94.3869536,6.99370714 94.8717219,6.98535 C95.7697351,6.96863571 97.6876159,7.10170714 97.7041722,7.10299286 C97.7717219,7.10813571 97.8346358,7.11520714 97.8942384,7.12099286 C98.6571523,7.20263571 98.7624503,7.31706429 98.7703974,7.31192143 C98.7584768,7.33892143 98.6770199,7.39292143 98.6054967,7.42249286 L98.1200662,7.62113571 L99.2399338,7.69763571 L99.2988742,7.68863571 C99.5200662,7.59670714 99.7697351,7.46492143 99.7386093,7.26049286 C99.722053,7.15506429 99.6823179,6.90756429 98.1942384,6.76035 C97.9425828,6.73527857 96.9518543,6.66842143 96.5584768,6.65363571 C95.7551656,6.62406429 95.0346358,6.62406429 94.3558278,6.65492143 L93.816755,6.68063571 C93.1756954,6.70120714 92.5412583,6.80920714 92.5088079,6.81499286 C91.8472185,6.95963571 91.5902649,7.09206429 91.5935762,7.28685 C91.5955629,7.41799286 91.6949007,7.56970714 92.4187417,7.70342143 C92.4187417,7.70342143 93.4286755,7.85063571 93.8121192,7.89949286 C94.140596,7.94063571 95.2008609,8.09492143 95.232649,8.10006429 C95.4995364,8.15020714 95.622053,8.19777857 95.6750331,8.22606429 C95.6286755,8.25370714 95.527351,8.29870714 95.3134437,8.35527857 C95.0756954,8.41249286 94.8134437,8.43949286 94.5816556,8.46327857 L94.4737086,8.47356429 C94.0809934,8.51599286 93.6525166,8.54106429 93.1624503,8.55070714 C92.4743709,8.56485 91.7922517,8.55263571 91.1372848,8.51599286 C90.8889404,8.50120714 90.0770199,8.44206429 89.8955629,8.42727857 C89.3319868,8.36620714 89.0227152,8.24985 88.9922517,8.20420714 C88.9929139,8.20356429 89.016755,8.13927857 89.2710596,8.03127857 L89.737947,7.83070714 L88.6280132,7.75613571 L88.5796689,7.76192143 C88.4637748,7.79920714 88.2511921,7.88020714 88.1233775,8.00235 C88.0538411,8.06792143 88.0094702,8.14635 88.0180795,8.23506429 C88.0412583,8.46906429 88.4048344,8.61563571 89.2339735,8.72363571" id="Fill-98"></path>
                </g>
                <polygon id="Fill-101" fill="#231F20" points="11 123.826259 14.241796 123 16 123.175716 12.758204 124"></polygon>
            </g>
        </g>
    </g>
</svg>