<?xml version="1.0" encoding="utf-8"?>
<!-- Generator: Adobe Illustrator 21.1.0, SVG Export Plug-In . SVG Version: 6.00 Build 0)  -->
<svg version="1.1" id="Слой_1" xmlns="http://www.w3.org/2000/svg" xmlns:xlink="http://www.w3.org/1999/xlink" x="0px" y="0px"
	 width="199px" height="91px" viewBox="0 0 199 91" style="enable-background:new 0 0 199 91;" xml:space="preserve">
<g transform="translate(0 .557)">
	<defs>
		<filter id="Adobe_OpacityMaskFilter" filterUnits="userSpaceOnUse" x="0" y="0.3" width="24.9" height="52.4">
			<feColorMatrix  type="matrix" values="1 0 0 0 0  0 1 0 0 0  0 0 1 0 0  0 0 0 1 0"/>
		</filter>
	</defs>
	<mask maskUnits="userSpaceOnUse" x="0" y="0.3" width="24.9" height="52.4" id="b">
		<g class="st0">
			<path id="a" class="st1" d="M0,0.3h24.9v52.4H0V0.3z"/>
		</g>
	</mask>
	<path class="st2" d="M0,30.6v-3c0-2.5,0-5,0-7.5c0-0.3,0.1-0.6,0.3-0.8c1.5-1.5,2.9-2.9,4.4-4.4c1.5-1.5,1.7-3.6,0.5-5.2
		C4.1,8.1,1.9,7.7,0.2,8.8c0,0-0.1,0-0.2,0.1c0-0.2,0-0.3,0-0.4C0,5.9,0,3.5,0,1c0-0.4,0.1-0.5,0.5-0.6c5.7-0.9,11.4,2.6,13,8.4
		c0.2,0.8,0.3,1.6,0.5,2.5c0.4,0.1,0.9,0.1,1.4,0.2c4.5,1,7.6,3.6,9,8c1.4,4.4,0.3,8.5-3,11.8c-7,7-14,14-21,21
		c-0.1,0.1-0.2,0.2-0.4,0.3c0-0.2,0-0.4,0-0.5c0-3.4,0-6.7,0-10.1c0-0.3,0.1-0.6,0.3-0.8c5.2-5.2,10.3-10.3,15.5-15.5
		c1.1-1.1,1.5-2.5,1-4c-0.5-1.5-1.6-2.4-3.2-2.6c-1.3-0.2-2.4,0.3-3.3,1.2c-2.6,2.7-5.3,5.3-7.9,7.9c-0.8,0.8-1.5,1.6-2.3,2.4
		L0,30.6"/>
</g>
<path class="st3" d="M24.8,68.6c-1.3-1.3-2.6-2.7-3.9-4c-2.1-2.1-4.2-4.2-6.3-6.3c-2.2-2.2-5.6-1.3-6.5,1.5c-0.4,1.5,0,2.8,1,3.9
	c1.9,1.9,3.7,3.7,5.6,5.6c3.3,3.3,6.6,6.6,9.9,9.9c0.2,0.2,0.3,0.5,0.3,0.8c0,3.4,0,6.7,0,10.1v0.5c-0.2-0.2-0.3-0.3-0.4-0.4
	c-7-7-14-14-21-21c-5.9-5.9-4.1-15.7,3.5-19c0.6-0.3,1.3-0.5,1.9-0.6c0.7-0.2,1.3-0.2,2-0.4c0.4-4.2,2.3-7.4,6-9.5
	c2.4-1.4,5.1-1.8,7.9-1.2v8.2c-0.6-0.2-1.3-0.5-2-0.5c-1.7-0.1-3.1,0.7-3.8,2.2c-0.7,1.5-0.4,3.1,0.8,4.3c1.5,1.5,3,3.1,4.6,4.6
	c0.3,0.3,0.4,0.6,0.4,1c0,3.3,0,6.6,0,9.9v0.5C24.8,68.5,24.8,68.5,24.8,68.6 M35.1,81.5v9h-1.7V78.2c0.7,0,1.4,0,2.1,0
	c0.1,0,0.3,0.2,0.3,0.4c1,2.5,2,5,3,7.5c0.1,0.2,0.2,0.3,0.3,0.6l1-2.6c0.7-1.8,1.4-3.6,2.1-5.4c0.1-0.3,0.3-0.4,0.6-0.4
	c0.6,0,1.2,0,1.9,0v12.3H43v-9.1l-0.1,0c-0.1,0.1-0.1,0.3-0.2,0.4c-0.9,2.2-1.8,4.3-2.6,6.5c-0.1,0.4-0.3,0.5-0.7,0.5
	c-1.2,0-1.2,0-1.7-1.1c-0.8-1.9-1.6-3.9-2.4-5.8C35.3,81.7,35.2,81.6,35.1,81.5L35.1,81.5 M65.8,81.9v8.6h-1.7V78.2c0.5,0,1,0,1.5,0
	c0.1,0,0.3,0.2,0.4,0.3c1.6,2.6,3.2,5.2,4.8,7.8c0.1,0.2,0.2,0.3,0.4,0.6v-8.7h1.8v12.3c-0.5,0-1,0-1.4,0c-0.1,0-0.3-0.2-0.4-0.4
	c-1.6-2.6-3.2-5.2-4.8-7.8C66.1,82.2,66,82,65.8,81.9C65.9,81.9,65.9,81.9,65.8,81.9 M109.1,78.2h1.7v12.3c-0.5,0-1,0-1.4,0
	c-0.1,0-0.3-0.2-0.4-0.4c-1.6-2.6-3.2-5.2-4.8-7.9c-0.1-0.1-0.2-0.3-0.3-0.5v8.7h-1.7V78.2c0.5,0,1,0,1.4,0c0.1,0,0.3,0.2,0.4,0.3
	c1.6,2.6,3.2,5.2,4.8,7.9c0.1,0.1,0.2,0.3,0.4,0.4L109.1,78.2L109.1,78.2z M87.7,90.5c-0.5,0-1,0-1.4,0c-0.2,0-0.3-0.2-0.4-0.4
	c-1.6-2.6-3.2-5.2-4.8-7.9c-0.1-0.1-0.2-0.3-0.3-0.5v8.7h-1.7V78.2c0.5,0,1,0,1.4,0c0.1,0,0.3,0.2,0.4,0.4c1.6,2.6,3.2,5.2,4.8,7.8
	c0.1,0.2,0.2,0.3,0.4,0.6v-8.7h1.8C87.7,78.2,87.7,90.5,87.7,90.5z M147.8,79.9v3.9c0.8,0,1.6,0,2.4,0c1.5,0,2.1-0.6,2.1-2.2
	c0-0.2,0-0.3-0.1-0.5c-0.1-0.7-0.5-1.2-1.2-1.2C149.9,79.8,148.9,79.9,147.8,79.9 M147.8,85.5v5H146V78.1c1.8,0.1,3.7,0,5.4,0.2
	c1.6,0.2,2.5,1.1,2.6,2.8c0.1,0.7,0,1.5-0.2,2.2c-0.2,0.8-0.5,1-1.8,1.8l2.6,5.4c-0.7,0-1.3,0-2,0c-0.1,0-0.2-0.2-0.3-0.4
	c-0.6-1.4-1.3-2.8-1.8-4.2c-0.2-0.4-0.4-0.5-0.8-0.5C149.2,85.5,148.5,85.5,147.8,85.5 M123.8,85.4h-2.2v-1.6h3.9c0,0.1,0,0.3,0,0.4
	c0,1.8,0,3.6,0,5.4c0,0.3-0.1,0.5-0.4,0.6c-1.6,0.5-3.2,0.8-4.8,0.5c-1.8-0.3-2.9-1.5-3.3-3.2c-0.5-2-0.6-4.1,0-6.1
	c0.5-1.9,1.8-3.1,3.8-3.3c1.4-0.2,2.7,0,4.1,0.4c0.3,0.1,0.4,0.2,0.4,0.6c0,0.4,0,0.8,0,1.3c-0.2-0.1-0.4-0.1-0.5-0.2
	c-0.8-0.2-1.6-0.4-2.4-0.5c-2-0.2-3.2,0.7-3.6,2.7c-0.3,1.4-0.3,2.8,0.1,4.2c0.4,1.6,1.3,2.4,2.9,2.4c0.6,0,1.2-0.1,1.7-0.1
	c0.1,0,0.3-0.2,0.3-0.3C123.8,87.5,123.8,86.5,123.8,85.4 M167.1,78.2h1.8v12.3h-1.7c0-0.2,0-0.4,0-0.6c0-1.5,0-3,0-4.5
	c0-0.2,0-0.5-0.3-0.5c-1.6,0-3.1,0-4.7,0v5.5h-1.8V78.2h1.8v5.1c0.2,0,0.4,0,0.5,0c1.3,0,2.7,0,4,0c0.4,0,0.5-0.1,0.5-0.5
	c0-1.3,0-2.7,0-4L167.1,78.2L167.1,78.2z M50.8,78.2h7.4v1.6h-5.7c0,0.5,0,1,0,1.5c0,0.7,0,1.3,0.1,2c0.7,0,1.3,0.1,2,0.1
	c1,0,1.9,0,2.9,0c0,0,0.1,0,0.2,0v1.6h-5.1v1.1c0,0.8,0,1.6,0,2.3c0,0.4,0.1,0.5,0.5,0.5c1.5,0,3.1,0,4.6,0h0.6v1.6h-7.4
	C50.8,90.5,50.8,78.2,50.8,78.2z M174.9,78.2h1.7v0.6c0,2.5,0,4.9,0,7.4c0,2.1,1,3.2,3.4,2.8c1.3-0.2,1.9-1,1.9-2.6
	c0-2.5,0-5.1,0-7.6v-0.6h1.8v0.6c0,2.5-0.1,5,0,7.5c0.1,2.9-1.6,4.2-4,4.4c-1.5,0.1-2.9-0.1-4-1.3c-0.6-0.6-0.9-1.4-0.9-2.2
	c0-3,0-5.9,0-8.9C174.8,78.3,174.9,78.3,174.9,78.2 M135.8,80.6c0,0-0.1,0-0.1,0l-1.5,5.4h3.2C136.8,84.2,136.3,82.4,135.8,80.6
	 M140.5,90.5c-0.6,0-1.1,0-1.7,0c-0.1,0-0.3-0.2-0.4-0.3c-0.2-0.8-0.5-1.5-0.7-2.3c-0.1-0.3-0.2-0.4-0.5-0.4c-1.1,0-2.1,0-3.2,0
	c-0.3,0-0.4,0.1-0.5,0.4c-0.2,0.8-0.5,1.6-0.7,2.3c-0.1,0.3-0.2,0.3-0.4,0.3c-0.5,0-1,0-1.6,0c0-0.2,0.1-0.3,0.1-0.5
	c1.2-3.9,2.4-7.7,3.6-11.6c0.1-0.3,0.3-0.5,0.6-0.5c1.4,0,1.4,0,1.8,1.3l3.3,10.7C140.4,90.1,140.5,90.3,140.5,90.5 M197.1,80.2
	c-1-0.2-1.8-0.4-2.7-0.5c-0.6,0-1.2,0-1.8,0.1c-1.1,0.3-1.7,1.4-1.1,2.5c0.2,0.3,0.6,0.6,1,0.8c0.7,0.2,1.5,0.3,2.2,0.4
	c0,0,0.1,0,0.1,0c2.1,0.4,2.9,1.3,3,3.2c0,2-1,3.4-2.9,3.8c-1.7,0.4-3.4,0.2-5-0.3c-0.3-0.1-0.4-0.2-0.4-0.6c0-0.4,0-0.9,0-1.4
	c0.2,0.1,0.4,0.1,0.5,0.2c1.4,0.5,2.8,0.7,4.2,0.4c1.3-0.3,1.9-1.3,1.6-2.6c-0.1-0.6-0.5-0.9-1.1-1.1c-0.7-0.2-1.4-0.2-2.1-0.4
	c-0.6-0.1-1.2-0.3-1.8-0.6c-0.8-0.4-1.2-1-1.3-1.9c0-0.6-0.1-1.2,0.1-1.8c0.3-1.4,1.3-2.1,2.7-2.4c1.5-0.3,2.9-0.2,4.4,0.2
	c0.4,0.1,0.5,0.3,0.5,0.7C197.1,79.4,197.1,79.8,197.1,80.2"/>
<defs>
	<filter id="Adobe_OpacityMaskFilter_1_" filterUnits="userSpaceOnUse" x="33.2" y="54.8" width="165.8" height="35.7">
		<feColorMatrix  type="matrix" values="1 0 0 0 0  0 1 0 0 0  0 0 1 0 0  0 0 0 1 0"/>
	</filter>
</defs>
<mask maskUnits="userSpaceOnUse" x="33.2" y="54.8" width="165.8" height="35.7" id="d">
	<g class="st4">
		<path id="c" class="st1" d="M0,90.7h199V0.8H0V90.7z"/>
	</g>
</mask>
<path class="st5" d="M94,90.5h1.7V78.2H94V90.5z M178.6,77.4c0.3-0.6,0.6-1.1,0.9-1.6c0-0.1,0.2-0.1,0.3-0.1c0.6,0,1.2,0,1.9,0
	c-0.5,0.6-1,1.2-1.5,1.7c-0.2,0.2-0.6,0.1-0.8,0.1C179.1,77.4,178.9,77.4,178.6,77.4 M34.3,63.2c1.1,0,2.2,0,3.2,0
	c0.2,0,0.4,0,0.5,0c1.3-0.2,1.9-0.9,1.9-2.2c0-1.3-0.5-2.2-1.6-2.3c-1.3-0.1-2.7,0-4.1,0L34.3,63.2L34.3,63.2z M34.3,69.3
	c1.4,0,2.8,0.1,4.2,0c1.1-0.1,1.8-0.8,1.9-1.9c0.2-2.1-0.6-3.1-2.6-3.1c-1,0-2,0-3.1,0c-0.1,0-0.3,0-0.4,0V69.3L34.3,69.3z
	 M39.7,63.6c2.6,0.9,2.6,4.8,0.8,6c-0.5,0.4-1.2,0.7-1.8,0.7c-1.8,0.1-3.7,0.1-5.6,0.2v-13c0,0,0-0.1,0.1-0.1c1.7,0,3.4-0.1,5.1,0.1
	c1.6,0.1,2.5,1,2.8,2.4C41.5,61.5,41.1,62.6,39.7,63.6z M100.6,58.6v4.6h0.6c1,0,2,0,3,0c1.3-0.1,2-0.8,2.1-2.1
	c0.1-1.4-0.5-2.3-1.8-2.4C103.2,58.5,101.9,58.6,100.6,58.6L100.6,58.6z M100.6,64.3v5c1.3,0,2.6,0.1,3.9,0c1.4-0.1,2.1-0.9,2.1-2.3
	c0-0.3,0-0.5,0-0.8c-0.1-1.1-0.7-1.8-1.8-1.9C103.5,64.3,102.1,64.3,100.6,64.3z M99.4,57.5c0.6,0,1.1,0,1.6,0c1.3,0,2.6,0,3.9,0.2
	c2.2,0.3,3.3,2.8,2.2,4.8c-0.3,0.5-0.7,0.8-1.1,1.2c0.3,0.2,0.7,0.4,1,0.7c1,1.1,1.1,2.4,0.8,3.7c-0.3,1.3-1.2,1.9-2.4,2.3
	c-0.3,0.1-0.6,0.1-1,0.2c-1.6,0-3.3,0-5,0C99.4,70.4,99.4,57.5,99.4,57.5z M191.1,63.3h3.1v0.9h-3.1v5.2c1,0,1.9,0.1,2.9,0
	c1.7-0.1,2.8-1,3.3-2.6c0.6-1.9,0.6-3.8,0-5.7c-0.3-1-0.9-1.8-1.9-2.3c-1.4-0.6-2.8-0.3-4.3-0.4V63.3L191.1,63.3z M189.9,70.5v-6.3
	h-1.5v-0.9h1.5v-0.6c0-1.6,0-3.1,0-4.7c0-0.4,0.1-0.5,0.5-0.5c1.2,0,2.4,0,3.7,0c2.4,0.1,3.9,1.3,4.5,3.7c0.5,1.8,0.5,3.7,0,5.5
	c-0.6,2.4-1.9,3.5-4.5,3.7C192.8,70.6,191.4,70.5,189.9,70.5L189.9,70.5z M174.4,60.1v10.4h-1.1V57.5c0.5-0.2,0.9-0.1,1.2,0.4
	c2.1,3.2,4.2,6.4,6.3,9.5c0.1,0.2,0.2,0.3,0.4,0.4l0-0.5c0-3.1,0-6.1,0-9.2c0-0.8,0-0.8,0.8-0.8c0.1,0,0.2,0,0.3,0v13
	c-0.4,0.1-0.8,0.1-1.1-0.4c-2.1-3.2-4.2-6.4-6.3-9.6C174.7,60.3,174.6,60.2,174.4,60.1C174.5,60,174.5,60,174.4,60.1 M56.8,63.6
	c1.4,0,2.7,0.1,4.1,0c1-0.1,1.6-0.7,1.7-1.6c0.1-0.6,0-1.2,0-1.8c-0.1-0.8-0.6-1.4-1.4-1.4c-1.5-0.2-2.9-0.2-4.4-0.2
	C56.8,58.5,56.8,63.6,56.8,63.6z M55.7,57.4c1.9,0.1,3.7,0,5.5,0.2c1.6,0.2,2.5,1.1,2.7,2.7c0.1,0.7,0,1.4-0.1,2.1
	c-0.2,1.1-0.8,1.6-2.2,2.2l1.5,2.9l1.6,3c-0.4,0-0.8,0-1.1,0c-0.1,0-0.3-0.2-0.4-0.4c-0.9-1.6-1.7-3.3-2.5-4.9
	c-0.2-0.3-0.3-0.4-0.7-0.4c-1,0-2,0-3.1,0v5.7h-1.2L55.7,57.4L55.7,57.4z M89.8,63.6c1.4,0,2.8,0.1,4.1,0c0.9-0.1,1.6-0.7,1.7-1.6
	c0.1-0.6,0.1-1.2,0-1.8c-0.1-0.8-0.6-1.4-1.5-1.5c-1.4-0.1-2.9-0.1-4.3-0.2V63.6z M97.6,70.4c-1,0.3-1.5-0.1-1.9-0.9
	c-0.7-1.5-1.5-2.9-2.2-4.3c-0.1-0.3-0.3-0.4-0.6-0.4c-1,0-2.1,0-3.2,0v5.7h-1.2v-13c0.2,0,0.4,0,0.6,0c1.4,0,2.8,0,4.2,0.1
	c0.5,0,1,0.2,1.5,0.3c0.3,0.1,0.7,0.3,0.9,0.6c1.8,1.6,1.1,5.2-1.1,6.1c-0.1,0-0.2,0.1-0.3,0.1L97.6,70.4L97.6,70.4z M118.4,64.3
	c-0.1-1.1-0.1-1.9-0.2-2.7c0-0.3-0.1-0.6-0.2-0.8c-0.5-1.6-1.5-2.4-3.3-2.4c-1.8,0-2.9,0.7-3.3,2.4c-0.5,2.1-0.5,4.3,0,6.4
	c0.4,1.7,1.5,2.4,3.3,2.4c1.8,0,2.9-0.8,3.3-2.4C118.2,66.1,118.2,65.1,118.4,64.3 M119.6,64c-0.1,0.9-0.1,1.9-0.3,2.9
	c-0.5,2.7-2.3,4-5,3.8c-2.3-0.2-3.6-1.3-4.1-3.6c-0.5-2.2-0.5-4.4,0.1-6.6c0.5-2,1.9-3.1,4-3.2c0.6,0,1.3,0,1.9,0.1
	c2,0.4,2.8,1.9,3.2,3.8C119.5,62.1,119.5,63.1,119.6,64 M44.7,63.9c0.1,0.9,0.1,1.8,0.3,2.7c0.2,0.9,0.5,1.8,1.4,2.4
	c2,1.4,4.8,0.3,5.3-2c0.5-2,0.5-3.9,0-5.9c-0.4-1.9-1.5-2.8-3.4-2.8c-1.9,0-3,0.9-3.3,2.8C44.9,62.1,44.8,63,44.7,63.9 M43.5,63.5
	c0.2-0.9,0.3-2.2,0.6-3.4c0.5-1.8,1.8-2.6,3.6-2.8c0.5,0,1.1,0,1.6,0c1.9,0.2,3.1,1.4,3.5,3.2c0.5,2.2,0.5,4.6,0,6.8
	c-0.6,2.3-2.3,3.4-4.7,3.3c-2.6-0.2-4.1-1.5-4.4-4.2C43.6,65.6,43.6,64.8,43.5,63.5 M74.9,59.1c-0.9-0.2-1.7-0.5-2.5-0.6
	c-0.6-0.1-1.2-0.1-1.8,0c-1.2,0.2-2.1,0.9-2.6,2c-0.9,2.3-0.9,4.7,0,7.1c0.5,1.2,1.4,2,2.8,2c1,0,2-0.1,2.9-0.2
	c0.1,0,0.3-0.2,0.3-0.4c0-1.4,0-2.7,0-4.2h-2.7v-1.1h3.8c0,0.1,0,0.3,0,0.4c0,1.8,0,3.6,0,5.4c0,0.3-0.1,0.5-0.4,0.6
	c-1.5,0.5-3.1,0.7-4.7,0.4c-1.7-0.3-2.9-1.3-3.4-2.9c-0.8-2.4-0.8-4.9,0-7.3c0.6-1.7,1.8-2.8,3.7-3c1.3-0.2,2.6,0,3.9,0.4
	c0.5,0.2,0.8,0.4,0.7,1C74.9,58.8,74.9,58.9,74.9,59.1 M130.5,70.5c-0.5,0-0.9,0-1.3,0c-0.2,0-0.3-0.2-0.5-0.3
	c-1.4-1.8-2.8-3.7-4.2-5.6c-0.1-0.1-0.2-0.3-0.3-0.4c-0.6,0.7-1.3,1.2-1.2,2.2c0.1,1.3,0,2.7,0,4h-1.1V57.5c1.1-0.2,1.1-0.2,1.1,0.9
	v5.4l0.2,0.1c0.1-0.1,0.1-0.3,0.2-0.4c1.5-1.8,3-3.5,4.5-5.4c0.6-0.8,1.2-0.7,2.1-0.6l-5,5.8L130.5,70.5 M156.9,59.2l-2.2,6.6h4.3
	L156.9,59.2 M161.9,70.5c-1.3,0.1-1.3,0.1-1.6-1c-0.2-0.8-0.5-1.5-0.7-2.3c-0.1-0.3-0.2-0.4-0.5-0.4c-1.4,0-2.8,0-4.2,0
	c-0.3,0-0.5,0.1-0.6,0.4c-0.3,0.9-0.6,1.8-0.9,2.8c-0.1,0.4-0.3,0.6-0.7,0.5c-0.2,0-0.5,0-0.8,0l0.5-1.4c1.3-3.8,2.6-7.5,3.9-11.3
	c0.1-0.3,0.2-0.5,0.6-0.5c0.4,0,0.5,0.1,0.6,0.5c1.4,4.1,2.8,8.2,4.3,12.3C161.9,70.2,161.9,70.3,161.9,70.5 M138.5,65.8l-2.1-6.4
	l-0.1,0l-2.1,6.4H138.5z M131.4,70.5c0.1-0.4,0.2-0.7,0.4-1.1c1.4-3.9,2.7-7.8,4.1-11.7c0.1-0.3,0.3-0.5,0.6-0.5
	c0.4,0,0.5,0.2,0.6,0.5c1.4,4.1,2.8,8.1,4.2,12.2c0.1,0.2,0.1,0.3,0.2,0.5c-0.4,0-0.7,0-1.1,0c-0.1,0-0.3-0.2-0.3-0.3
	c-0.3-1-0.6-1.9-0.9-2.9c-0.1-0.4-0.3-0.4-0.6-0.4c-1.4,0-2.7,0-4.1,0c-0.4,0-0.5,0.1-0.6,0.4c-0.3,0.9-0.6,1.8-0.9,2.7
	c-0.1,0.4-0.3,0.6-0.7,0.5C131.9,70.5,131.7,70.5,131.4,70.5z M81.9,59.4c0,0-0.1,0-0.1,0l-2.1,6.4H84L81.9,59.4 M76.9,70.5
	c0.1-0.2,0.1-0.4,0.2-0.5c1.4-4.1,2.9-8.2,4.3-12.3c0.1-0.3,0.3-0.4,0.6-0.4c0.3,0,0.5,0.1,0.6,0.4c1.4,4.2,2.9,8.3,4.3,12.4
	c0,0.1,0.1,0.2,0.1,0.4h-1.3c-0.3-0.9-0.6-1.8-0.9-2.7c-0.3-1-0.3-1-1.3-1c-1.2,0-2.3,0-3.5,0c-0.4,0-0.5,0.1-0.6,0.4
	c-0.3,0.9-0.6,1.8-0.9,2.7c-0.1,0.4-0.3,0.6-0.7,0.5C77.4,70.5,77.1,70.5,76.9,70.5 M142.5,68.9c0.4,0.1,0.8,0.3,1.2,0.4
	c1.3,0.3,2.6,0.5,3.9,0.2c1.8-0.4,2.7-2.4,1.8-4c-0.3-0.6-0.8-0.8-1.4-0.9c-0.8-0.2-1.6-0.3-2.4-0.4c-0.1,0-0.3-0.1-0.4-0.1
	c-2.1-0.5-2.8-1.3-2.8-3.2c0.1-1.8,1.2-3.1,3.1-3.4c1.3-0.2,2.5-0.1,3.8,0.2c1,0.3,1,0.3,0.9,1.4c-0.2-0.1-0.3-0.1-0.5-0.2
	c-1.3-0.5-2.7-0.6-4.1-0.3c-1.6,0.3-2.4,2.1-1.7,3.6c0.3,0.5,0.7,0.8,1.3,0.9c1,0.2,2,0.3,2.9,0.5c0.4,0.1,0.9,0.2,1.3,0.4
	c0.7,0.3,1.2,0.9,1.4,1.8c0.6,2.6-0.9,4.7-3.6,4.9c-1.3,0.1-2.6,0-3.8-0.3C142.3,70,142.4,70.2,142.5,68.9 M164.9,63.2h5.5v1.1h-5.5
	v6.2h-1.1v-13h7.3v1h-6.1V63.2z M185.3,70.5h1.1v-13h-1.1V70.5z M116.7,54.8c-0.5,0.6-0.9,1.1-1.4,1.5c-0.2,0.2-0.6,0.2-0.9,0.2
	c0,0,0-0.1-0.1-0.1c0.2-0.5,0.5-1,0.7-1.5c0-0.1,0.2-0.2,0.3-0.2C115.7,54.8,116.1,54.8,116.7,54.8"/>
</svg>
