<?xml version="1.0" encoding="utf-8"?>
<!-- Generator: Adobe Illustrator 23.0.6, SVG Export Plug-In . SVG Version: 6.00 Build 0)  -->
<svg version="1.1" id="Layer_1" xmlns="http://www.w3.org/2000/svg" xmlns:xlink="http://www.w3.org/1999/xlink" x="0px" y="0px"
	 viewBox="0 0 199 91" style="enable-background:new 0 0 199 91;" xml:space="preserve">
<style type="text/css">
	.st0{filter:url(#Adobe_OpacityMaskFilter);}
	.st1{fill-rule:evenodd;clip-rule:evenodd;fill:#FFFFFF;}
	.st2{mask:url(#mask-2_1_);fill-rule:evenodd;clip-rule:evenodd;}
	.st3{fill-rule:evenodd;clip-rule:evenodd;}
	.st4{filter:url(#Adobe_OpacityMaskFilter_1_);}
	.st5{mask:url(#mask-4_1_);fill-rule:evenodd;clip-rule:evenodd;}
	.st6{filter:url(#Adobe_OpacityMaskFilter_2_);}
	.st7{mask:url(#mask-4_2_);fill-rule:evenodd;clip-rule:evenodd;}
	.st8{filter:url(#Adobe_OpacityMaskFilter_3_);}
	.st9{mask:url(#mask-4_3_);fill-rule:evenodd;clip-rule:evenodd;}
	.st10{filter:url(#Adobe_OpacityMaskFilter_4_);}
	.st11{mask:url(#mask-4_4_);fill-rule:evenodd;clip-rule:evenodd;}
	.st12{filter:url(#Adobe_OpacityMaskFilter_5_);}
	.st13{mask:url(#mask-4_5_);fill-rule:evenodd;clip-rule:evenodd;}
	.st14{filter:url(#Adobe_OpacityMaskFilter_6_);}
	.st15{mask:url(#mask-4_6_);fill-rule:evenodd;clip-rule:evenodd;}
	.st16{filter:url(#Adobe_OpacityMaskFilter_7_);}
	.st17{mask:url(#mask-4_7_);fill-rule:evenodd;clip-rule:evenodd;}
	.st18{filter:url(#Adobe_OpacityMaskFilter_8_);}
	.st19{mask:url(#mask-4_8_);fill-rule:evenodd;clip-rule:evenodd;}
	.st20{filter:url(#Adobe_OpacityMaskFilter_9_);}
	.st21{mask:url(#mask-4_9_);fill-rule:evenodd;clip-rule:evenodd;}
	.st22{filter:url(#Adobe_OpacityMaskFilter_10_);}
	.st23{mask:url(#mask-4_10_);fill-rule:evenodd;clip-rule:evenodd;}
	.st24{filter:url(#Adobe_OpacityMaskFilter_11_);}
	.st25{mask:url(#mask-4_11_);fill-rule:evenodd;clip-rule:evenodd;}
	.st26{filter:url(#Adobe_OpacityMaskFilter_12_);}
	.st27{mask:url(#mask-4_12_);fill-rule:evenodd;clip-rule:evenodd;}
	.st28{filter:url(#Adobe_OpacityMaskFilter_13_);}
	.st29{mask:url(#mask-4_13_);fill-rule:evenodd;clip-rule:evenodd;}
	.st30{filter:url(#Adobe_OpacityMaskFilter_14_);}
	.st31{mask:url(#mask-4_14_);fill-rule:evenodd;clip-rule:evenodd;}
	.st32{filter:url(#Adobe_OpacityMaskFilter_15_);}
	.st33{mask:url(#mask-4_15_);fill-rule:evenodd;clip-rule:evenodd;}
	.st34{filter:url(#Adobe_OpacityMaskFilter_16_);}
	.st35{mask:url(#mask-4_16_);fill-rule:evenodd;clip-rule:evenodd;}
	.st36{filter:url(#Adobe_OpacityMaskFilter_17_);}
	.st37{mask:url(#mask-4_17_);fill-rule:evenodd;clip-rule:evenodd;}
	.st38{filter:url(#Adobe_OpacityMaskFilter_18_);}
	.st39{mask:url(#mask-4_18_);fill-rule:evenodd;clip-rule:evenodd;}
	.st40{filter:url(#Adobe_OpacityMaskFilter_19_);}
	.st41{mask:url(#mask-4_19_);fill-rule:evenodd;clip-rule:evenodd;}
</style>
<g id="design">
	<g id="places-details" transform="translate(-212.000000, -3402.000000)">
		<g id="Group-49" transform="translate(212.000000, 3402.000000)">
			<g id="Group-48">
				<g id="Group-3" transform="translate(0.000000, 0.556755)">
					<defs>
						<filter id="Adobe_OpacityMaskFilter" filterUnits="userSpaceOnUse" x="0" y="0.3" width="24.9" height="52.4">
							<feColorMatrix  type="matrix" values="1 0 0 0 0  0 1 0 0 0  0 0 1 0 0  0 0 0 1 0"/>
						</filter>
					</defs>
					<mask maskUnits="userSpaceOnUse" x="0" y="0.3" width="24.9" height="52.4" id="mask-2_1_">
						<g class="st0">
							<polygon id="path-1_1_" class="st1" points="0,0.3 24.9,0.3 24.9,52.7 0,52.7 							"/>
						</g>
					</mask>
					<path id="Fill-1" class="st2" d="M0,30.6v-3c0-2.5,0-5,0-7.5c0-0.3,0.1-0.6,0.3-0.8c1.5-1.5,2.9-2.9,4.4-4.4
						c1.5-1.5,1.7-3.6,0.5-5.2C4.1,8.1,1.9,7.7,0.2,8.8c0,0-0.1,0-0.2,0.1c0-0.2,0-0.3,0-0.4C0,5.9,0,3.5,0,1c0-0.4,0.1-0.5,0.5-0.6
						c5.7-0.9,11.4,2.6,13,8.4c0.2,0.8,0.3,1.6,0.5,2.5c0.4,0.1,0.9,0.1,1.4,0.2c4.5,1,7.6,3.6,9,8c1.4,4.4,0.3,8.5-3,11.8
						c-7,7-14,14-21,21c-0.1,0.1-0.2,0.2-0.4,0.3c0-0.2,0-0.4,0-0.5c0-3.4,0-6.7,0-10.1c0-0.3,0.1-0.6,0.3-0.8
						c5.2-5.2,10.3-10.3,15.5-15.5c1.1-1.1,1.5-2.5,1-4c-0.5-1.5-1.6-2.4-3.2-2.6c-1.3-0.2-2.4,0.3-3.3,1.2
						c-2.6,2.7-5.3,5.3-7.9,7.9c-0.8,0.8-1.5,1.6-2.3,2.4C0.1,30.7,0.1,30.6,0,30.6"/>
				</g>
				<path id="Fill-4" class="st3" d="M24.8,68.6c-1.3-1.3-2.6-2.7-3.9-4c-2.1-2.1-4.2-4.2-6.3-6.4c-2.2-2.2-5.6-1.3-6.5,1.5
					c-0.4,1.5,0,2.8,1,3.9c1.9,1.9,3.7,3.7,5.6,5.6c3.3,3.3,6.6,6.6,9.9,9.9c0.2,0.2,0.3,0.5,0.3,0.8c0,3.4,0,6.7,0,10.1v0.5
					c-0.2-0.2-0.3-0.3-0.4-0.4c-7-7-14-14-21-21c-5.9-5.9-4.1-15.7,3.5-19c0.6-0.3,1.3-0.5,1.9-0.6c0.7-0.2,1.3-0.2,2-0.4
					c0.4-4.2,2.3-7.4,6-9.5c2.4-1.4,5.1-1.8,7.9-1.2v8.2c-0.6-0.2-1.3-0.5-2-0.5c-1.7-0.1-3.1,0.7-3.8,2.2c-0.7,1.5-0.4,3.1,0.8,4.3
					c1.5,1.5,3,3.1,4.6,4.6c0.3,0.3,0.4,0.6,0.4,1c0,3.3,0,6.6,0,9.9v0.5C24.8,68.5,24.8,68.5,24.8,68.6"/>
				<path id="Fill-6" class="st3" d="M35.1,81.5v9h-1.7V78.2c0.7,0,1.4,0,2.1,0c0.1,0,0.3,0.2,0.3,0.4c1,2.5,2,5,3,7.5
					c0.1,0.2,0.1,0.4,0.3,0.6c0.4-0.9,0.7-1.8,1-2.6c0.7-1.8,1.4-3.6,2.1-5.4c0.1-0.3,0.3-0.4,0.6-0.4c0.6,0,1.2,0,1.9,0v12.3H43
					v-9.1l-0.1,0c-0.1,0.1-0.1,0.3-0.2,0.4c-0.9,2.2-1.8,4.3-2.6,6.5c-0.1,0.4-0.3,0.5-0.7,0.5c-1.2,0-1.2,0-1.7-1.1
					c-0.8-1.9-1.6-3.9-2.4-5.8C35.3,81.7,35.2,81.6,35.1,81.5C35.1,81.4,35.1,81.4,35.1,81.5"/>
				<path id="Fill-8" class="st3" d="M65.8,81.9v8.6h-1.7V78.2c0.5,0,1,0,1.5,0c0.1,0,0.3,0.2,0.4,0.3c1.6,2.6,3.2,5.2,4.8,7.8
					c0.1,0.2,0.2,0.3,0.4,0.6v-8.7h1.8v12.3c-0.5,0-1,0-1.4,0c-0.1,0-0.3-0.2-0.4-0.4c-1.6-2.6-3.2-5.2-4.8-7.8
					C66.1,82.2,66,82,65.8,81.9C65.9,81.9,65.9,81.9,65.8,81.9"/>
				<path id="Fill-10" class="st3" d="M109.1,78.2h1.7v12.3c-0.5,0-1,0-1.4,0c-0.1,0-0.3-0.2-0.4-0.4c-1.6-2.6-3.2-5.2-4.8-7.9
					c-0.1-0.1-0.2-0.3-0.3-0.5v8.7h-1.7V78.2c0.5,0,1,0,1.4,0c0.1,0,0.3,0.2,0.4,0.3c1.6,2.6,3.2,5.2,4.8,7.9
					c0.1,0.1,0.2,0.3,0.4,0.4V78.2z"/>
				<path id="Fill-12" class="st3" d="M87.7,90.5c-0.5,0-1,0-1.4,0c-0.2,0-0.3-0.2-0.4-0.4c-1.6-2.6-3.2-5.2-4.8-7.9
					c-0.1-0.1-0.2-0.3-0.3-0.5v8.7h-1.7V78.2c0.5,0,1,0,1.4,0c0.1,0,0.3,0.2,0.4,0.4c1.6,2.6,3.2,5.2,4.8,7.8
					c0.1,0.2,0.2,0.3,0.4,0.6v-8.7h1.8V90.5z"/>
				<path id="Fill-14" class="st3" d="M147.8,79.9v3.9c0.8,0,1.6,0,2.4,0c1.5,0,2.1-0.6,2.1-2.2c0-0.2,0-0.3-0.1-0.5
					c-0.1-0.7-0.5-1.2-1.2-1.2C149.9,79.8,148.9,79.9,147.8,79.9 M147.8,85.5v5H146V78.1c1.8,0.1,3.7,0,5.4,0.2
					c1.6,0.2,2.5,1.1,2.6,2.8c0.1,0.7,0,1.5-0.2,2.3c-0.2,0.8-0.5,1-1.8,1.8c0.8,1.7,1.7,3.5,2.6,5.4c-0.7,0-1.3,0-2,0
					c-0.1,0-0.2-0.2-0.3-0.4c-0.6-1.4-1.3-2.8-1.8-4.2c-0.2-0.4-0.4-0.5-0.8-0.5C149.2,85.5,148.5,85.5,147.8,85.5"/>
				<path id="Fill-16" class="st3" d="M123.8,85.4h-2.2v-1.6h3.9c0,0.1,0,0.3,0,0.4c0,1.8,0,3.6,0,5.4c0,0.3-0.1,0.5-0.4,0.6
					c-1.6,0.5-3.2,0.8-4.8,0.5c-1.8-0.3-2.9-1.5-3.3-3.2c-0.5-2-0.5-4.1,0-6.1c0.5-1.9,1.8-3.1,3.8-3.3c1.4-0.2,2.7,0,4.1,0.4
					c0.3,0.1,0.4,0.2,0.4,0.6c0,0.4,0,0.9,0,1.3c-0.2-0.1-0.4-0.1-0.5-0.2c-0.8-0.2-1.6-0.4-2.4-0.5c-2-0.2-3.2,0.7-3.6,2.7
					c-0.3,1.4-0.3,2.8,0.1,4.2c0.4,1.6,1.3,2.4,2.9,2.4c0.6,0,1.2-0.1,1.7-0.1c0.1,0,0.3-0.2,0.3-0.3
					C123.8,87.5,123.8,86.5,123.8,85.4"/>
				<path id="Fill-18" class="st3" d="M167.1,78.2h1.7v12.3h-1.7c0-0.2,0-0.4,0-0.6c0-1.5,0-3,0-4.5c0-0.2,0-0.5-0.3-0.5
					c-1.6,0-3.1,0-4.7,0v5.5h-1.8V78.2h1.8v5.1c0.2,0,0.4,0,0.5,0c1.3,0,2.7,0,4,0c0.4,0,0.5-0.1,0.5-0.5c0-1.3,0-2.7,0-4V78.2z"/>
				<path id="Fill-20" class="st3" d="M50.8,78.2h7.4v1.6h-5.7c0,0.5,0,1,0,1.5c0,0.7,0,1.3,0.1,2c0.7,0,1.3,0.1,2,0.1
					c1,0,1.9,0,2.9,0c0,0,0.1,0,0.2,0v1.6h-5.1v1.1c0,0.8,0,1.6,0,2.3c0,0.4,0.1,0.5,0.5,0.5c1.5,0,3.1,0,4.6,0h0.6v1.6h-7.4V78.2z"
					/>
				<path id="Fill-22" class="st3" d="M174.9,78.2h1.7v0.6c0,2.5,0,4.9,0,7.4c0,2.1,1,3.2,3.4,2.8c1.3-0.2,1.9-1,1.9-2.6
					c0-2.5,0-5.1,0-7.6v-0.6h1.8v0.6c0,2.5-0.1,5,0,7.5c0.1,2.9-1.6,4.2-4,4.4c-1.5,0.1-2.9-0.1-4-1.3c-0.6-0.6-0.9-1.4-0.9-2.2
					c0-3,0-5.9,0-8.9C174.8,78.3,174.9,78.3,174.9,78.2"/>
				<path id="Fill-24" class="st3" d="M135.8,80.6c0,0-0.1,0-0.1,0c-0.5,1.8-1,3.6-1.5,5.4h3.2C136.8,84.2,136.3,82.4,135.8,80.6
					 M140.5,90.5c-0.6,0-1.2,0-1.7,0c-0.1,0-0.3-0.2-0.4-0.3c-0.2-0.8-0.5-1.5-0.7-2.3c-0.1-0.3-0.2-0.4-0.5-0.4c-1.1,0-2.1,0-3.2,0
					c-0.3,0-0.4,0.1-0.5,0.4c-0.2,0.8-0.5,1.6-0.7,2.3c-0.1,0.3-0.2,0.3-0.4,0.3c-0.5,0-1,0-1.6,0c0-0.2,0.1-0.3,0.1-0.5
					c1.2-3.9,2.4-7.7,3.6-11.6c0.1-0.3,0.3-0.5,0.6-0.5c1.4,0,1.4,0,1.8,1.3c1.1,3.6,2.2,7.1,3.3,10.7
					C140.4,90.1,140.5,90.3,140.5,90.5"/>
				<path id="Fill-26" class="st3" d="M197.1,80.2c-1-0.2-1.8-0.4-2.7-0.5c-0.6-0.1-1.2,0-1.8,0.1c-1.1,0.3-1.7,1.4-1.1,2.5
					c0.2,0.3,0.6,0.6,1,0.8c0.7,0.2,1.5,0.3,2.2,0.4c0,0,0.1,0,0.1,0c2.1,0.4,2.9,1.3,3,3.2c0,2-1,3.4-2.9,3.8
					c-1.7,0.4-3.4,0.2-5-0.3c-0.3-0.1-0.4-0.2-0.4-0.6c0-0.4,0-0.9,0-1.4c0.2,0.1,0.4,0.1,0.5,0.2c1.4,0.5,2.8,0.7,4.2,0.4
					c1.3-0.3,1.9-1.3,1.6-2.6c-0.1-0.6-0.5-0.9-1.1-1.1c-0.7-0.2-1.4-0.2-2.1-0.4c-0.6-0.1-1.2-0.3-1.8-0.6c-0.8-0.4-1.2-1-1.3-1.9
					c0-0.6-0.1-1.2,0.1-1.8c0.3-1.4,1.3-2.1,2.7-2.4c1.5-0.3,2.9-0.2,4.4,0.2c0.4,0.1,0.5,0.3,0.5,0.7
					C197.1,79.4,197.1,79.8,197.1,80.2"/>
				<defs>
					<filter id="Adobe_OpacityMaskFilter_1_" filterUnits="userSpaceOnUse" x="94" y="78.2" width="1.7" height="12.3">
						<feColorMatrix  type="matrix" values="1 0 0 0 0  0 1 0 0 0  0 0 1 0 0  0 0 0 1 0"/>
					</filter>
				</defs>
				<mask maskUnits="userSpaceOnUse" x="94" y="78.2" width="1.7" height="12.3" id="mask-4_1_">
					<g class="st4">
						<polygon id="path-3_1_" class="st1" points="0,90.7 199,90.7 199,0.8 0,0.8 						"/>
					</g>
				</mask>
				<polygon id="Fill-28" class="st5" points="94,90.5 95.7,90.5 95.7,78.2 94,78.2 				"/>
				<defs>
					<filter id="Adobe_OpacityMaskFilter_2_" filterUnits="userSpaceOnUse" x="178.6" y="75.6" width="3.1" height="1.8">
						<feColorMatrix  type="matrix" values="1 0 0 0 0  0 1 0 0 0  0 0 1 0 0  0 0 0 1 0"/>
					</filter>
				</defs>
				<mask maskUnits="userSpaceOnUse" x="178.6" y="75.6" width="3.1" height="1.8" id="mask-4_2_">
					<g class="st6">
						<polygon id="path-3_2_" class="st1" points="0,90.7 199,90.7 199,0.8 0,0.8 						"/>
					</g>
				</mask>
				<path id="Fill-30" class="st7" d="M178.6,77.4c0.3-0.6,0.6-1.1,0.9-1.6c0-0.1,0.2-0.1,0.3-0.1c0.6,0,1.2,0,1.9,0
					c-0.5,0.6-1,1.2-1.5,1.6c-0.2,0.2-0.6,0.1-0.8,0.1C179.1,77.4,178.9,77.4,178.6,77.4"/>
				<defs>
					<filter id="Adobe_OpacityMaskFilter_3_" filterUnits="userSpaceOnUse" x="33.2" y="57.5" width="8.6" height="13.1">
						<feColorMatrix  type="matrix" values="1 0 0 0 0  0 1 0 0 0  0 0 1 0 0  0 0 0 1 0"/>
					</filter>
				</defs>
				<mask maskUnits="userSpaceOnUse" x="33.2" y="57.5" width="8.6" height="13.1" id="mask-4_3_">
					<g class="st8">
						<polygon id="path-3_3_" class="st1" points="0,90.7 199,90.7 199,0.8 0,0.8 						"/>
					</g>
				</mask>
				<path id="Fill-31" class="st9" d="M34.3,63.2c1.1,0,2.2,0,3.2,0c0.2,0,0.4,0,0.5,0c1.3-0.2,1.9-0.9,1.9-2.2
					c0-1.3-0.5-2.2-1.6-2.3c-1.3-0.1-2.7,0-4.1,0V63.2z M34.3,69.3c1.4,0,2.8,0.1,4.2,0c1.1-0.1,1.8-0.8,1.9-1.9
					c0.2-2.1-0.6-3.1-2.6-3.1c-1,0-2,0-3.1,0c-0.1,0-0.3,0-0.4,0V69.3z M39.7,63.6c2.6,0.9,2.6,4.8,0.9,6c-0.5,0.4-1.2,0.7-1.8,0.7
					c-1.8,0.1-3.7,0.1-5.6,0.2v-13c0,0,0-0.1,0.1-0.1c1.7,0,3.4-0.1,5.1,0.1c1.6,0.1,2.5,1,2.8,2.4C41.5,61.5,41.1,62.6,39.7,63.6
					L39.7,63.6z"/>
				<defs>
					<filter id="Adobe_OpacityMaskFilter_4_" filterUnits="userSpaceOnUse" x="99.4" y="57.5" width="8.5" height="13">
						<feColorMatrix  type="matrix" values="1 0 0 0 0  0 1 0 0 0  0 0 1 0 0  0 0 0 1 0"/>
					</filter>
				</defs>
				<mask maskUnits="userSpaceOnUse" x="99.4" y="57.5" width="8.5" height="13" id="mask-4_4_">
					<g class="st10">
						<polygon id="path-3_4_" class="st1" points="0,90.7 199,90.7 199,0.8 0,0.8 						"/>
					</g>
				</mask>
				<path id="Fill-32" class="st11" d="M100.6,58.6v4.6c0.2,0,0.4,0,0.6,0c1,0,2,0,3,0c1.3-0.1,2-0.8,2.1-2.1c0-1.4-0.5-2.3-1.8-2.4
					C103.2,58.5,101.9,58.6,100.6,58.6L100.6,58.6z M100.6,64.3v5c1.3,0,2.6,0.1,3.9,0c1.4-0.1,2.1-0.9,2.1-2.3c0-0.3,0-0.5,0-0.8
					c-0.1-1.1-0.7-1.8-1.8-1.9C103.5,64.3,102.1,64.3,100.6,64.3L100.6,64.3z M99.4,57.5c0.6,0,1.1,0,1.6,0c1.3,0,2.6,0,3.9,0.2
					c2.2,0.3,3.3,2.8,2.2,4.8c-0.3,0.5-0.7,0.8-1.1,1.2c0.3,0.2,0.7,0.4,1,0.7c1,1.1,1.1,2.4,0.8,3.7c-0.3,1.3-1.2,1.9-2.4,2.3
					c-0.3,0.1-0.6,0.2-1,0.2c-1.6,0-3.3,0-5,0V57.5z"/>
				<defs>
					<filter id="Adobe_OpacityMaskFilter_5_" filterUnits="userSpaceOnUse" x="188.4" y="57.5" width="10.5" height="13">
						<feColorMatrix  type="matrix" values="1 0 0 0 0  0 1 0 0 0  0 0 1 0 0  0 0 0 1 0"/>
					</filter>
				</defs>
				<mask maskUnits="userSpaceOnUse" x="188.4" y="57.5" width="10.5" height="13" id="mask-4_5_">
					<g class="st12">
						<polygon id="path-3_5_" class="st1" points="0,90.7 199,90.7 199,0.8 0,0.8 						"/>
					</g>
				</mask>
				<path id="Fill-33" class="st13" d="M191.1,63.3h3.1v0.9h-3.1v5.2c1,0,1.9,0,2.9,0c1.7-0.1,2.8-1,3.3-2.6c0.6-1.9,0.6-3.8,0-5.7
					c-0.3-1-0.9-1.8-1.9-2.3c-1.4-0.6-2.8-0.3-4.3-0.4V63.3z M189.9,70.5v-6.3h-1.5v-0.9h1.5v-0.6c0-1.6,0-3.1,0-4.7
					c0-0.4,0.1-0.5,0.5-0.5c1.2,0,2.4,0,3.7,0c2.4,0.1,3.9,1.3,4.5,3.7c0.5,1.8,0.5,3.7,0,5.5c-0.6,2.4-1.9,3.5-4.5,3.7
					C192.8,70.6,191.4,70.5,189.9,70.5L189.9,70.5z"/>
				<defs>
					<filter id="Adobe_OpacityMaskFilter_6_" filterUnits="userSpaceOnUse" x="173.3" y="57.5" width="8.9" height="13">
						<feColorMatrix  type="matrix" values="1 0 0 0 0  0 1 0 0 0  0 0 1 0 0  0 0 0 1 0"/>
					</filter>
				</defs>
				<mask maskUnits="userSpaceOnUse" x="173.3" y="57.5" width="8.9" height="13" id="mask-4_6_">
					<g class="st14">
						<polygon id="path-3_6_" class="st1" points="0,90.7 199,90.7 199,0.8 0,0.8 						"/>
					</g>
				</mask>
				<path id="Fill-34" class="st15" d="M174.4,60.1v10.4h-1.1V57.5c0.5-0.2,0.9-0.1,1.2,0.4c2.1,3.2,4.2,6.4,6.3,9.5
					c0.1,0.1,0.2,0.3,0.4,0.4c0-0.2,0-0.3,0-0.5c0-3.1,0-6.1,0-9.2c0-0.8,0-0.8,0.8-0.8c0.1,0,0.2,0,0.3,0v13
					c-0.5,0.1-0.8,0.1-1.1-0.4c-2.1-3.2-4.2-6.4-6.3-9.6C174.7,60.3,174.6,60.2,174.4,60.1C174.5,60,174.5,60,174.4,60.1"/>
				<defs>
					<filter id="Adobe_OpacityMaskFilter_7_" filterUnits="userSpaceOnUse" x="55.7" y="57.4" width="9" height="13.1">
						<feColorMatrix  type="matrix" values="1 0 0 0 0  0 1 0 0 0  0 0 1 0 0  0 0 0 1 0"/>
					</filter>
				</defs>
				<mask maskUnits="userSpaceOnUse" x="55.7" y="57.4" width="9" height="13.1" id="mask-4_7_">
					<g class="st16">
						<polygon id="path-3_7_" class="st1" points="0,90.7 199,90.7 199,0.8 0,0.8 						"/>
					</g>
				</mask>
				<path id="Fill-35" class="st17" d="M56.8,63.6c1.4,0,2.7,0.1,4.1,0c1-0.1,1.6-0.7,1.7-1.6c0.1-0.6,0-1.2,0-1.8
					c-0.1-0.8-0.6-1.4-1.4-1.4c-1.4-0.2-2.9-0.2-4.4-0.2V63.6z M55.7,57.4c1.9,0.1,3.7,0,5.5,0.2c1.6,0.2,2.5,1.1,2.7,2.7
					c0.1,0.7,0,1.4-0.1,2.1c-0.2,1.1-0.8,1.6-2.2,2.2c0.5,1,1,1.9,1.5,2.9c0.5,1,1,1.9,1.6,3c-0.4,0-0.8,0-1.1,0
					c-0.1,0-0.3-0.2-0.4-0.4c-0.9-1.6-1.7-3.3-2.5-4.9c-0.2-0.3-0.3-0.4-0.7-0.4c-1,0-2,0-3.1,0v5.7h-1.2V57.4z"/>
				<defs>
					<filter id="Adobe_OpacityMaskFilter_8_" filterUnits="userSpaceOnUse" x="88.7" y="57.5" width="9" height="13.1">
						<feColorMatrix  type="matrix" values="1 0 0 0 0  0 1 0 0 0  0 0 1 0 0  0 0 0 1 0"/>
					</filter>
				</defs>
				<mask maskUnits="userSpaceOnUse" x="88.7" y="57.5" width="9" height="13.1" id="mask-4_8_">
					<g class="st18">
						<polygon id="path-3_8_" class="st1" points="0,90.7 199,90.7 199,0.8 0,0.8 						"/>
					</g>
				</mask>
				<path id="Fill-36" class="st19" d="M89.8,63.6c1.4,0,2.8,0.1,4.1,0c0.9-0.1,1.6-0.7,1.7-1.6c0.1-0.6,0.1-1.2,0-1.8
					c-0.1-0.8-0.6-1.4-1.5-1.5c-1.4-0.1-2.9-0.1-4.3-0.2V63.6z M97.6,70.4c-1,0.3-1.5-0.1-1.9-0.9c-0.7-1.5-1.5-2.9-2.2-4.3
					c-0.1-0.3-0.3-0.4-0.6-0.4c-1,0-2.1,0-3.2,0v5.7h-1.2v-13c0.2,0,0.4,0,0.6,0c1.4,0,2.8,0,4.2,0.1c0.5,0,1,0.2,1.5,0.3
					c0.3,0.1,0.7,0.3,0.9,0.6c1.8,1.6,1.1,5.2-1.1,6.1c-0.1,0-0.2,0.1-0.3,0.1C95.6,66.5,96.6,68.5,97.6,70.4L97.6,70.4z"/>
				<defs>
					<filter id="Adobe_OpacityMaskFilter_9_" filterUnits="userSpaceOnUse" x="109.8" y="57.3" width="9.8" height="13.4">
						<feColorMatrix  type="matrix" values="1 0 0 0 0  0 1 0 0 0  0 0 1 0 0  0 0 0 1 0"/>
					</filter>
				</defs>
				<mask maskUnits="userSpaceOnUse" x="109.8" y="57.3" width="9.8" height="13.4" id="mask-4_9_">
					<g class="st20">
						<polygon id="path-3_9_" class="st1" points="0,90.7 199,90.7 199,0.8 0,0.8 						"/>
					</g>
				</mask>
				<path id="Fill-37" class="st21" d="M118.4,64.3c-0.1-1.1-0.1-1.9-0.2-2.7c0-0.3-0.1-0.6-0.2-0.8c-0.5-1.6-1.5-2.4-3.3-2.4
					c-1.8,0-2.9,0.7-3.3,2.4c-0.5,2.1-0.5,4.3,0,6.4c0.4,1.7,1.5,2.4,3.3,2.4c1.8,0,2.9-0.8,3.3-2.4
					C118.2,66.1,118.3,65.1,118.4,64.3 M119.6,64c-0.1,0.9-0.1,1.9-0.3,2.9c-0.5,2.7-2.3,4-5,3.8c-2.3-0.2-3.6-1.3-4.1-3.6
					c-0.5-2.2-0.5-4.4,0.1-6.6c0.5-2,1.9-3.1,4-3.2c0.6,0,1.3,0,1.9,0.1c2,0.4,2.8,1.9,3.2,3.8C119.5,62.1,119.5,63.1,119.6,64"/>
				<defs>
					<filter id="Adobe_OpacityMaskFilter_10_" filterUnits="userSpaceOnUse" x="43.5" y="57.3" width="9.8" height="13.4">
						<feColorMatrix  type="matrix" values="1 0 0 0 0  0 1 0 0 0  0 0 1 0 0  0 0 0 1 0"/>
					</filter>
				</defs>
				<mask maskUnits="userSpaceOnUse" x="43.5" y="57.3" width="9.8" height="13.4" id="mask-4_10_">
					<g class="st22">
						<polygon id="path-3_10_" class="st1" points="0,90.7 199,90.7 199,0.8 0,0.8 						"/>
					</g>
				</mask>
				<path id="Fill-38" class="st23" d="M44.7,63.9c0.1,0.9,0.1,1.8,0.3,2.7c0.2,0.9,0.5,1.8,1.4,2.4c2,1.4,4.8,0.3,5.3-2
					c0.5-2,0.5-3.9,0-5.9c-0.4-1.9-1.5-2.8-3.4-2.7c-1.9,0-3,0.9-3.3,2.8C44.9,62.1,44.8,63,44.7,63.9 M43.5,63.5
					c0.2-0.9,0.3-2.2,0.6-3.4c0.5-1.8,1.8-2.6,3.6-2.8c0.5,0,1.1,0,1.6,0c1.9,0.2,3.1,1.4,3.5,3.2c0.5,2.3,0.6,4.6,0,6.8
					c-0.6,2.3-2.3,3.4-4.7,3.3c-2.6-0.2-4.1-1.5-4.4-4.2C43.6,65.6,43.6,64.8,43.5,63.5"/>
				<defs>
					<filter id="Adobe_OpacityMaskFilter_11_" filterUnits="userSpaceOnUse" x="66.1" y="57.3" width="9.1" height="13.4">
						<feColorMatrix  type="matrix" values="1 0 0 0 0  0 1 0 0 0  0 0 1 0 0  0 0 0 1 0"/>
					</filter>
				</defs>
				<mask maskUnits="userSpaceOnUse" x="66.1" y="57.3" width="9.1" height="13.4" id="mask-4_11_">
					<g class="st24">
						<polygon id="path-3_11_" class="st1" points="0,90.7 199,90.7 199,0.8 0,0.8 						"/>
					</g>
				</mask>
				<path id="Fill-39" class="st25" d="M74.9,59.1c-0.9-0.2-1.7-0.5-2.5-0.6c-0.6-0.1-1.2-0.1-1.8,0c-1.2,0.2-2.1,0.9-2.6,2
					c-0.9,2.3-0.9,4.7,0,7.1c0.5,1.2,1.4,2,2.8,2c1,0,2-0.1,2.9-0.2c0.1,0,0.3-0.2,0.3-0.4c0-1.4,0-2.7,0-4.2h-2.7v-1.1h3.8
					c0,0.1,0,0.3,0,0.4c0,1.8,0,3.6,0,5.4c0,0.3-0.1,0.5-0.4,0.6c-1.5,0.5-3.1,0.7-4.7,0.4c-1.7-0.3-2.9-1.3-3.4-2.9
					c-0.8-2.4-0.8-4.9,0-7.3c0.6-1.7,1.8-2.8,3.7-3c1.3-0.2,2.6,0,3.9,0.4c0.5,0.2,0.8,0.4,0.7,0.9C74.9,58.8,74.9,58.9,74.9,59.1"
					/>
				<defs>
					<filter id="Adobe_OpacityMaskFilter_12_" filterUnits="userSpaceOnUse" x="121.9" y="57.4" width="8.6" height="13.1">
						<feColorMatrix  type="matrix" values="1 0 0 0 0  0 1 0 0 0  0 0 1 0 0  0 0 0 1 0"/>
					</filter>
				</defs>
				<mask maskUnits="userSpaceOnUse" x="121.9" y="57.4" width="8.6" height="13.1" id="mask-4_12_">
					<g class="st26">
						<polygon id="path-3_12_" class="st1" points="0,90.7 199,90.7 199,0.8 0,0.8 						"/>
					</g>
				</mask>
				<path id="Fill-40" class="st27" d="M130.5,70.5c-0.5,0-0.9,0-1.3,0c-0.2,0-0.3-0.2-0.5-0.3c-1.4-1.8-2.8-3.7-4.2-5.6
					c-0.1-0.1-0.2-0.3-0.3-0.4c-0.6,0.7-1.3,1.2-1.2,2.2c0.1,1.3,0,2.7,0,4h-1.1V57.5c1.1-0.2,1.1-0.2,1.1,0.9v4.9v0.5
					c0.1,0,0.1,0.1,0.2,0.1c0.1-0.1,0.1-0.3,0.2-0.4c1.5-1.8,3-3.5,4.5-5.4c0.6-0.8,1.2-0.7,2.1-0.6c-1.7,2-3.3,3.9-5,5.8
					C126.8,65.7,128.6,68,130.5,70.5"/>
				<defs>
					<filter id="Adobe_OpacityMaskFilter_13_" filterUnits="userSpaceOnUse" x="151.9" y="57.3" width="10" height="13.2">
						<feColorMatrix  type="matrix" values="1 0 0 0 0  0 1 0 0 0  0 0 1 0 0  0 0 0 1 0"/>
					</filter>
				</defs>
				<mask maskUnits="userSpaceOnUse" x="151.9" y="57.3" width="10" height="13.2" id="mask-4_13_">
					<g class="st28">
						<polygon id="path-3_13_" class="st1" points="0,90.7 199,90.7 199,0.8 0,0.8 						"/>
					</g>
				</mask>
				<path id="Fill-41" class="st29" d="M156.9,59.2c-0.7,2.3-1.5,4.4-2.2,6.6h4.3C158.4,63.6,157.7,61.5,156.9,59.2 M161.9,70.5
					c-1.3,0.1-1.3,0.1-1.6-1c-0.2-0.8-0.5-1.5-0.7-2.3c-0.1-0.3-0.2-0.4-0.5-0.4c-1.4,0-2.8,0-4.2,0c-0.3,0-0.5,0.1-0.6,0.4
					c-0.3,0.9-0.6,1.8-0.9,2.8c-0.1,0.4-0.3,0.6-0.7,0.5c-0.2,0-0.5,0-0.8,0c0.2-0.5,0.3-1,0.5-1.4c1.3-3.8,2.6-7.5,3.9-11.3
					c0.1-0.3,0.2-0.5,0.6-0.5c0.4,0,0.5,0.1,0.6,0.5c1.4,4.1,2.8,8.2,4.3,12.3C161.9,70.2,161.9,70.3,161.9,70.5"/>
				<defs>
					<filter id="Adobe_OpacityMaskFilter_14_" filterUnits="userSpaceOnUse" x="131.4" y="57.3" width="10" height="13.2">
						<feColorMatrix  type="matrix" values="1 0 0 0 0  0 1 0 0 0  0 0 1 0 0  0 0 0 1 0"/>
					</filter>
				</defs>
				<mask maskUnits="userSpaceOnUse" x="131.4" y="57.3" width="10" height="13.2" id="mask-4_14_">
					<g class="st30">
						<polygon id="path-3_14_" class="st1" points="0,90.7 199,90.7 199,0.8 0,0.8 						"/>
					</g>
				</mask>
				<path id="Fill-42" class="st31" d="M138.5,65.8c-0.7-2.2-1.4-4.3-2.1-6.4c0,0-0.1,0-0.1,0c-0.7,2.1-1.4,4.2-2.1,6.4H138.5z
					 M131.4,70.5c0.1-0.4,0.2-0.7,0.4-1.1c1.4-3.9,2.7-7.8,4.1-11.7c0.1-0.3,0.3-0.5,0.6-0.5c0.4,0,0.5,0.2,0.6,0.5
					c1.4,4.1,2.8,8.1,4.2,12.2c0.1,0.2,0.1,0.3,0.2,0.5c-0.4,0-0.7,0-1.1,0c-0.1,0-0.3-0.2-0.3-0.3c-0.3-1-0.6-1.9-0.9-2.9
					c-0.1-0.4-0.3-0.4-0.6-0.4c-1.4,0-2.7,0-4.1,0c-0.4,0-0.5,0.1-0.6,0.4c-0.3,0.9-0.6,1.8-0.9,2.7c-0.1,0.4-0.3,0.6-0.7,0.5
					C131.9,70.5,131.7,70.5,131.4,70.5L131.4,70.5z"/>
				<defs>
					<filter id="Adobe_OpacityMaskFilter_15_" filterUnits="userSpaceOnUse" x="76.9" y="57.3" width="10" height="13.2">
						<feColorMatrix  type="matrix" values="1 0 0 0 0  0 1 0 0 0  0 0 1 0 0  0 0 0 1 0"/>
					</filter>
				</defs>
				<mask maskUnits="userSpaceOnUse" x="76.9" y="57.3" width="10" height="13.2" id="mask-4_15_">
					<g class="st32">
						<polygon id="path-3_15_" class="st1" points="0,90.7 199,90.7 199,0.8 0,0.8 						"/>
					</g>
				</mask>
				<path id="Fill-43" class="st33" d="M81.9,59.4c0,0-0.1,0-0.1,0c-0.7,2.1-1.4,4.2-2.1,6.4H84C83.3,63.6,82.6,61.5,81.9,59.4
					 M76.9,70.5c0.1-0.2,0.1-0.4,0.2-0.5c1.4-4.1,2.9-8.2,4.3-12.3c0.1-0.3,0.3-0.4,0.6-0.4c0.3,0,0.5,0.1,0.6,0.4
					c1.4,4.2,2.9,8.3,4.3,12.4c0,0.1,0.1,0.2,0.1,0.4h-1.3c-0.3-0.9-0.6-1.8-0.9-2.7c-0.3-1-0.3-1-1.3-1c-1.2,0-2.3,0-3.5,0
					c-0.4,0-0.5,0.1-0.6,0.4c-0.3,0.9-0.6,1.8-0.9,2.7c-0.1,0.4-0.3,0.6-0.7,0.5C77.4,70.5,77.1,70.5,76.9,70.5"/>
				<defs>
					<filter id="Adobe_OpacityMaskFilter_16_" filterUnits="userSpaceOnUse" x="142.4" y="57.3" width="8.5" height="13.4">
						<feColorMatrix  type="matrix" values="1 0 0 0 0  0 1 0 0 0  0 0 1 0 0  0 0 0 1 0"/>
					</filter>
				</defs>
				<mask maskUnits="userSpaceOnUse" x="142.4" y="57.3" width="8.5" height="13.4" id="mask-4_16_">
					<g class="st34">
						<polygon id="path-3_16_" class="st1" points="0,90.7 199,90.7 199,0.8 0,0.8 						"/>
					</g>
				</mask>
				<path id="Fill-44" class="st35" d="M142.5,68.9c0.4,0.1,0.8,0.3,1.2,0.4c1.3,0.3,2.6,0.5,3.9,0.2c1.8-0.4,2.7-2.4,1.8-4
					c-0.3-0.6-0.8-0.8-1.4-0.9c-0.8-0.2-1.6-0.3-2.4-0.4c-0.1,0-0.3-0.1-0.4-0.1c-2.1-0.5-2.8-1.3-2.8-3.2c0-1.8,1.2-3.1,3.1-3.4
					c1.3-0.2,2.5-0.1,3.8,0.2c1,0.3,1,0.3,0.9,1.4c-0.2-0.1-0.3-0.1-0.5-0.2c-1.3-0.5-2.7-0.6-4.1-0.3c-1.6,0.3-2.4,2.1-1.7,3.6
					c0.3,0.5,0.7,0.8,1.3,0.9c1,0.2,2,0.3,2.9,0.5c0.4,0.1,0.9,0.2,1.3,0.4c0.7,0.3,1.2,0.9,1.4,1.8c0.6,2.6-0.9,4.7-3.6,4.9
					c-1.3,0.1-2.6,0-3.8-0.3C142.3,70,142.4,70.2,142.5,68.9"/>
				<defs>
					<filter id="Adobe_OpacityMaskFilter_17_" filterUnits="userSpaceOnUse" x="163.8" y="57.5" width="7.3" height="13">
						<feColorMatrix  type="matrix" values="1 0 0 0 0  0 1 0 0 0  0 0 1 0 0  0 0 0 1 0"/>
					</filter>
				</defs>
				<mask maskUnits="userSpaceOnUse" x="163.8" y="57.5" width="7.3" height="13" id="mask-4_17_">
					<g class="st36">
						<polygon id="path-3_17_" class="st1" points="0,90.7 199,90.7 199,0.8 0,0.8 						"/>
					</g>
				</mask>
				<polygon id="Fill-45" class="st37" points="164.9,63.2 170.4,63.2 170.4,64.2 164.9,64.2 164.9,70.5 163.8,70.5 163.8,57.5 
					171,57.5 171,58.5 164.9,58.5 				"/>
				<defs>
					<filter id="Adobe_OpacityMaskFilter_18_" filterUnits="userSpaceOnUse" x="185.3" y="57.5" width="1.1" height="13">
						<feColorMatrix  type="matrix" values="1 0 0 0 0  0 1 0 0 0  0 0 1 0 0  0 0 0 1 0"/>
					</filter>
				</defs>
				<mask maskUnits="userSpaceOnUse" x="185.3" y="57.5" width="1.1" height="13" id="mask-4_18_">
					<g class="st38">
						<polygon id="path-3_18_" class="st1" points="0,90.7 199,90.7 199,0.8 0,0.8 						"/>
					</g>
				</mask>
				<polygon id="Fill-46" class="st39" points="185.3,70.5 186.4,70.5 186.4,57.5 185.3,57.5 				"/>
				<defs>
					<filter id="Adobe_OpacityMaskFilter_19_" filterUnits="userSpaceOnUse" x="114.3" y="54.8" width="2.4" height="1.8">
						<feColorMatrix  type="matrix" values="1 0 0 0 0  0 1 0 0 0  0 0 1 0 0  0 0 0 1 0"/>
					</filter>
				</defs>
				<mask maskUnits="userSpaceOnUse" x="114.3" y="54.8" width="2.4" height="1.8" id="mask-4_19_">
					<g class="st40">
						<polygon id="path-3_19_" class="st1" points="0,90.7 199,90.7 199,0.8 0,0.8 						"/>
					</g>
				</mask>
				<path id="Fill-47" class="st41" d="M116.7,54.8c-0.5,0.6-0.9,1.1-1.4,1.5c-0.2,0.2-0.6,0.2-0.9,0.2c0,0,0-0.1-0.1-0.1
					c0.2-0.5,0.5-1,0.7-1.5c0-0.1,0.2-0.2,0.3-0.2C115.7,54.8,116.1,54.8,116.7,54.8"/>
			</g>
		</g>
	</g>
</g>
</svg>
