<?xml version="1.0" encoding="UTF-8"?>
<svg width="10px" height="23px" viewBox="0 0 10 23" version="1.1" xmlns="http://www.w3.org/2000/svg" xmlns:xlink="http://www.w3.org/1999/xlink">
    <!-- Generator: Sketch 52.6 (67491) - http://www.bohemiancoding.com/sketch -->
    <title>Path Copy 2</title>
    <desc>Created with Sketch.</desc>
    <g id="design" stroke="none" stroke-width="1" fill="none" fill-rule="evenodd">
        <g id="event-details" transform="translate(-907.000000, -740.000000)" fill="#1809BA" fill-rule="nonzero">
            <g id="iconfinder_06-facebook_104498-(1)" transform="translate(907.000000, 740.000000)">
                <path d="M10,7.44750569 L6.59435139,7.44750569 L6.59435139,5.06038087 C6.59435139,4.16389981 7.15030292,3.95489547 7.54187455,3.95489547 C7.93255524,3.95489547 9.9452067,3.95489547 9.9452067,3.95489547 L9.9452067,0.0138066653 L6.635335,0 C2.96106557,0 2.12491091,2.93939143 2.12491091,4.82043055 L2.12491091,7.44750569 L0,7.44750569 L0,11.5085697 L2.12491091,11.5085697 C2.12491091,16.7203478 2.12491091,23 2.12491091,23 L6.59435139,23 C6.59435139,23 6.59435139,16.6584558 6.59435139,11.5085697 L9.61021026,11.5085697 L10,7.44750569 Z" id="Path-Copy-2"></path>
            </g>
        </g>
    </g>
</svg>