<?xml version="1.0" encoding="UTF-8"?>
<svg width="24px" height="24px" viewBox="0 0 24 24" version="1.1" xmlns="http://www.w3.org/2000/svg" xmlns:xlink="http://www.w3.org/1999/xlink">
    <!-- Generator: Sketch 58 (84663) - https://sketch.com -->
    <title>instagram</title>
    <desc>Created with Sketch.</desc>
    <g id="design" stroke="none" stroke-width="1" fill="none" fill-rule="evenodd">
        <g id="event-details" transform="translate(-900.000000, -789.000000)" fill="#1809BA" fill-rule="nonzero">
            <g id="instagram" transform="translate(900.000000, 789.000000)">
                <path d="M16.8502706,0 L7.14972942,0 C3.207352,0 0,3.207352 0,7.14972942 L0,16.8502706 C0,20.792648 3.207352,24 7.14972942,24 L16.8502706,24 C20.792648,24 24,20.792648 24,16.8502706 L24,7.14972942 C24,3.207352 20.7926044,0 16.8502706,0 Z M21.5856009,16.8502706 C21.5856009,19.4654994 19.4654994,21.5856009 16.8502706,21.5856009 L7.14972942,21.5856009 C4.53450059,21.5856009 2.41439911,19.4654994 2.41439911,16.8502706 L2.41439911,7.14972942 C2.41439911,4.53445704 4.53450059,2.41439911 7.14972942,2.41439911 L16.8502706,2.41439911 C19.4654994,2.41439911 21.5856009,4.53445704 21.5856009,7.14972942 L21.5856009,16.8502706 L21.5856009,16.8502706 Z" id="Shape"></path>
                <path d="M12,6 C8.69159469,6 6,8.69160413 6,11.9999789 C6,15.3083538 8.69159469,18 12,18 C15.3084053,18 18,15.3083959 18,11.9999789 C18,8.69156203 15.3084053,6 12,6 Z M12,15.6662492 C9.97518892,15.6662492 8.33378474,14.0248392 8.33378474,12.0000211 C8.33378474,9.97520287 9.97523103,8.33379293 12,8.33379293 C14.0248111,8.33379293 15.6662153,9.97520287 15.6662153,12.0000211 C15.6662153,14.0247971 14.024769,15.6662492 12,15.6662492 Z" id="Shape"></path>
                <circle id="Oval" cx="18.5" cy="5.5" r="1.5"></circle>
            </g>
        </g>
    </g>
</svg>