<?xml version="1.0" encoding="UTF-8"?>
<svg width="24px" height="24px" viewBox="0 0 24 24" version="1.1" xmlns="http://www.w3.org/2000/svg" xmlns:xlink="http://www.w3.org/1999/xlink">
    <!-- Generator: Sketch 52.6 (67491) - http://www.bohemiancoding.com/sketch -->
    <title>Shape</title>
    <desc>Created with Sketch.</desc>
    <g id="design" stroke="none" stroke-width="1" fill="none" fill-rule="evenodd">
        <g id="event-details" transform="translate(-902.000000, -558.000000)" fill="#1809BA" fill-rule="nonzero">
            <g id="item-copy-5" transform="translate(151.000000, 191.000000)">
                <g id="Group">
                    <g id="iconfinder_038_026_share_link_friends_android_material_1646925" transform="translate(748.000000, 367.000000)">
                        <g id="iconfinder_link5_216660" transform="translate(3.000000, 0.000000)">
                            <path d="M8.7894,19.0413138 L7.575,20.2473105 C6.5223,21.2907075 4.8102,21.2916075 3.7581,20.2473105 C3.2523,19.7454119 2.9745,19.0788137 2.9745,18.3702157 C2.9745,17.6616177 3.2526,16.9947195 3.7578,16.4928209 L8.2278,12.0579333 C9.1542,11.1393358 10.8969,9.78663959 12.1671,11.0463361 C12.75,11.6253345 13.6914,11.6214345 14.2701,11.0388361 C14.8491,10.4562377 14.8455,9.51454035 14.2626,8.93614196 C12.1035,6.79354793 8.9124,7.18954682 6.1332,9.94713914 L1.6629,14.3823268 C0.5904,15.4470238 0,16.8630199 0,18.3702157 C0,19.8774115 0.5904,21.2931075 1.6632,22.3578046 C2.7669,23.4528015 4.2162,24 5.6661,24 C7.1163,24 8.5662,23.4528015 9.6705,22.3572046 L10.8858,21.1509079 C11.4684,20.5725095 11.4717,19.6311122 10.8927,19.0482138 C10.3146,18.4659154 9.3723,18.4626154 8.7894,19.0413138 Z M22.3362,1.8132618 C20.0172,-0.487731793 16.7748,-0.612531445 14.628,1.51746262 L13.1142,3.02015844 C12.5313,3.59885682 12.5277,4.5399542 13.1067,5.12285258 C13.6857,5.70575096 14.6271,5.70905095 15.21,5.13035256 L16.7232,3.62855674 C17.8353,2.52425982 19.2915,2.98205854 20.2413,3.92435592 C20.7477,4.42625452 21.0258,5.09315266 21.0258,5.80175069 C21.0258,6.51064871 20.7474,7.17754686 20.2419,7.67944546 L15.4728,12.4104323 C13.2921,14.5740263 12.2691,13.5585291 11.8326,13.1253303 C11.2497,12.5466319 10.3086,12.5502319 9.7296,13.1328303 C9.1506,13.7154286 9.1542,14.657126 9.7371,15.2355244 C10.7382,16.2291216 11.8809,16.7217203 13.0788,16.7217203 C14.5455,16.7217203 16.0947,15.9831223 17.5677,14.5206264 L22.3368,9.78963958 C23.409,8.72494255 24,7.30864649 24,5.80145069 C24,4.29485489 23.409,2.87855883 22.3362,1.8132618 Z" id="Shape"></path>
                        </g>
                    </g>
                </g>
            </g>
        </g>
    </g>
</svg>