<?xml version="1.0" encoding="UTF-8"?>
<svg width="30px" height="38px" viewBox="0 0 30 38" version="1.1" xmlns="http://www.w3.org/2000/svg" xmlns:xlink="http://www.w3.org/1999/xlink">
    <!-- Generator: Sketch 52.6 (67491) - http://www.bohemiancoding.com/sketch -->
    <title>Group 5</title>
    <desc>Created with Sketch.</desc>
    <g id="design" stroke="none" stroke-width="1" fill="none" fill-rule="evenodd">
        <g id="event-details" transform="translate(-907.000000, -202.000000)" fill="#EAEAFF">
            <g id="Group-5" transform="translate(907.000000, 202.000000)">
                <path d="M14.8620699,3.75442924 L14.8398346,3.75442924 C9.05495253,3.76739983 4.48374686,8.39419374 4.20765863,14.520017 C3.913041,20.999752 10.9393936,29.021134 14.8713346,32.7288691 C17.8842168,29.743781 25.5331577,21.470399 25.5164812,14.3847523 C25.5053635,8.51834079 20.7266285,3.75442924 14.8620699,3.75442924 M14.9083934,37.1073689 C14.480364,37.1073689 14.0523347,36.9591336 13.7058347,36.664516 C13.1462465,36.1864572 0.0274235282,24.86684 0.503629389,14.3532523 C0.868658784,6.34669383 7.16124673,0.0652235264 14.8324229,0.0485470566 L14.8620699,0.0485470566 C22.7667166,0.0485470566 29.2056869,6.47084088 29.2223634,14.3773405 C29.2464516,24.8168106 16.6760992,36.1586631 16.1424522,36.6367219 C15.7903934,36.9498689 15.3493934,37.1073689 14.9083934,37.1073689" id="Fill-1"></path>
                <path d="M14.8720758,9.31325252 C11.8073112,9.31325252 9.31325252,11.8073112 9.31325252,14.8720758 C9.31325252,17.9368404 11.8073112,20.4308991 14.8720758,20.4308991 C17.9368404,20.4308991 20.4308991,17.9368404 20.4308991,14.8720758 C20.4308991,11.8073112 17.9368404,9.31325252 14.8720758,9.31325252 M14.8720758,13.0191347 C15.8948993,13.0191347 16.7250169,13.8473994 16.7250169,14.8720758 C16.7250169,15.8967522 15.8948993,16.7250169 14.8720758,16.7250169 C13.8492523,16.7250169 13.0191347,15.8967522 13.0191347,14.8720758 C13.0191347,13.8473994 13.8492523,13.0191347 14.8720758,13.0191347" id="Fill-3"></path>
            </g>
        </g>
    </g>
</svg>