<?xml version="1.0" encoding="utf-8"?>
<!-- Generator: Adobe Illustrator 21.1.0, SVG Export Plug-In . SVG Version: 6.00 Build 0)  -->
<svg version="1.1" id="Layer_1" xmlns="http://www.w3.org/2000/svg" xmlns:xlink="http://www.w3.org/1999/xlink" x="0px" y="0px"
	 width="368.5px" height="78.4px" viewBox="0 0 368.5 78.4" enable-background="new 0 0 368.5 78.4" xml:space="preserve">
<g>
	<g>
		<g>
			<g>
				<g>
					<polygon fill="#474748" points="127.8,6.2 137,28.8 139.3,28.8 148.5,6.2 148.5,28.8 150.9,28.8 150.9,1.6 147.9,1.6 
						138.2,25.7 128.4,1.6 125.5,1.6 125.5,28.8 127.8,28.8 					"/>
					<path fill="#474748" d="M164.3,29.1c5.2,0,7.8-2,7.8-5.8V23h-2.3v0.3c0,2.4-1.7,3.5-5.5,3.5c-5.4,0-6-2.1-6-7.3h14.1v-0.3
						c0-6-0.6-10.3-8.2-10.3c-7.6,0-8.2,4.4-8.2,10.2C155.9,25.9,157.2,29.1,164.3,29.1z M164.2,11.1c4.4,0,5.8,1.5,5.9,6.1h-11.7
						C158.4,12.7,159.9,11.1,164.2,11.1z"/>
					<path fill="#474748" d="M189.3,18.3v10.5h2.4V17.7c0-3.3,0-5.4-1.7-7.1c-1.2-1.2-3-1.7-5.6-1.7c-2.7,0-4.8,0.8-6.1,2.4V9.2H176
						v19.7h2.4v-9.3c0-2.7,0-5.4,1.6-7c0.9-0.9,2.4-1.4,4.4-1.4c1.8,0,3,0.3,3.8,1.1C189.3,13.3,189.3,14.9,189.3,18.3z"/>
					<path fill="#474748" d="M204.2,8.8c-2.7,0-4.8,0.8-6.1,2.4v-2h-2.3v19.7h2.4v-9.3c0-2.7,0-5.4,1.6-7c0.9-0.9,2.4-1.4,4.4-1.4
						c1.8,0,3,0.3,3.8,1.1c1.1,1.1,1.1,2.6,1.1,6.1v10.5h2.4V17.7c0-3.3,0-5.4-1.7-7.1C208.6,9.4,206.8,8.8,204.2,8.8z"/>
					<path fill="#474748" d="M217.5,4.6c1,0,1.6-0.6,1.6-1.7c0-1-0.6-1.6-1.6-1.6c-1.1,0-1.6,0.5-1.6,1.6S216.5,4.6,217.5,4.6z"/>
					<rect x="216.3" y="9.2" fill="#474748" width="2.4" height="19.7"/>
					<path fill="#474748" d="M237.1,18.3v10.5h2.4V17.7c0-3.3,0-5.4-1.7-7.1c-1.2-1.2-3-1.7-5.6-1.7c-2.7,0-4.8,0.8-6.1,2.4V9.2
						h-2.3v19.7h2.4v-9.3c0-2.7,0-5.4,1.6-7c0.9-0.9,2.4-1.4,4.4-1.4c1.8,0,3,0.3,3.8,1.1C237.1,13.3,237.1,14.9,237.1,18.3z"/>
					<path fill="#474748" d="M258,11.2c-1.4-1.6-3.5-2.4-6.4-2.4c-7.3,0-7.9,4.3-7.9,10c0,5.9,0.6,10.1,7.9,10.1
						c2.9,0,4.9-0.8,6.3-2.4c0,0.2,0,0.4,0,0.6c0,1.6,0,3.3-0.6,4.7c-0.8,1.6-2.6,2.4-5.6,2.4c-3.5,0-5.3-1.2-5.3-3.5v-0.3h-2.3v0.3
						c0,2.7,1.4,5.8,7.7,5.8c3.9,0,6.5-1.3,7.6-3.7c0.7-1.6,0.9-3.3,0.9-6V9.2H258V11.2z M251.4,11.2c5,0,6.5,1.8,6.5,7.7
						s-1.5,7.7-6.5,7.7c-5.1,0-5.3-2.9-5.3-7.7C246.1,14.1,246.4,11.2,251.4,11.2z"/>
					<path fill="#474748" d="M273.3,8.8c-3.6,0-8.3,0.6-8.3,5.9V15h2.3v-0.3c0-3.1,2.7-3.5,5.7-3.5c5.6,0,5.6,1.6,5.6,5.2v0.5h-6.4
						c-4.7,0-7.7,1-7.7,6.2c0,4.1,2.3,6,7.5,6c3.1,0,5.4-0.8,6.7-2.4v2.2h2.3V17.4v-0.8c0-2.3,0-4.6-1.4-6
						C278.3,9.4,276.3,8.8,273.3,8.8z M272,19.1h6.6c0,2.9-0.2,4.9-1.4,6.2c-1,1.1-2.7,1.5-5.3,1.5c-3.6,0-4.9-1-4.9-3.8
						C266.9,19.7,268.5,19.1,272,19.1z"/>
					<path fill="#474748" d="M294.5,8.8c-2.5,0-4.3,0.8-5.5,2.3v-2h-2.3v19.7h2.4v-9.2c0-2.6,0-5.6,1.6-7.2c0.8-0.8,2.1-1.3,3.7-1.3
						c3,0,4.1,1,4.1,3.5V15h2.3v-0.3C300.7,10.8,298.5,8.8,294.5,8.8z"/>
					<polygon fill="#474748" points="319.4,9.2 315.9,9.2 306.2,17 306.2,0.5 303.8,0.5 303.8,28.8 306.2,28.8 306.2,19.7 316,28.8 
						319.4,28.8 308,18.3 					"/>
					<path fill="#474748" d="M328.7,8.8c-7.9,0-8.5,4.4-8.5,10.2c0,5.7,0.6,10.1,8.5,10.1s8.5-4.4,8.5-10.1
						C337.2,13.2,336.6,8.8,328.7,8.8z M328.7,26.8c-5.8,0-6.1-2.5-6.1-7.8c0-5.1,0.3-7.8,6.1-7.8c5.8,0,6.1,2.7,6.1,7.8
						C334.8,24.3,334.6,26.8,328.7,26.8z"/>
					<path fill="#474748" d="M349.6,8.8c-2.5,0-4.3,0.8-5.5,2.3v-2h-2.3v19.7h2.4v-9.2c0-2.6,0-5.6,1.6-7.2c0.8-0.8,2.1-1.3,3.7-1.3
						c3,0,4.1,1,4.1,3.5V15h2.3v-0.3C355.8,10.8,353.6,8.8,349.6,8.8z"/>
					<path fill="#474748" d="M141.6,56.9c1.8-0.9,2.7-2.9,2.7-5.9c0-7.5-4.4-7.5-9-7.5h-9.9v27.2h2.4V58.1h6.2
						c7.4,0,7.8,0.3,7.8,6.3v6.3h2.4v-6.4c0-0.2,0-0.5,0-0.7C144.4,61.2,144.4,58.1,141.6,56.9z M141.9,50.9c0,2.2-0.5,3.5-1.5,4.2
						s-2.6,0.7-4.2,0.7l0,0h-8.3v-10h7.5C139.6,45.7,141.9,46,141.9,50.9z"/>
					<path fill="#474748" d="M156.3,50.7c-7.6,0-8.2,4.4-8.2,10.2c0,6.8,1.3,10.1,8.4,10.1c5.2,0,7.8-2,7.8-5.8v-0.3H162v0.3
						c0,2.4-1.7,3.5-5.5,3.5c-5.4,0-6-2.1-6-7.3h14.1V61C164.5,54.9,163.9,50.7,156.3,50.7z M150.4,59.1c0.1-4.6,1.6-6.1,5.8-6.1
						c4.4,0,5.8,1.5,5.9,6.1H150.4z"/>
					<polygon fill="#474748" points="174.8,67.1 168.9,51 166.4,51 173.5,70.3 170.5,78.3 173,78.3 183,51 180.5,51 					"/>
					<polygon fill="#474748" points="202.2,70.7 190.8,60.1 202.1,51 198.7,51 189,58.8 189,42.3 186.6,42.3 186.6,70.7 189,70.7 
						189,61.5 198.8,70.7 					"/>
					<path fill="#474748" d="M207.3,43.2c-1.1,0-1.6,0.5-1.6,1.6s0.6,1.7,1.6,1.7s1.6-0.6,1.6-1.7C208.9,43.8,208.3,43.2,207.3,43.2
						z"/>
					<path fill="#474748" d="M221.7,50.7c-3.6,0-8.3,0.6-8.3,5.9v0.3h2.3v-0.3c0-3.1,2.7-3.5,5.7-3.5c5.6,0,5.6,1.6,5.6,5.2v0.5
						h-6.4c-4.7,0-7.7,1-7.7,6.2c0,4.1,2.3,6,7.5,6c3.1,0,5.4-0.8,6.7-2.4v2.2h2.3V59.3v-0.8c0-2.3,0-4.6-1.4-6
						C226.7,51.3,224.7,50.7,221.7,50.7z M220.4,61h6.6c0,2.9-0.2,4.9-1.4,6.2c-1,1.1-2.7,1.5-5.3,1.5c-3.6,0-4.9-1-4.9-3.8
						C215.3,61.6,216.9,61,220.4,61z"/>
					<polygon fill="#474748" points="240.8,67.4 234.6,51 232,51 239.6,70.7 242,70.7 249.5,51 247,51 					"/>
					<polygon fill="#474748" points="252.4,47.9 255.2,47.9 259.7,43 256.8,43 					"/>
					<rect x="253.7" y="51" fill="#474748" width="2.4" height="19.7"/>
					<polygon fill="#474748" points="278.1,51 274.6,51 264.9,58.8 264.9,42.3 262.5,42.3 262.5,70.7 264.9,70.7 264.9,61.5 
						274.7,70.7 278.1,70.7 266.7,60.1 					"/>
					<path fill="#474748" d="M294.4,60.3c0,2.7,0,5.4-1.6,7c-0.9,0.9-2.4,1.4-4.4,1.4c-1.8,0-3-0.3-3.8-1.1
						c-1.1-1.1-1.1-2.6-1.1-6.1V51h-2.4v11.1c0,3.3,0,5.4,1.7,7.1c1.2,1.2,3,1.7,5.6,1.7c2.7,0,4.8-0.8,6.1-2.4v2.1h2.3V51h-2.4
						L294.4,60.3L294.4,60.3z"/>
					<path fill="#474748" d="M309.3,50.7c-2.5,0-4.3,0.8-5.5,2.3v-2h-2.3v19.7h2.4v-9.2c0-2.6,0-5.6,1.6-7.2
						c0.8-0.8,2.1-1.3,3.7-1.3c3,0,4.1,1,4.1,3.5v0.3h2.3v-0.3C315.5,52.7,313.4,50.7,309.3,50.7z"/>
				</g>
				<path fill="#474748" d="M206.1,51v20.9c0,1.1-0.1,2.3-0.8,3c-0.8,0.8-2.1,1.2-3.6,1.2c-0.5,0-0.9,0-1.3-0.1v2.3
					c0.4,0,0.8,0.1,1.3,0.1c4.4,0,6.8-2.1,6.8-6V51H206.1z"/>
				<path fill="#474748" d="M362.6,23.3V11.4h5.3V9.2h-5.3V1.6h-2.4v7.5h-3.3v2.2h3.3v11.9c0,4,1.9,5.8,6.3,5.8c0.7,0,1.4-0.1,2-0.2
					v-2.3c-0.5,0.1-1.2,0.2-1.9,0.2C363.6,26.8,362.6,25.9,362.6,23.3z"/>
			</g>
		</g>
	</g>
	<g>
		<g>
			<path fill="#71C1F1" d="M45.1,42.6c0,1.4-0.7,2-1.8,1.5l-18.2-7.8c-1.3-0.5-1.7-1.7-1.9-3.1L20.8,1.8c-0.2-1.3,0.7-2.1,1.9-1.7
				l21.1,8.1c1,0.4,1.4,1.2,1.4,2.8v31.6H45.1z"/>
			<path fill="#147CC1" d="M8.3,69.4c0.3,1.5,0.9,2.4,2.2,2.3s9.6-0.6,10.7-0.8c1.2-0.1,1.8-1.8,1.6-3.7c-0.2-1.9-5.3-65.1-5.3-65.1
				c-0.2-1.5-1.2-2-2.4-1.4L1.7,8.6C0.5,9.2-0.2,10.9,0,12.4L8.3,69.4z"/>
		</g>
		<path fill="#147CC1" d="M48.3,42.6c0,1.4,0.7,2,1.8,1.5l18.2-7.8c1.3-0.5,1.7-1.7,1.9-3.1l2.5-31.5C72.9,0.4,72-0.4,70.8,0
			l-21,8.2c-1,0.4-1.4,1.2-1.4,2.8L48.3,42.6L48.3,42.6z"/>
		<path fill="#71C1F1" d="M85.1,69.4c-0.3,1.5-0.9,2.4-2.2,2.3c-1.3-0.1-9.6-0.6-10.7-0.8c-1.2-0.1-1.8-1.8-1.6-3.7
			c0.2-1.9,5.3-65.1,5.3-65.1c0.2-1.5,1.2-2,2.4-1.4l13.5,7.8c1.2,0.6,1.9,2.3,1.7,3.8L85.1,69.4z"/>
	</g>
	<path fill="#474748" d="M358.8,41.5h-9.7v18.2c0.5,5.2,5.1,9.8,9.6,11.9c4.6-2.1,9.2-6.7,9.7-11.9V41.5H358.8z M352.8,41.9h3v3h-3
		V41.9z M352.4,55.3l-1.5-1l-1.5,1v-1.5l1.5-1l1.5,1V55.3z M352.4,52.3l-1.5-1l-1.5,1v-1.5l1.5-1l1.5,1V52.3z M352.4,49.3l-1.5-1
		l-1.5,1v-1.5l1.5-1l1.5,1V49.3z M355.8,69.4c-0.8-0.5-2.2-1.8-3-2.6V46.3h3V69.4z M355.8,46h-3v-0.7h3V46z M361.4,55.3l-1.5-1
		l-1.1,0.8l-1.1-0.8l-1.5,1v-1.5l1.5-1l1.1,0.8l1.1-0.8l1.5,1V55.3z M361.4,52.3l-1.5-1l-1.1,0.8l-1.1-0.8l-1.5,1v-1.5l1.5-1
		l1.1,0.8l1.1-0.8l1.5,1V52.3z M361.4,49.3l-1.5-1l-1.1,0.8l-1.1-0.8l-1.5,1v-1.5l1.5-1l1.1,0.8l1.1-0.8l1.5,1V49.3z M364.7,66.8
		c-0.7,0.8-2.2,2.1-3,2.6V46.3h3V66.8z M364.7,46h-3v-0.7h3V46z M364.7,44.9h-3v-3h3V44.9z M368.1,55.3l-1.5-1l-1.5,1v-1.5l1.5-1
		l1.5,1V55.3z M368.1,52.3l-1.5-1l-1.5,1v-1.5l1.5-1l1.5,1V52.3z M368.1,49.3l-1.5-1l-1.5,1v-1.5l1.5-1l1.5,1V49.3z"/>
</g>
</svg>
