<?xml version="1.0" encoding="UTF-8"?>
<svg width="22px" height="24px" viewBox="0 0 22 24" version="1.1" xmlns="http://www.w3.org/2000/svg" xmlns:xlink="http://www.w3.org/1999/xlink">
    <!-- Generator: Sketch 52.6 (67491) - http://www.bohemiancoding.com/sketch -->
    <title>Path</title>
    <desc>Created with Sketch.</desc>
    <g id="design" stroke="none" stroke-width="1" fill="none" fill-rule="evenodd">
        <g id="event-details" transform="translate(-899.000000, -604.000000)" fill="#1809BA" fill-rule="nonzero">
            <g id="item-copy-5" transform="translate(151.000000, 191.000000)">
                <g id="Group">
                    <g id="iconfinder_038_026_share_link_friends_android_material_1646925" transform="translate(748.000000, 367.000000)">
                        <path d="M17.4751813,60.6668713 C16.151025,60.6706604 14.895862,61.2764265 14.0446447,62.322515 L8.91713311,59.1497312 C9.12355165,58.3982042 9.12355165,57.6023219 8.91713311,56.8507949 L14.0446447,53.6780111 C15.4699504,55.3806384 17.8736197,55.7847667 19.7494646,54.6371608 C21.6253095,53.489555 22.4337841,51.1202989 21.6682817,49.0140167 C20.9027792,46.9077345 18.78348,45.6702523 16.6383799,46.0770018 C14.4932798,46.4837512 12.9393702,48.4177396 12.9503626,50.6670905 C12.9576145,50.8498494 12.9754265,51.0319997 13.0037037,51.2125718 L7.58684934,54.5644984 C5.78340044,52.8549239 2.98830917,52.9358538 1.28070393,54.7470884 C-0.426901309,56.5583229 -0.426901309,59.4421098 1.28070393,61.2533444 C2.98830917,63.0645789 5.78340044,63.1455088 7.58684934,61.4359344 L13.0037037,64.7878609 C12.9754229,64.9684638 12.9576109,65.1506455 12.9503626,65.3334356 C12.9503626,67.910708 14.9761929,70 17.4751813,70 C19.9741697,70 22,67.910708 22,65.3334356 C22,62.7561633 19.9741697,60.6668713 17.4751813,60.6668713 Z" id="Path"></path>
                    </g>
                </g>
            </g>
        </g>
    </g>
</svg>