<?xml version="1.0" encoding="UTF-8"?>
<svg width="21px" height="17px" viewBox="0 0 21 17" version="1.1" xmlns="http://www.w3.org/2000/svg" xmlns:xlink="http://www.w3.org/1999/xlink">
    <!-- Generator: Sketch 52.6 (67491) - http://www.bohemiancoding.com/sketch -->
    <title>Shape</title>
    <desc>Created with Sketch.</desc>
    <g id="design" stroke="none" stroke-width="1" fill="none" fill-rule="evenodd">
        <g id="event-details" transform="translate(-901.000000, -656.000000)" fill="#1809BA" fill-rule="nonzero">
            <g id="iconfinder_external-link_1608686" transform="translate(901.583333, 656.000000)">
                <path d="M15.3846154,10.3264463 L15.3846154,13.838843 C15.3846154,14.7096247 15.0768502,15.4541796 14.4613199,16.0725077 C13.8457896,16.6908359 13.1046037,17 12.2377622,17 L3.14685315,17 C2.28001166,17 1.53882576,16.6908359 0.923295455,16.0725077 C0.307765152,15.4541796 0,14.7096247 0,13.838843 L0,4.70661157 C0,3.83582989 0.307765152,3.09127497 0.923295455,2.4729468 C1.53882576,1.85461863 2.28001166,1.54545455 3.14685315,1.54545455 L10.8391608,1.54545455 C10.9411422,1.54545455 11.0249126,1.57838326 11.090472,1.6442407 C11.1560315,1.71009814 11.1888112,1.79424931 11.1888112,1.89669421 L11.1888112,2.59917355 C11.1888112,2.70161846 11.1560315,2.78576963 11.090472,2.85162707 C11.0249126,2.9174845 10.9411422,2.95041322 10.8391608,2.95041322 L3.14685315,2.95041322 C2.66608392,2.95041322 2.25451632,3.12237431 1.91215035,3.46629649 C1.56978438,3.81021866 1.3986014,4.22365702 1.3986014,4.70661157 L1.3986014,13.838843 C1.3986014,14.3217975 1.56978438,14.7352359 1.91215035,15.0791581 C2.25451632,15.4230802 2.66608392,15.5950413 3.14685315,15.5950413 L12.2377622,15.5950413 C12.7185315,15.5950413 13.1300991,15.4230802 13.472465,15.0791581 C13.814831,14.7352359 13.986014,14.3217975 13.986014,13.838843 L13.986014,10.3264463 C13.986014,10.2240014 14.0187937,10.1398502 14.0843531,10.0739928 C14.1499126,10.0081353 14.233683,9.97520661 14.3356643,9.97520661 L15.034965,9.97520661 C15.1369464,9.97520661 15.2207168,10.0081353 15.2862762,10.0739928 C15.3518357,10.1398502 15.3846154,10.2240014 15.3846154,10.3264463 Z M20,0.714790178 L20,6.4331116 C20,6.62670061 19.9295856,6.79422956 19.7887569,6.93569845 C19.6479281,7.07716734 19.4811572,7.14790178 19.2884442,7.14790178 C19.0957311,7.14790178 18.9289602,7.07716734 18.7881315,6.93569845 L16.8313529,4.97002546 L9.58237788,12.2519504 C9.50825748,12.3264077 9.42301902,12.3636364 9.3266625,12.3636364 C9.23030598,12.3636364 9.14506752,12.3264077 9.07094712,12.2519504 L7.80348829,10.9787304 C7.72936789,10.9042731 7.69230769,10.8186472 7.69230769,10.7218527 C7.69230769,10.6250582 7.72936789,10.5394323 7.80348829,10.464975 L15.0524633,3.18305001 L13.0956848,1.21737702 C12.954856,1.07590813 12.8844417,0.908379185 12.8844417,0.714790178 C12.8844417,0.521201172 12.954856,0.353672224 13.0956848,0.212203334 C13.2365136,0.0707344447 13.4032845,0 13.5959975,0 L19.2884442,0 C19.4811572,0 19.6479281,0.0707344447 19.7887569,0.212203334 C19.9295856,0.353672224 20,0.521201172 20,0.714790178 Z" id="Shape"></path>
            </g>
        </g>
    </g>
</svg>