<?xml version="1.0" encoding="UTF-8"?>
<svg width="24px" height="18px" viewBox="0 0 24 18" version="1.1" xmlns="http://www.w3.org/2000/svg" xmlns:xlink="http://www.w3.org/1999/xlink">
    <!-- Generator: Sketch 52.6 (67491) - http://www.bohemiancoding.com/sketch -->
    <title>iconfinder_youtube_317714</title>
    <desc>Created with Sketch.</desc>
    <defs>
        <path d="M23.759925,3.88425 C23.759925,3.88425 24,5.955 24,8.0265 L24,9.9675 C24,12.039 23.759925,14.10975 23.759925,14.10975 C23.759925,14.10975 23.5251016,15.87375 22.806377,16.64925 C21.8933417,17.66775 20.8707721,17.67375 20.4018756,17.73375 C17.043076,17.991 12,18 12,18 C12,18 5.75954986,17.93925 3.83969991,17.74275 C3.30553298,17.63625 2.10740857,17.667 1.19362301,16.6485 C0.474148171,15.873 0.240075023,14.109 0.240075023,14.109 C0.240075023,14.109 0,12.039 0,9.96675 L0,8.02575 C0,5.955 0.240075023,3.88425 0.240075023,3.88425 C0.240075023,3.88425 0.474898406,2.1195 1.19362301,1.3425 C2.10740857,0.324 3.12922788,0.318 3.59812441,0.26025 C6.9561738,9.692247e-14 11.9939981,9.692247e-14 11.9939981,9.692247e-14 L12.0052516,9.692247e-14 C12.0052516,9.692247e-14 17.043076,9.692247e-14 20.4018756,0.26025 C20.8707721,0.318 21.8933417,0.324 22.806377,1.3425 C23.5258518,2.1195 23.759925,3.88425 23.759925,3.88425 Z M10,4 L10,14 L17,9 L10,4 Z" id="path-1"></path>
    </defs>
    <g id="design" stroke="none" stroke-width="1" fill="none" fill-rule="evenodd">
        <g id="event-details" transform="translate(-900.000000, -699.000000)">
            <g id="iconfinder_youtube_317714" transform="translate(900.000000, 699.000000)">
                <g id="Path">
                    <g>
                        <g>
                            <mask id="mask-2" fill="white">
                                <use xlink:href="#path-1"></use>
                            </mask>
                            <use id="Combined-Shape" fill="#1809BA" fill-rule="nonzero" xlink:href="#path-1"></use>
                        </g>
                    </g>
                </g>
            </g>
        </g>
    </g>
</svg>