<svg xmlns="http://www.w3.org/2000/svg" viewBox="0 0 28.75 28.75"><defs><style>.cls-1{fill:#272525;}.cls-2{fill:#fff;}.cls-3{fill:none;}.cls-4{fill:#b82737;}</style></defs><title>tvibuar</title><g id="Layer_2" data-name="Layer 2"><g id="Layer_1-2" data-name="Layer 1"><path class="cls-1" d="M14.38,28A13.67,13.67,0,1,0,.71,14.37,13.68,13.68,0,0,0,14.38,28"/><path class="cls-2" d="M14.38,28.75A14.38,14.38,0,1,1,28.75,14.37,14.4,14.4,0,0,1,14.38,28.75Zm0-27.33a13,13,0,1,0,12.95,13A13,13,0,0,0,14.38,1.42Z"/><rect class="cls-3" x="4.47" y="2.99" width="17.96" height="19.49"/><polygon class="cls-2" points="15.27 18.34 7.76 18.34 13.26 11.99 8.27 11.99 8.27 10.99 15.45 10.99 9.94 17.34 15.27 17.34 15.27 18.34"/><polygon class="cls-2" points="20.94 19.39 16.22 19.39 19.16 15.99 16.81 15.99 16.81 15 21.35 15 18.41 18.39 20.94 18.39 20.94 19.39"/><polygon class="cls-4" points="19.86 13.2 15.5 13.2 17.64 10.73 15.6 10.73 15.6 9.73 19.83 9.73 17.68 12.21 19.86 12.21 19.86 13.2"/></g></g></svg>