<?xml version="1.0" encoding="UTF-8"?>
<svg width="199px" height="91px" viewBox="0 0 199 91" version="1.1" xmlns="http://www.w3.org/2000/svg" xmlns:xlink="http://www.w3.org/1999/xlink">
    <!-- Generator: Sketch 57.1 (83088) - https://sketch.com -->
    <title>Group 49</title>
    <desc>Created with Sketch.</desc>
    <defs>
        <polygon id="path-1" points="0 0.270633723 24.9345761 0.270633723 24.9345761 52.6524345 0 52.6524345"></polygon>
        <polygon id="path-3" points="0 90.7294818 198.970274 90.7294818 198.970274 0.827272727 0 0.827272727"></polygon>
    </defs>
    <g id="design" stroke="none" stroke-width="1" fill="none" fill-rule="evenodd">
        <g id="places-details" transform="translate(-212.000000, -3402.000000)">
            <g id="Group-49" transform="translate(212.000000, 3402.000000)">
                <g id="Group-48">
                    <g id="Group-3" transform="translate(0.000000, 0.556755)">
                        <mask id="mask-2" fill="white">
                            <use xlink:href="#path-1"></use>
                        </mask>
                        <g id="Clip-2"></g>
                        <path d="M0.00990871369,30.6138891 L0.00990871369,27.6398436 C0.00990871369,25.1249345 0.0156887967,22.6100255 0.00330290456,20.0951164 C0.00165145228,19.7534527 0.105692946,19.5151982 0.349282158,19.2744618 C1.83063485,17.8110164 3.2946473,16.3293709 4.76609129,14.8559982 C6.30029046,13.3180982 6.51250207,11.2606709 5.29207884,9.65576182 C4.08073859,8.06160727 1.86118672,7.71911636 0.229551867,8.75982545 C0.189917012,8.78464364 0.14119917,8.79539818 0.0487178423,8.83179818 C0.0346804979,8.67378909 0.011560166,8.53646182 0.011560166,8.39913455 C0.00908298755,5.93386182 0.0198174274,3.46858909 -6.93451682e-05,1.00414364 C-0.00330290456,0.608707273 0.110647303,0.469725455 0.499564315,0.409334545 C6.21358921,-0.480810909 11.8623817,2.98463455 13.4923651,8.76230727 C13.7153112,9.55318 13.8226556,10.3763164 13.9944066,11.2375073 C14.4196556,11.3028618 14.9076598,11.3558073 15.3857552,11.4567345 C19.9099087,12.4155436 22.996473,15.0901164 24.3506639,19.4969982 C25.7164149,23.9452436 24.6685685,27.9649618 21.3937386,31.2757073 C14.4312158,38.3157982 7.41336929,45.2996345 0.417817427,52.3066345 C0.317078838,52.4075618 0.206431535,52.4993891 0.0404605809,52.6524345 C0.0272489627,52.4183164 0.0107344398,52.2627891 0.0107344398,52.1064345 C0.00990871369,48.7485345 0.0140373444,45.38898 0.00330290456,42.03108 C0.00165145228,41.6885891 0.107344398,41.4511618 0.348456432,41.2095982 C5.50429046,36.0573436 10.6510415,30.8959891 15.8002697,25.7371164 C16.9306888,24.6054073 17.3121743,23.2586073 16.8150871,21.7397345 C16.3229544,20.23658 15.22639,19.3687709 13.6632905,19.16278 C12.3602946,18.9915345 11.2810705,19.4804527 10.3636888,20.4053436 C7.73209959,23.0567527 5.08729876,25.6940982 2.45075519,28.3405436 C1.67457261,29.1198345 0.909124481,29.9115345 0.138721992,30.6974436 C0.0957842324,30.6693164 0.052846473,30.6420164 0.00990871369,30.6138891" id="Fill-1" fill="#000000" mask="url(#mask-2)"></path>
                    </g>
                    <path d="M24.7692245,68.5627091 C23.4554942,67.2374182 22.1434154,65.9113 20.8272079,64.5893182 C18.7150004,62.4706727 16.6110502,60.3437545 14.4848054,58.2391727 C12.3081913,56.0857818 8.8467473,56.8956818 8.0160668,59.7530818 C7.58503776,61.2372091 7.98468921,62.5302364 9.06061037,63.6147909 C10.9226228,65.4918727 12.7937183,67.3615091 14.6623365,69.2328 C17.9553324,72.5311364 21.2466768,75.8303 24.5479299,79.1220182 C24.7873905,79.3611 24.8939091,79.5968727 24.8922577,79.9410182 C24.8798718,83.2989182 24.8848261,86.6576455 24.8848261,90.0163727 L24.8848261,90.5441727 C24.6973863,90.3754091 24.5760046,90.2761364 24.466183,90.1661091 C17.4706311,83.1607636 10.466822,76.1636909 3.48448174,69.1434545 C-2.38477967,63.2441727 -0.570659336,53.4823545 7.00950664,50.1219727 C7.62302116,49.8498 8.27617054,49.6479455 8.92849419,49.4824909 C9.57999212,49.3162091 10.2537846,49.2376182 10.958129,49.1135273 C11.3602577,44.9515182 13.3064942,41.7185364 16.9842784,39.6354636 C19.4276021,38.2506091 22.0641456,37.8833 24.8542743,38.3962091 L24.8542743,46.6052364 C24.2093822,46.4248909 23.5636643,46.137 22.8964776,46.0790909 C21.2301622,45.9334909 19.7975274,46.8219818 19.1427266,48.2829455 C18.4862743,49.7480455 18.7851871,51.4042455 19.949461,52.5864182 C21.4572369,54.1168727 22.9732701,55.6390545 24.5041664,57.1463455 C24.7865647,57.4251364 24.8955606,57.7014455 24.8931246,58.0968818 C24.8782203,61.4051455 24.8848261,64.7142364 24.8848261,68.0233273 L24.8848261,68.5081091 C24.846017,68.5254818 24.8072079,68.5445091 24.7692245,68.5627091" id="Fill-4" fill="#000000"></path>
                    <path d="M35.0714793,81.4533555 L35.0714793,90.4954464 L33.3704834,90.4954464 L33.3704834,78.1624645 C34.077305,78.1624645 34.7824751,78.1467464 35.485168,78.1798373 C35.5966411,78.1848009 35.7411432,78.3957555 35.7981183,78.5397009 C36.793944,81.0223464 37.7773838,83.5091282 38.765778,85.9950827 C38.8359647,86.1721191 38.9152344,86.3458464 39.0333133,86.6205009 C39.4081929,85.6782373 39.7442635,84.8385555 40.0786826,83.9972191 C40.7987158,82.1871464 41.5261805,80.3795555 42.2280477,78.5620373 C42.3494295,78.2468464 42.4997116,78.1359918 42.833305,78.1525373 C43.4402137,78.1814918 44.0487739,78.16081 44.6887116,78.16081 L44.6887116,90.5037191 L42.9802842,90.5037191 L42.9802842,81.4450827 L42.902666,81.4235736 C42.8390851,81.56421 42.7713755,81.7031918 42.712749,81.84631 C41.8308734,84.0187282 40.9399149,86.1878373 40.0762054,88.3668736 C39.9374834,88.7184645 39.7566494,88.8334555 39.3883755,88.8293191 C38.1646494,88.8152555 38.1663008,88.8293191 37.7121515,87.7058827 C36.9268859,85.7617918 36.1383174,83.8177009 35.3505747,81.8752645 C35.2902967,81.7255282 35.2250643,81.5774464 35.1614834,81.4293645 C35.1317573,81.43681 35.1020311,81.4450827 35.0714793,81.4533555" id="Fill-6" fill="#000000"></path>
                    <path d="M65.8220988,81.90091 L65.8220988,90.4946191 L64.0938539,90.4946191 L64.0938539,78.1632918 C64.5818581,78.1632918 65.0723394,78.1384736 65.5578664,78.1806645 C65.6883311,78.1922464 65.8311817,78.3866555 65.917883,78.5281191 C67.5082315,81.11831 69.0903228,83.71181 70.6740656,86.30531 C70.7764556,86.4732464 70.8838,86.6395282 71.064634,86.9257645 L71.064634,78.1955555 L72.8159992,78.1955555 L72.8159992,90.5293645 C72.3379037,90.5293645 71.8622855,90.5583191 71.3940988,90.5119918 C71.2471195,90.4979282 71.0828,90.3043464 70.9903187,90.1537827 C69.3908871,87.5503555 67.8013643,84.9411373 66.2093643,82.3327464 C66.1152315,82.1788736 66.0177959,82.0274827 65.9220116,81.8752645 C65.8881568,81.8835373 65.8551278,81.89181 65.8220988,81.90091" id="Fill-8" fill="#000000"></path>
                    <path d="M109.111865,78.1902609 L110.849193,78.1902609 L110.849193,90.5290336 C110.355409,90.5290336 109.878965,90.5579882 109.409952,90.5116609 C109.262973,90.49677 109.097002,90.3023609 109.003695,90.1501427 C107.396006,87.5334791 105.7974,84.9110245 104.196317,82.2902245 C104.112093,82.15207 104.022089,82.0172245 103.854467,81.7566336 L103.854467,90.4918064 L102.128699,90.4918064 L102.128699,78.1646155 C102.60184,78.1646155 103.092322,78.13897 103.577023,78.1811609 C103.707488,78.1919155 103.850338,78.3871518 103.937039,78.5286155 C105.543077,81.1469336 107.140857,83.7693882 108.741114,86.3910155 C108.831944,86.5390973 108.928554,86.6830427 109.111865,86.7996882 L109.111865,78.1902609 Z" id="Fill-10" fill="#000000"></path>
                    <path d="M87.6695739,90.5299436 C87.1700095,90.5299436 86.7067772,90.5638618 86.2542793,90.5125709 C86.0907855,90.4935436 85.9083,90.2958255 85.8083871,90.13368 C84.1982212,87.5170164 82.6012668,84.8945618 81.0001838,82.2737618 C80.9167855,82.1364345 80.8226527,82.0048982 80.6591589,81.7575436 L80.6591589,90.4985073 L78.9350427,90.4985073 L78.9350427,78.1630436 C79.4156154,78.1630436 79.8920593,78.1332618 80.3602461,78.1795891 C80.5055739,78.19448 80.6657647,78.39468 80.7590718,78.5468982 C82.3576776,81.1486709 83.9472004,83.7570618 85.5392004,86.3646255 C85.6333332,86.5176709 85.7299432,86.6690618 85.9016942,86.9437164 L85.9016942,78.2002709 L87.6695739,78.2002709 L87.6695739,90.5299436 Z" id="Fill-12" fill="#000000"></path>
                    <path d="M147.81208,79.8973382 L147.81208,83.8244018 C148.625421,83.8244018 149.399126,83.8260564 150.172832,83.8235745 C151.692993,83.8202655 152.299902,83.1791291 152.224761,81.6486745 C152.216504,81.4848745 152.1843,81.3219018 152.160354,81.1581018 C152.056313,80.4532655 151.659139,79.9602109 150.954794,79.9147109 C149.924288,79.8477018 148.88635,79.8973382 147.81208,79.8973382 M147.775749,85.47812 L147.775749,90.5004927 L146.025209,90.5004927 L146.025209,78.1021564 C147.860798,78.1642018 149.680699,78.1220109 151.474176,78.3189018 C153.109114,78.4975927 153.943097,79.4497836 154.121454,81.1134291 C154.199898,81.8505291 154.105765,82.6306473 153.957134,83.3636109 C153.804375,84.1197382 153.436927,84.4084564 152.198338,85.1753382 C153.032321,86.9233655 153.868782,88.6755291 154.752309,90.5269655 C154.044661,90.5269655 153.411329,90.5459927 152.782126,90.5079382 C152.668176,90.50132 152.53606,90.2746473 152.46835,90.1240836 C151.843276,88.7392291 151.215724,87.3560291 150.624504,85.9562836 C150.462661,85.5724291 150.25045,85.4499927 149.849973,85.46902 C149.178657,85.5012836 148.50569,85.47812 147.775749,85.47812" id="Fill-14" fill="#000000"></path>
                    <path d="M123.809625,85.3683409 L121.656957,85.3683409 L121.656957,83.7659136 L125.580808,83.7659136 C125.59402,83.8800773 125.624571,84.0198864 125.625397,84.1588682 C125.6287,85.9614955 125.622094,87.7632955 125.632858,89.5650955 C125.63448,89.84885 125.566771,90.0349864 125.280244,90.13095 C123.708887,90.6579227 122.105327,90.9003136 120.46048,90.5958773 C118.665351,90.2624864 117.590256,89.1134045 117.122069,87.3959864 C116.572961,85.3799227 116.572136,83.3373864 117.112161,81.32215 C117.623285,79.4128045 118.86848,78.2587591 120.868389,78.0262955 C122.244049,77.8666318 123.597414,77.9898955 124.920227,78.42835 C125.21336,78.5259682 125.355385,78.6657773 125.336393,78.99255 C125.310795,79.4169409 125.330613,79.8438136 125.330613,80.3376955 C125.112621,80.2682045 124.966468,80.2094682 124.81536,80.1763773 C124.01358,79.9985136 123.218405,79.7453682 122.407542,79.6684318 C120.405982,79.4798136 119.168219,80.3997409 118.77187,82.3562409 C118.488646,83.7617773 118.491949,85.1846864 118.830497,86.5869136 C119.210331,88.1628682 120.168173,88.9520864 121.778339,89.0000682 C122.350567,89.0174409 122.929401,88.9405045 123.498327,88.8643955 C123.61558,88.84785 123.792285,88.6410318 123.795588,88.5194227 C123.82036,87.4960864 123.809625,86.47275 123.809625,85.3683409" id="Fill-16" fill="#000000"></path>
                    <path d="M167.078749,78.1773555 L168.828462,78.1773555 L168.828462,90.4962736 L167.114255,90.4962736 C167.102695,90.3126191 167.081226,90.1223464 167.0804,89.9329009 C167.077097,88.4280918 167.078749,86.9232827 167.077923,85.4184736 C167.077923,85.1876645 167.115906,84.9452736 166.75011,84.9477555 C165.199396,84.9552009 163.649508,84.9510645 162.036039,84.9510645 L162.036039,90.49131 L160.22935,90.49131 L160.22935,78.1947282 L161.999707,78.1947282 L161.999707,83.2692191 C162.216873,83.2816282 162.377064,83.2973464 162.537255,83.2981736 C163.874105,83.2998282 165.210956,83.2865918 166.546981,83.3072736 C166.951587,83.3138918 167.095263,83.1989009 167.087832,82.7786464 C167.063885,81.4401191 167.078749,80.1007645 167.078749,78.76141 L167.078749,78.1773555 Z" id="Fill-18" fill="#000000"></path>
                    <path d="M50.8037917,78.1773555 L58.2130324,78.1773555 L58.2130324,79.8070827 L52.5502025,79.8070827 C52.5502025,80.3282645 52.5411195,80.8014645 52.5526797,81.2738373 C52.5691942,81.92821 52.6022232,82.5817555 52.6278207,83.2361282 C53.2834473,83.2576373 53.9390739,83.2890736 54.5947004,83.2965191 C55.551717,83.3081009 56.5087336,83.30231 57.4657502,83.3056191 C57.514468,83.3056191 57.5640116,83.32051 57.6573187,83.3354009 L57.6573187,84.9411373 L52.5502025,84.9411373 L52.5502025,86.0736736 C52.5502025,86.8504827 52.5683685,87.6289464 52.542771,88.4049282 C52.5303851,88.7838191 52.6682813,88.8814373 53.0291237,88.8781282 C54.5641485,88.8607555 56.0991734,88.8706827 57.6333726,88.8706827 L58.2113809,88.8706827 L58.2113809,90.4987555 L50.8037917,90.4987555 L50.8037917,78.1773555 Z" id="Fill-20" fill="#000000"></path>
                    <path d="M174.878805,78.1878618 L176.606224,78.1878618 L176.606224,78.7826709 C176.606224,81.2479436 176.632648,83.7132164 176.597967,86.1776618 C176.568241,88.3178164 177.616088,89.3610073 180.004088,89.0061073 C181.325249,88.8100436 181.943718,87.9844255 181.952801,86.4539709 C181.967664,83.9067982 181.957756,81.3587982 181.957756,78.8107982 L181.957756,78.1936527 L183.740498,78.1936527 L183.740498,78.7661255 C183.740498,81.2810345 183.686826,83.7967709 183.754536,86.3100255 C183.833805,89.2137527 182.16171,90.5274618 179.789399,90.6953982 C178.296486,90.8021164 176.882843,90.5622073 175.773067,89.4255345 C175.181847,88.8207982 174.863942,88.0563982 174.854034,87.2316073 C174.817702,84.2707982 174.83339,81.3083345 174.830913,78.3475255 C174.830913,78.3028527 174.858162,78.2573527 174.878805,78.1878618" id="Fill-22" fill="#000000"></path>
                    <path d="M135.760855,80.62691 C135.722872,80.6236009 135.684888,80.6194645 135.646905,80.6153282 C135.134129,82.3931373 134.620527,84.1701191 134.098668,85.9760555 L137.303312,85.9760555 C136.780627,84.1626736 136.270328,82.3956191 135.760855,80.62691 M140.534378,90.5301918 C139.927469,90.5301918 139.384141,90.5533555 138.844117,90.5136464 C138.712826,90.5037191 138.530341,90.3126191 138.4841,90.1678464 C138.234731,89.39931 138.009307,88.6225009 137.803702,87.8407282 C137.730212,87.5619373 137.599747,87.4717645 137.322303,87.4750736 C136.249685,87.4874827 135.176241,87.4907918 134.103623,87.4725918 C133.799756,87.4684555 133.665988,87.5776555 133.58837,87.8622373 C133.37781,88.6423555 133.130917,89.4133736 132.924486,90.1943191 C132.855951,90.4507736 132.742826,90.5442555 132.481071,90.5359827 C131.972424,90.51861 131.462951,90.5310191 130.896502,90.5310191 C130.941092,90.34571 130.965863,90.2050736 131.007976,90.0702282 C132.216013,86.1952827 133.42983,82.3228191 134.627959,78.4445645 C134.735303,78.09711 134.901274,77.9895645 135.256337,77.9912003 C136.623739,77.99701 136.622913,77.9862555 137.032473,79.2958282 C138.143075,82.8547555 139.254502,86.41451 140.365104,89.9742645 C140.414648,90.1289645 140.460063,90.2861464 140.534378,90.5301918" id="Fill-24" fill="#000000"></path>
                    <path d="M197.117014,80.1639682 C196.164126,79.9976864 195.281425,79.7859045 194.387163,79.7064864 C193.791815,79.6535409 193.160134,79.7097955 192.577998,79.8545682 C191.471524,80.1283955 190.923242,81.3031227 191.441798,82.3181864 C191.613549,82.6548864 192.030541,82.9634591 192.399641,83.0767955 C193.118022,83.3001591 193.881819,83.3762682 194.626624,83.5127682 C194.675342,83.5218682 194.725711,83.5235227 194.773603,83.5317955 C196.867645,83.9272318 197.70906,84.8289591 197.748695,86.7209318 C197.789155,88.72955 196.756998,90.10365 194.842139,90.5280409 C193.141968,90.9052773 191.469047,90.7249318 189.824201,90.1830682 C189.534371,90.0887591 189.390695,89.9497773 189.412989,89.6205227 C189.441064,89.19365 189.419595,88.7642955 189.419595,88.2480773 C189.635935,88.3225318 189.798603,88.3721682 189.957143,88.4333864 C191.322894,88.9653227 192.730757,89.1762773 194.175778,88.8817682 C195.518408,88.6087682 196.125317,87.5945318 195.810715,86.25435 C195.670342,85.6545773 195.272342,85.3096045 194.701765,85.1838591 C193.994944,85.0283318 193.268305,84.9555318 192.565612,84.7851136 C191.962006,84.6378591 191.355097,84.4558591 190.793603,84.1952682 C190.021549,83.8362318 189.577309,83.1686227 189.507948,82.3223227 C189.460056,81.72255 189.44189,81.0905136 189.571529,80.5089409 C189.885305,79.1034045 190.906728,78.3993955 192.248533,78.1255682 C193.729885,77.8227864 195.198027,77.9352955 196.650479,78.3522409 C197.012973,78.4564773 197.156649,78.6393045 197.124446,79.01985 C197.092242,79.4128045 197.117014,79.8090682 197.117014,80.1639682" id="Fill-26" fill="#000000"></path>
                    <mask id="mask-4" fill="white">
                        <use xlink:href="#path-3"></use>
                    </mask>
                    <g id="Clip-29"></g>
                    <polygon id="Fill-28" fill="#000000" mask="url(#mask-4)" points="94.0122241 90.5019818 95.7297344 90.5019818 95.7297344 78.1880273 94.0122241 78.1880273"></polygon>
                    <path d="M178.553452,77.3541364 C178.864751,76.7601545 179.128983,76.2356636 179.417161,75.7235818 C179.459273,75.6474727 179.604601,75.5928727 179.704514,75.5912182 C180.310597,75.5788091 180.917506,75.5846 181.646622,75.5846 C181.09834,76.1918182 180.649971,76.7576727 180.12068,77.2341818 C179.945626,77.3930182 179.564141,77.3301455 179.275962,77.3508273 C179.067054,77.3665455 178.855668,77.3541364 178.553452,77.3541364" id="Fill-30" fill="#000000" mask="url(#mask-4)"></path>
                    <path d="M34.3417025,63.1628518 C35.4440469,63.1628518 36.5117108,63.1636791 37.5793747,63.1611973 C37.7602087,63.16037 37.9426942,63.1570609 38.121051,63.1297609 C39.3802834,62.9370064 39.981412,62.2470609 40.0301299,60.9498973 C40.0771963,59.6833427 39.5421257,58.78327 38.4001465,58.6666245 C37.0690759,58.5317791 35.7140593,58.6351882 34.3417025,58.6351882 L34.3417025,63.1628518 Z M34.3392253,69.3235518 C35.7636029,69.3235518 37.1334826,69.4004882 38.4901506,69.3003882 C39.6222212,69.2151791 40.2976651,68.4880064 40.4223498,67.3769791 C40.6601589,65.2467518 39.851773,64.29787 37.8328726,64.2507155 C36.8114494,64.2267245 35.7892004,64.2440973 34.7677772,64.2457518 C34.6257523,64.2457518 34.4845531,64.2647791 34.3392253,64.2763609 L34.3392253,69.3235518 Z M39.6808477,63.6104064 C42.2901423,64.5154427 42.2381216,68.4400245 40.5313456,69.5915882 C40.0004037,69.9506245 39.3530344,70.2898064 38.7353913,70.34027 C36.9006278,70.4875245 35.0534784,70.48587 33.1790801,70.5429518 L33.1790801,57.5613882 C33.2055033,57.5382245 33.2286237,57.4985155 33.2525697,57.4985155 C34.9667772,57.5125791 36.6908934,57.4240609 38.3918892,57.5771064 C40.0243498,57.7251882 40.9194369,58.6260882 41.2125697,60.0051518 C41.5329515,61.5149245 41.0647647,62.6383609 39.6808477,63.6104064 L39.6808477,63.6104064 Z" id="Fill-31" fill="#000000" mask="url(#mask-4)"></path>
                    <path d="M100.623153,58.6031727 L100.623153,63.1631 C100.843622,63.1631 101.021978,63.1639273 101.201987,63.1631 C102.208547,63.1589636 103.217584,63.1995 104.220016,63.1407636 C105.52136,63.0654818 106.227356,62.3068727 106.270294,61.0543818 C106.319837,59.6074818 105.758344,58.7280909 104.513974,58.6263364 C103.239053,58.5204455 101.948443,58.6031727 100.623153,58.6031727 L100.623153,58.6031727 Z M100.624804,64.3378273 L100.624804,69.3519273 C101.966609,69.3519273 103.273734,69.4379636 104.564344,69.3295909 C105.977987,69.2104636 106.617099,68.4369636 106.712057,67.0132273 C106.729398,66.7526364 106.705451,66.4846 106.674074,66.2240091 C106.53948,65.1212545 105.996978,64.4437182 104.896285,64.3626455 C103.4909,64.2600636 102.071476,64.3378273 100.624804,64.3378273 L100.624804,64.3378273 Z M99.4448415,57.4590545 C99.9956008,57.4590545 100.519111,57.4466455 101.041796,57.4623636 C102.342315,57.5020727 103.660999,57.4317545 104.938398,57.6294727 C107.170335,57.9752727 108.274331,60.424 107.148866,62.3987 C106.881331,62.8677636 106.426356,63.2301091 106.068817,63.6288545 C106.345435,63.8199545 106.752518,64.0118818 107.043173,64.3154909 C108.061294,65.3760545 108.154601,66.6740455 107.823485,68.0183636 C107.509709,69.2882273 106.589024,69.9632818 105.376858,70.2834364 C105.059779,70.3669909 104.728663,70.4356545 104.402501,70.4381364 C102.75848,70.4538545 101.11446,70.4447545 99.4448415,70.4447545 L99.4448415,57.4590545 Z" id="Fill-32" fill="#000000" mask="url(#mask-4)"></path>
                    <path d="M191.112746,63.2937264 L194.22078,63.2937264 L194.22078,64.2062082 L191.131738,64.2062082 L191.131738,69.3989991 C192.114352,69.3989991 193.056506,69.4486355 193.991228,69.3874173 C195.661672,69.27739 196.803651,68.3996536 197.305693,66.7939173 C197.89361,64.9176627 197.882049,63.0157627 197.304867,61.1378536 C196.991917,60.1194809 196.382531,59.3046173 195.365236,58.8868445 C193.987925,58.3201627 192.547033,58.6014355 191.112746,58.5294627 L191.112746,63.2937264 Z M189.935261,70.4628718 L189.935261,64.1962809 L188.423356,64.1962809 L188.423356,63.2912445 L189.936087,63.2912445 L189.936087,62.6757536 C189.936912,61.1039355 189.947647,59.5321173 189.928655,57.9611264 C189.925352,57.5756173 190.033522,57.4415991 190.429871,57.4515264 C191.65112,57.4846173 192.875672,57.4415991 194.094444,57.5003355 C196.521253,57.6169809 198.019946,58.8363809 198.620249,61.2007264 C199.083481,63.0240355 199.085958,64.8762991 198.631809,66.7004355 C198.040589,69.0780173 196.690527,70.2287536 194.138207,70.4430173 C192.779888,70.5571809 191.404228,70.4628718 189.935261,70.4628718 L189.935261,70.4628718 Z" id="Fill-33" fill="#000000" mask="url(#mask-4)"></path>
                    <path d="M174.421601,60.0565255 L174.421601,70.45038 L173.301916,70.45038 L173.301916,57.5209345 C173.820472,57.3687164 174.171406,57.4621982 174.495916,57.9643527 C176.561057,61.1526618 178.66253,64.3186345 180.751617,67.4912255 C180.849879,67.6409618 180.953095,67.7873891 181.159526,67.9214073 C181.159526,67.7526436 181.159526,67.58388 181.1587,67.4142891 C181.147966,64.3542073 181.138057,61.2949527 181.125671,58.2348709 C181.123194,57.4365527 181.122368,57.4365527 181.934883,57.4613709 C182.01663,57.4638527 182.098377,57.4770891 182.225539,57.4886709 L182.225539,70.4387982 C181.774692,70.5422073 181.420456,70.5372436 181.09512,70.0350891 C179.023373,66.8302345 176.913642,63.6501982 174.815472,60.4627164 C174.717211,60.3146345 174.613995,60.1706891 174.512431,60.0242618 C174.482705,60.0350164 174.452153,60.0449436 174.421601,60.0565255" id="Fill-34" fill="#000000" mask="url(#mask-4)"></path>
                    <path d="M56.8294456,63.6378718 C58.2059311,63.6378718 59.5584705,63.7098445 60.9002755,63.6147082 C61.9093129,63.5435627 62.4708066,62.9462718 62.6029228,61.9692627 C62.6830183,61.3744536 62.6516407,60.7490355 62.5756739,60.1484355 C62.475761,59.3658355 61.975371,58.7875718 61.2099228,58.7073264 C59.7607734,58.5551082 58.2975867,58.5410445 56.8294456,58.4682445 L56.8294456,63.6378718 Z M55.6643461,57.3977536 C57.5329643,57.4639355 59.3669021,57.4440809 61.1826739,57.6178082 C62.7961427,57.7716809 63.6796697,58.7106355 63.8794954,60.3072718 C63.9661967,60.9988718 63.9166531,61.7326627 63.7837112,62.4184718 C63.573151,63.5104718 62.9893627,64.0283445 61.5666365,64.6041264 C62.0794124,65.5794809 62.5897112,66.5498718 63.0991842,67.5194355 C63.6037029,68.4815536 64.1065701,69.4436718 64.6548523,70.48769 C64.2287776,70.48769 63.8704124,70.5232627 63.5252589,70.4711445 C63.3774539,70.4488082 63.2098315,70.2701173 63.1313876,70.1195536 C62.2800639,68.4790718 61.4369975,66.8336264 60.6112714,65.1799082 C60.4593378,64.8762991 60.2974954,64.7472445 59.939956,64.7579991 C58.9201842,64.7877809 57.898761,64.7679264 56.8187112,64.7679264 L56.8187112,70.4579082 L55.6643461,70.4579082 L55.6643461,57.3977536 Z" id="Fill-35" fill="#000000" mask="url(#mask-4)"></path>
                    <path d="M89.8249668,63.62902 C91.2146639,63.62902 92.5828921,63.6968564 93.9395602,63.6058564 C94.8651992,63.5429836 95.4910996,62.9365927 95.6033983,61.9769564 C95.6711079,61.3929018 95.6611992,60.7856836 95.5877095,60.2024564 C95.4820166,59.3586382 94.9510747,58.7630018 94.117917,58.6827564 C92.697668,58.5454291 91.2658589,58.5404655 89.8249668,58.47842 L89.8249668,63.62902 Z M97.6132158,70.4126564 C96.6099585,70.74522 96.1392946,70.3067655 95.7594606,69.4646018 C95.0930996,67.9920564 94.3045311,66.5765927 93.5836722,65.1280382 C93.4474274,64.8550382 93.288888,64.7532836 92.9784149,64.7599018 C91.9429544,64.7822382 90.9058423,64.7681745 89.8109295,64.7681745 L89.8109295,70.4606382 L88.6598672,70.4606382 L88.6598672,57.45922 C88.8828133,57.45922 89.0908963,57.4575655 89.2989793,57.4600473 C90.7010622,57.4732836 92.103971,57.45922 93.5044025,57.51382 C94.0221328,57.5345018 94.5464689,57.6759655 95.0419046,57.8405927 C95.3754979,57.9522745 95.700834,58.1590927 95.9658921,58.3956927 C97.7618465,59.99812 97.0830996,63.6414291 94.8437303,64.48442 C94.7669378,64.5133745 94.6917967,64.5464655 94.5629834,64.5994109 C95.5835809,66.5435018 96.5975726,68.4768382 97.6132158,70.4126564 L97.6132158,70.4126564 Z" id="Fill-36" fill="#000000" mask="url(#mask-4)"></path>
                    <path d="M118.359337,64.2542727 C118.272636,63.1705455 118.218138,62.3647818 118.138043,61.5598455 C118.109968,61.2827091 118.03235,61.0088818 117.953906,60.7400182 C117.479113,59.1193909 116.448607,58.3756727 114.685682,58.3740118 C112.919454,58.3715364 111.831146,59.0970545 111.418283,60.7292636 C110.880736,62.8578364 110.884039,65.0244636 111.404246,67.1546909 C111.812155,68.8224727 112.921931,69.5877 114.670819,69.5893606 C116.424661,69.5918364 117.534437,68.8299182 117.942346,67.1671 C118.195844,66.1330091 118.250341,65.0525909 118.359337,64.2542727 M119.595449,64.0176727 C119.495537,64.9516636 119.46581,65.9328091 119.275068,66.8833455 C118.728437,69.6042455 116.991935,70.8699727 114.229881,70.6433 C111.893076,70.4513727 110.604943,69.3726091 110.123545,67.0686545 C109.666093,64.8763818 109.656184,62.6634273 110.221806,60.4843909 C110.746968,58.4592273 112.1474,57.3680545 114.237312,57.3126273 C114.874773,57.2969091 115.533702,57.3184182 116.152171,57.4574 C118.13474,57.9008182 118.991844,59.3617818 119.308922,61.2140455 C119.464985,62.1223909 119.500491,63.0505909 119.595449,64.0176727" id="Fill-37" fill="#000000" mask="url(#mask-4)"></path>
                    <path d="M44.7394938,63.9440455 C44.8336266,64.8788636 44.8806929,65.7872091 45.0260207,66.6806636 C45.1804315,67.6270636 45.5478797,68.4907364 46.3917718,69.0565909 C48.4114979,70.4100091 51.1917178,69.3775727 51.7416515,67.0239818 C52.1991037,65.0707909 52.1958008,63.0836818 51.7845892,61.1238727 C51.378332,59.1822636 50.3040622,58.3591273 48.3768174,58.3740182 C46.5032448,58.3880818 45.4099834,59.2658182 45.0441867,61.1627545 C44.8666556,62.0810273 44.835278,63.0282545 44.7394938,63.9440455 M43.4893444,63.5461273 C43.6429295,62.6510182 43.7535768,61.3406182 44.1069876,60.0997091 C44.612332,58.3285182 45.9549627,57.4714636 47.7484398,57.3209 C48.287639,57.2754 48.8408755,57.2853273 49.3775975,57.3531636 C51.2850249,57.5947273 52.4608589,58.7181636 52.9017967,60.5522273 C53.4459502,62.8181273 53.4558589,65.1162909 52.9026224,67.3788818 C52.3411286,69.6720818 50.6269212,70.8095818 48.1563485,70.6590182 C45.5173278,70.4985273 44.1036846,69.1707545 43.7428423,66.4746727 C43.632195,65.6407818 43.5950373,64.7969636 43.4893444,63.5461273" id="Fill-38" fill="#000000" mask="url(#mask-4)"></path>
                    <path d="M74.9102884,59.0838182 C74.0333672,58.8571455 73.2340643,58.5940727 72.4132925,58.4550909 C71.8187697,58.3549909 71.1887407,58.3483727 70.5900892,58.4244818 C69.3572801,58.5816636 68.4745788,59.3080091 68.0303382,60.4422 C67.1154336,62.7825545 67.1104793,65.1667545 68.0344668,67.5038 C68.5109108,68.7099636 69.4588444,69.4859455 70.7874378,69.5331 C71.7659232,69.5670182 72.752666,69.4131455 73.7319772,69.3064273 C73.8599647,69.2931909 74.0622676,69.0640364 74.0647448,68.9325 C74.0895166,67.5608818 74.0796079,66.1884364 74.0796079,64.7465 L71.3976494,64.7465 L71.3976494,63.6842818 L75.210027,63.6842818 C75.2207614,63.8199545 75.2414046,63.9614182 75.2414046,64.1020545 C75.2438817,65.9055091 75.2347988,67.7089636 75.250545,69.5115909 C75.2529647,69.8383636 75.1761722,70.0104364 74.845056,70.1221182 C73.3141598,70.6408182 71.7436286,70.8021364 70.1582344,70.5605727 C68.4382469,70.2991545 67.2814046,69.2601 66.7306452,67.6270636 C65.9131763,65.2031545 65.9115249,62.7469818 66.728168,60.3230727 C67.3152593,58.5849727 68.5703631,57.5641182 70.3960436,57.3457182 C71.7015166,57.1901909 72.9946037,57.3175909 74.2579647,57.7279182 C74.7484461,57.8875818 75.0209357,58.1291455 74.9135913,58.6776273 C74.8896452,58.8033727 74.9102884,58.9373909 74.9102884,59.0838182" id="Fill-39" fill="#000000" mask="url(#mask-4)"></path>
                    <path d="M130.52988,70.4879382 C130.013801,70.4879382 129.618278,70.5185473 129.230187,70.4738745 C129.067519,70.4556745 128.885034,70.3092473 128.777689,70.1702655 C127.356615,68.32462 125.947926,66.4690473 124.535934,64.6151291 C124.436847,64.4860745 124.33198,64.3619836 124.194909,64.1915655 C123.610295,64.8542109 122.942283,65.3555382 123.031461,66.4127927 C123.14376,67.7397382 123.057884,69.0840564 123.057884,70.45402 L121.947283,70.45402 L121.947283,57.5187836 C123.033938,57.3243745 123.057884,57.3442291 123.057884,58.3841109 L123.057884,63.24682 L123.057884,63.78372 C123.113208,63.8234291 123.16688,63.8639655 123.221378,63.9045018 C123.289088,63.7804109 123.337805,63.6406018 123.426158,63.5347109 C124.916594,61.7436655 126.463179,59.9956382 127.881776,58.1499927 C128.463088,57.3922109 129.099722,57.41372 129.958478,57.50472 C128.258307,59.4653564 126.610158,61.3680836 124.943843,63.2898382 C126.792644,65.6715564 128.621627,68.0301109 130.52988,70.4879382" id="Fill-40" fill="#000000" mask="url(#mask-4)"></path>
                    <path d="M156.945107,59.2260264 C156.195348,61.4977173 155.489352,63.6320809 154.778402,65.7871264 L159.100252,65.7871264 C158.384348,63.6072627 157.686609,61.4836536 156.945107,59.2260264 M161.94075,70.4570809 C160.683169,70.5662809 160.683169,70.5671082 160.319024,69.4643536 C160.07048,68.7123627 159.811202,67.9636809 159.581651,67.2058991 C159.497427,66.9262809 159.374393,66.8162536 159.068049,66.82039 C157.665966,66.8377627 156.263883,66.8377627 154.8618,66.82039 C154.545547,66.8162536 154.396916,66.9089082 154.303609,67.2174809 C154.021211,68.1481627 153.687617,69.0647809 153.412651,69.9979445 C153.300352,70.3793173 153.133555,70.5546991 152.724821,70.4951355 C152.484534,70.46039 152.234339,70.4885173 151.929646,70.4885173 C152.105526,69.9805718 152.264891,69.5156445 152.425908,69.0523718 C153.737987,65.2816627 155.053368,61.5126082 156.358016,57.73859 C156.458754,57.4482173 156.552061,57.2720082 156.923638,57.2768697 C157.289435,57.2811082 157.428983,57.4134718 157.542933,57.7427264 C158.958227,61.8435173 160.390037,65.9401718 161.816066,70.0376536 C161.859003,70.16009 161.890381,70.2866627 161.94075,70.4570809" id="Fill-41" fill="#000000" mask="url(#mask-4)"></path>
                    <path d="M138.533974,65.8038373 C137.823849,63.6396918 137.130239,61.52601 136.436629,59.4123282 C136.396169,59.4131555 136.354883,59.4131555 136.314422,59.4139827 C135.615032,61.5293191 134.915642,63.6446555 134.201389,65.8038373 L138.533974,65.8038373 Z M131.36502,70.4886827 C131.501264,70.0858009 131.608609,69.7606827 131.720907,69.4380464 C133.07675,65.5399373 134.435895,61.6434827 135.781003,57.7412373 C135.894127,57.4136373 136.034501,57.2804464 136.400298,57.27624 C136.771874,57.2721736 136.867659,57.4516918 136.968397,57.7420645 C138.379563,61.8130736 139.798161,65.8816009 141.213455,69.9509555 C141.267127,70.1023464 141.303459,70.2611827 141.36704,70.4878555 C140.976472,70.4878555 140.63297,70.5184645 140.301028,70.4721373 C140.175517,70.4539373 140.021107,70.2735918 139.973215,70.1354373 C139.645401,69.1840736 139.324194,68.2294009 139.038493,67.2631464 C138.933625,66.9082464 138.758571,66.8147645 138.408463,66.8197282 C137.054273,66.8395827 135.700082,66.8395827 134.346717,66.8205555 C133.996609,66.8147645 133.819078,66.9057645 133.71421,67.2623191 C133.442546,68.1797645 133.106476,69.0781827 132.837289,69.9964555 C132.725816,70.3736918 132.569754,70.5606555 132.157717,70.4953009 C131.933119,70.4597282 131.699439,70.4886827 131.36502,70.4886827 L131.36502,70.4886827 Z" id="Fill-42" fill="#000000" mask="url(#mask-4)"></path>
                    <path d="M81.9036108,59.3763418 C81.8681046,59.3837873 81.8325983,59.3904055 81.7970921,59.3970236 C81.0952249,61.5198055 80.3941834,63.64176 79.6840589,65.7918418 L84.0092124,65.7918418 C83.2957851,63.6161145 82.5996979,61.4966418 81.9036108,59.3763418 M76.852644,70.4890964 C76.9162249,70.2864145 76.9599884,70.1308873 77.0136606,69.9778418 C78.4388639,65.8770509 79.8690216,61.7779145 81.2834905,57.6729873 C81.3900091,57.3635873 81.5402913,57.2800327 81.8491129,57.2832482 C82.1513286,57.2858236 82.3156481,57.3528327 82.4238183,57.6688509 C83.8556274,61.8192782 85.3022996,65.9655691 86.7440174,70.1135145 C86.7803494,70.2177509 86.7985154,70.3294327 86.8323701,70.46676 L85.5624033,70.46676 C85.270922,69.5873691 84.969532,68.6856418 84.6722705,67.7814327 C84.3584946,66.8284145 84.3601461,66.8275873 83.3403743,66.8275873 C82.1678432,66.8275873 80.995312,66.8408236 79.8236066,66.8193145 C79.472673,66.8126964 79.3000963,66.9078327 79.195229,67.2610782 C78.9243909,68.1793509 78.5858432,69.0777691 78.3191336,69.9960418 C78.2076606,70.3807236 78.0425154,70.5536236 77.6337809,70.4948873 C77.3943203,70.4609691 77.1457768,70.4890964 76.852644,70.4890964" id="Fill-43" fill="#000000" mask="url(#mask-4)"></path>
                    <path d="M142.475495,68.8874964 C142.909827,69.0215145 143.297093,69.1538782 143.69179,69.2597691 C144.967537,69.6014327 146.255669,69.7230418 147.555362,69.4169509 C149.330673,69.0000055 150.217503,67.0219964 149.376914,65.3831691 C149.084607,64.8115236 148.554491,64.5782327 147.982263,64.4582782 C147.192868,64.2944782 146.390263,64.1869327 145.594263,64.0537418 C145.464624,64.0322327 145.33581,64.0016236 145.207823,63.9718418 C143.138553,63.4862327 142.390445,62.6275236 142.440815,60.7926327 C142.490358,58.9560873 143.598483,57.7135236 145.492698,57.4041236 C146.761014,57.1973055 148.0252,57.2560418 149.270395,57.5770236 C150.272001,57.8351327 150.29347,57.8764964 150.121719,59.00076 C149.948317,58.9378873 149.784823,58.8758418 149.620503,58.81876 C148.283653,58.3530055 146.912947,58.2239509 145.526553,58.4944691 C143.904001,58.8104873 143.082404,60.6189055 143.855283,62.0914509 C144.12447,62.6051873 144.591831,62.8475782 145.121947,62.9518145 C146.09135,63.1429145 147.073138,63.2703145 148.040889,63.4672055 C148.488433,63.5590327 148.932673,63.71456 149.347188,63.9073145 C150.090341,64.2547691 150.5544,64.8495782 150.754225,65.6578236 C151.390034,68.2314691 149.868221,70.3228145 147.166445,70.5966418 C145.868404,70.7290055 144.59018,70.6297327 143.344985,70.2649055 C142.286404,69.9546782 142.406134,70.1747327 142.475495,68.8874964" id="Fill-44" fill="#000000" mask="url(#mask-4)"></path>
                    <polygon id="Fill-45" fill="#000000" mask="url(#mask-4)" points="164.918484 63.1620245 170.432683 63.1620245 170.432683 64.2300336 164.900318 64.2300336 164.900318 70.4577427 163.761641 70.4577427 163.761641 57.5034791 171.042895 57.5034791 171.042895 58.5201973 164.918484 58.5201973"></polygon>
                    <polygon id="Fill-46" fill="#000000" mask="url(#mask-4)" points="185.282212 70.4778455 186.403548 70.4778455 186.403548 57.512 185.282212 57.512"></polygon>
                    <path d="M116.655451,54.8424736 C116.126987,55.4323191 115.721555,55.9576373 115.235202,56.3919555 C115.034551,56.5723009 114.661323,56.5582373 114.367364,56.6326918 C114.344244,56.5896736 114.321949,56.5466555 114.299655,56.5036373 C114.546547,56.0072736 114.78353,55.5067736 115.047763,55.0203373 C115.095655,54.9309918 115.24924,54.85571 115.358236,54.8499191 C115.746327,54.8292373 116.137721,54.8424736 116.655451,54.8424736" id="Fill-47" fill="#000000" mask="url(#mask-4)"></path>
                </g>
            </g>
        </g>
    </g>
</svg>