<?xml version="1.0" encoding="utf-8"?>
<!-- Generator: Adobe Illustrator 23.0.6, SVG Export Plug-In . SVG Version: 6.00 Build 0)  -->
<svg version="1.1" id="Layer_1" xmlns="http://www.w3.org/2000/svg" xmlns:xlink="http://www.w3.org/1999/xlink" x="0px" y="0px"
	 viewBox="0 0 25.2 39.2" style="enable-background:new 0 0 25.2 39.2;" xml:space="preserve">
<style type="text/css">
	.st0{fill-rule:evenodd;clip-rule:evenodd;fill:#0C2A7C;}
</style>
<path class="st0" d="M12.7,0H0v23.7c0.6,6.8,6.6,12.8,12.6,15.5c5.9-2.7,12-8.8,12.6-15.5V0H12.7z M4.8,0.5h3.9v3.9H4.8V0.5z
	 M4.4,17.9l-1.9-1.3l-1.9,1.3V16l1.9-1.3L4.4,16V17.9z M4.4,14.1l-1.9-1.3l-1.9,1.3v-1.9l1.9-1.3l1.9,1.3V14.1z M4.4,10.2L2.4,8.9
	l-1.9,1.3V8.2L2.4,7l1.9,1.3V10.2z M8.7,36.3c-1.1-0.7-2.9-2.4-3.9-3.4V6.3h3.9L8.7,36.3z M8.7,5.8H4.8v-1h3.9V5.8z M16,17.9
	l-1.9-1.3l-1.5,1l-1.5-1l-1.9,1.3V16l1.9-1.3l1.4,1.1l1.5-1.1L16,16V17.9z M16,14.1l-1.9-1.3l-1.5,1l-1.5-1l-1.9,1.3v-1.9l1.9-1.3
	l1.4,1.1l1.5-1.1l1.9,1.3V14.1z M16,10.2l-1.9-1.3l-1.5,1l-1.5-1l-1.9,1.3V8.2L11.1,7L12.6,8L14.1,7L16,8.2V10.2z M20.4,32.9
	c-1,1-2.8,2.7-3.9,3.4l0-30h3.9V32.9z M20.4,5.8h-3.9v-1h3.9V5.8z M20.4,4.4h-3.9V0.5h3.9V4.4z M24.7,17.9l-1.9-1.3l-1.9,1.3V16
	l1.9-1.3l1.9,1.3V17.9z M24.7,14.1l-1.9-1.3l-1.9,1.3v-1.9l1.9-1.3l1.9,1.3V14.1z M24.7,10.2l-1.9-1.3l-1.9,1.3V8.2L22.8,7l1.9,1.3
	V10.2z"/>
</svg>
